{"glyphs":{"0":{"ha":781,"x_min":0,"x_max":781,"o":"m 353 1397 l 355 1397 q 358 1394 358 1397 l 363 1397 l 366 1397 q 388 1381 376 1397 q 567 1259 484 1341 q 583 1240 567 1251 q 608 1253 597 1253 q 651 1202 639 1253 q 673 1123 663 1130 q 697 1202 697 1194 l 708 1202 l 705 1188 l 705 1169 l 711 1169 l 711 1164 q 703 1150 711 1150 l 705 1131 l 705 1120 q 700 1047 705 1099 q 708 1020 708 1034 q 703 1015 703 1019 l 754 882 q 768 865 763 865 q 779 873 768 869 l 781 868 l 781 863 q 757 844 777 854 q 746 846 752 846 l 743 846 l 743 836 q 779 678 758 836 l 779 659 l 773 659 q 757 686 757 674 l 754 686 q 749 659 749 666 l 743 659 l 751 703 q 724 605 746 703 q 719 591 719 605 q 738 648 726 591 l 743 651 l 743 648 q 678 439 743 637 q 662 407 674 407 q 651 331 658 407 q 635 290 640 290 l 627 290 q 629 293 627 293 q 627 301 629 296 q 629 358 629 336 q 621 382 628 382 l 624 388 l 624 404 l 621 404 q 597 328 621 381 q 605 320 597 320 l 605 317 q 597 309 605 313 q 594 312 597 312 l 591 301 l 597 298 q 534 109 567 195 l 537 103 q 518 81 536 96 l 515 81 q 461 103 500 100 q 206 0 312 12 q 201 5 201 0 q 233 27 219 26 l 233 35 l 182 52 q 176 35 176 41 q 179 24 179 31 l 174 22 q 141 106 141 56 q 114 190 127 158 q 109 225 114 204 l 106 225 l 106 220 q 109 179 109 196 l 109 176 l 103 176 l 103 193 l 98 193 l 98 190 q 100 182 100 184 l 95 182 q 54 385 81 210 l 60 385 l 60 380 l 62 380 l 62 388 q 54 391 57 391 l 54 396 l 60 396 l 57 410 l 65 410 l 65 393 l 68 393 l 68 399 l 73 399 l 73 391 l 76 391 l 76 396 q 68 404 76 404 q 11 548 68 447 q 0 583 0 578 q 8 602 3 602 l 14 600 l 22 643 l 14 681 q 16 700 16 692 l 22 700 q 30 670 30 677 l 33 670 q 54 719 33 677 l 87 808 q 54 754 82 808 l 43 743 l 41 743 l 41 749 l 46 768 l 41 768 l 30 760 l 27 760 l 22 762 q 65 914 43 816 q 119 1063 119 1058 l 125 1061 q 133 1082 125 1063 q 130 1090 130 1088 l 136 1088 q 209 1289 179 1187 l 203 1289 l 190 1286 q 187 1289 190 1289 q 288 1362 187 1322 q 347 1389 291 1369 q 353 1397 353 1393 m 288 817 l 290 789 q 279 768 283 768 q 266 800 269 800 l 260 803 l 263 817 l 258 825 l 258 833 l 252 836 l 250 803 l 250 779 q 247 768 250 772 q 250 757 250 763 l 250 727 l 252 713 q 244 711 247 711 l 241 684 l 236 684 q 231 692 236 692 q 225 665 225 669 l 277 477 l 279 477 l 285 494 l 290 494 q 312 415 290 468 l 312 399 l 307 391 q 331 258 315 313 l 334 258 q 407 339 407 321 q 415 366 412 366 l 412 372 l 445 532 q 464 610 454 532 q 475 637 470 610 l 477 637 l 480 624 q 477 621 480 621 q 480 610 480 616 l 486 613 l 488 613 l 488 591 q 534 678 495 596 q 540 694 537 678 q 537 792 537 755 l 537 830 q 540 917 537 859 l 543 917 l 540 922 l 540 941 q 467 1034 540 954 q 410 1120 420 1111 l 407 1120 q 309 1055 361 1082 q 288 817 304 1037 m 597 863 l 597 854 q 602 849 597 849 l 613 849 l 616 860 l 610 871 q 597 863 597 867 m 182 857 l 182 852 q 198 844 184 844 q 203 849 199 849 q 190 860 201 860 q 182 857 184 857 m 184 751 l 179 743 l 179 741 q 184 735 180 735 l 195 735 l 195 749 l 184 751 m 665 719 l 665 716 q 670 711 665 711 l 673 711 q 678 716 678 711 l 678 722 q 673 727 678 727 q 665 719 669 727 m 735 727 l 735 722 l 738 722 l 738 727 l 735 727 m 244 722 l 244 716 l 247 716 l 247 722 l 244 722 m 76 670 q 73 656 76 661 l 81 656 q 87 662 87 656 l 87 670 l 76 670 m 146 640 l 146 627 q 155 624 155 627 q 163 627 160 627 l 163 635 l 160 648 l 155 648 q 146 640 151 648 m 605 643 l 610 621 q 618 629 614 621 l 618 635 q 613 646 613 642 l 610 646 l 605 643 m 486 627 l 491 627 l 491 618 l 486 618 l 486 627 m 119 589 q 114 578 119 585 l 114 572 q 122 570 122 572 q 130 572 127 572 l 130 583 q 119 589 126 583 m 586 545 q 589 537 589 540 l 597 537 q 602 543 602 537 l 602 548 q 597 553 602 553 l 594 553 q 586 545 590 553 m 515 526 l 515 515 q 521 510 516 510 q 529 518 525 510 l 526 532 l 521 532 q 515 526 515 531 m 79 518 l 87 491 l 95 491 l 95 494 q 81 518 95 507 l 79 518 m 144 502 l 144 499 l 157 496 l 163 505 l 163 507 q 157 513 163 513 l 155 513 q 144 502 151 513 m 627 496 l 627 494 q 632 488 627 488 l 637 488 l 648 499 q 646 507 646 505 q 627 496 627 501 m 195 486 l 195 475 q 203 467 195 471 q 209 475 209 467 q 201 491 206 491 q 195 486 195 490 m 486 464 l 480 456 l 480 453 q 496 445 483 445 l 499 458 q 486 464 490 464 m 103 442 l 103 439 q 109 418 109 431 q 117 426 113 418 q 109 442 117 440 l 103 442 m 244 437 l 241 426 q 255 410 247 412 l 260 418 l 260 420 q 252 437 260 435 l 244 437 m 515 412 l 515 410 q 521 404 516 404 l 529 404 l 529 410 l 526 429 l 524 429 q 515 412 515 426 m 193 410 q 203 391 193 395 l 209 399 l 209 407 q 201 412 209 412 q 193 410 195 410 m 149 399 l 149 385 l 155 377 q 165 380 159 380 l 165 385 q 155 404 165 400 q 149 399 149 404 m 472 404 l 472 393 q 480 385 472 389 q 488 396 488 385 q 486 404 486 401 l 472 404 m 76 374 l 76 369 l 79 369 l 79 374 l 76 374 m 217 366 l 217 363 q 225 355 217 359 l 233 355 q 239 361 239 355 l 239 374 l 225 374 q 217 366 221 374 m 79 366 l 79 361 l 81 361 l 81 366 l 79 366 m 515 366 l 513 361 l 513 353 q 518 347 513 347 l 529 347 l 529 363 l 515 366 m 548 345 l 548 342 q 553 336 549 336 l 556 336 q 564 353 564 339 l 564 358 q 548 345 553 355 m 81 355 l 81 345 l 84 345 l 84 355 l 81 355 m 274 345 l 274 326 l 279 326 q 277 345 277 329 l 274 345 m 84 342 l 84 331 q 87 323 87 326 l 90 323 q 87 342 87 334 l 84 342 m 483 334 l 483 323 l 496 320 l 499 326 l 499 339 l 488 339 q 483 334 483 338 m 168 315 l 168 301 q 176 293 168 297 l 179 293 q 184 298 184 293 l 184 309 q 179 320 179 316 l 174 320 q 168 315 168 319 m 222 320 l 220 307 q 239 296 224 296 l 239 312 q 231 320 239 316 l 222 320 m 138 315 q 136 307 138 312 q 146 296 138 296 q 157 309 157 298 q 141 315 149 315 l 138 315 m 90 312 l 90 301 l 95 298 l 95 301 q 92 312 92 306 l 90 312 m 545 298 l 545 285 l 551 285 q 553 301 553 293 q 545 298 548 298 m 442 298 l 437 279 l 445 274 l 448 274 q 453 279 453 274 l 453 298 l 442 298 m 589 298 l 589 293 l 591 293 l 591 298 l 589 298 m 92 293 l 92 288 l 98 260 l 100 260 l 100 263 q 95 293 100 267 l 92 293 m 480 282 l 480 277 q 486 271 481 271 l 499 271 l 499 285 q 491 290 499 290 q 480 282 480 286 m 515 282 l 513 269 l 513 263 q 521 255 513 259 q 526 260 526 255 l 526 277 q 521 282 526 282 l 515 282 m 258 277 q 250 271 258 271 q 258 255 252 255 l 271 255 l 271 269 q 258 277 271 275 m 201 263 l 195 255 l 195 241 q 203 233 195 237 l 206 233 q 212 239 212 233 q 201 263 212 260 m 98 258 l 98 241 q 103 231 103 235 l 109 231 q 98 258 102 258 m 222 252 l 222 247 q 228 241 223 241 l 241 241 q 244 247 241 247 q 236 258 240 258 l 228 258 q 222 252 222 257 m 388 244 l 391 239 q 401 241 395 241 l 401 258 q 388 244 398 258 m 141 252 q 146 236 146 241 l 155 236 q 163 252 163 236 l 149 255 q 141 252 144 252 m 469 231 q 475 225 470 225 q 486 228 479 228 l 486 247 q 469 231 469 247 m 534 244 q 529 233 534 240 l 529 225 q 537 241 534 225 l 537 244 l 534 244 m 290 236 l 288 222 q 298 217 298 220 q 309 225 309 221 q 296 236 296 225 l 290 236 m 250 217 l 250 214 q 258 206 250 210 l 266 206 l 269 220 q 258 233 263 232 q 250 217 250 231 m 448 233 q 442 217 442 224 l 442 206 l 453 206 q 458 222 458 215 l 448 233 m 184 217 l 184 214 l 193 203 q 206 220 206 205 l 198 225 l 193 225 q 184 217 189 225 m 220 212 q 228 201 224 201 l 241 203 l 241 214 q 233 222 241 218 q 220 212 229 222 m 407 220 l 401 212 l 401 206 q 412 198 401 202 q 420 201 418 201 l 420 212 q 407 220 420 218 m 157 217 l 157 203 l 160 190 l 165 190 q 174 201 174 190 q 165 217 171 217 l 157 217 m 377 209 l 377 201 l 391 198 l 396 206 q 393 217 393 211 l 385 217 q 377 209 381 217 m 353 209 q 347 193 353 193 l 334 195 l 328 187 l 328 184 q 342 171 328 181 l 353 187 l 358 184 l 372 187 l 372 193 q 358 209 361 209 l 353 209 m 304 201 l 304 184 q 315 176 304 180 q 320 187 315 187 q 309 206 315 206 q 304 201 304 205 m 279 203 q 271 184 271 195 l 258 184 q 233 163 238 163 l 220 165 l 214 157 l 214 152 q 239 127 228 143 l 250 127 q 252 136 250 130 q 250 155 250 144 q 274 182 274 172 l 288 179 l 293 187 l 293 201 q 279 203 284 201 m 494 187 l 496 176 l 505 176 q 510 182 510 176 l 510 198 q 505 203 510 203 l 502 203 q 494 187 494 201 m 448 198 l 442 190 l 442 182 q 458 176 442 176 q 461 187 461 181 q 448 198 458 198 m 209 195 q 190 171 209 175 q 187 168 190 168 l 190 163 l 190 160 l 176 136 l 174 136 q 176 114 176 121 q 203 138 203 134 l 195 155 q 225 176 213 163 q 214 195 222 195 l 209 195 m 377 171 q 382 163 382 171 l 391 163 q 399 174 395 163 l 391 184 q 377 171 383 184 m 410 182 l 410 163 q 396 149 410 159 q 412 125 410 130 q 429 138 429 130 q 415 152 429 142 l 415 155 l 426 165 q 410 182 426 182 m 475 182 q 453 165 475 177 l 453 163 l 456 157 q 445 141 445 155 l 445 136 l 461 136 l 458 149 q 477 160 474 160 l 486 160 l 488 165 q 475 182 485 177 m 165 171 l 165 163 q 171 157 166 157 l 176 157 q 184 168 184 157 q 176 179 180 179 q 165 171 165 175 m 309 171 q 296 155 309 170 l 296 146 q 312 138 298 138 l 317 138 l 326 144 q 339 130 326 136 q 342 138 342 136 l 345 138 q 358 127 358 130 l 372 138 l 380 125 l 377 119 q 380 111 380 114 l 399 117 l 399 122 q 385 155 385 132 l 372 155 q 366 146 372 146 l 358 152 q 350 144 350 152 l 345 144 q 323 160 345 159 q 309 171 323 168 m 266 155 l 266 149 l 271 130 q 266 125 266 130 l 266 119 l 274 109 l 279 111 l 282 111 l 282 106 q 293 81 282 85 l 296 81 q 298 98 296 83 q 288 125 288 113 l 279 133 l 282 146 q 274 160 280 160 l 271 160 q 266 155 266 159 m 494 144 l 494 138 l 502 138 l 507 157 l 507 160 l 502 160 q 494 144 494 157 m 472 138 l 472 136 l 486 136 q 480 141 486 141 q 472 138 475 138 m 296 119 q 309 106 298 108 l 315 117 q 309 136 309 127 q 296 119 298 136 m 203 111 q 214 95 210 95 l 217 95 q 231 122 231 101 l 231 130 l 225 127 l 220 130 q 203 111 203 124 m 355 111 l 361 98 q 372 106 372 102 l 372 117 q 363 125 372 121 q 355 111 359 125 m 225 87 q 217 90 220 90 l 214 84 l 258 71 l 252 79 l 269 81 q 247 117 269 103 q 231 87 237 117 l 225 87 m 334 114 l 331 100 q 339 87 333 87 q 350 95 350 91 q 339 114 347 114 l 334 114 m 176 100 q 190 84 180 100 l 195 84 l 198 98 l 198 100 q 190 109 198 104 l 184 109 q 176 100 180 109 m 309 92 l 309 79 l 312 73 q 334 81 326 81 q 315 98 334 84 q 309 92 309 97 m 271 76 q 269 65 271 65 q 274 57 271 57 q 288 62 283 62 l 288 65 q 282 76 282 72 l 271 76 m 290 68 l 290 65 l 296 65 l 296 68 l 290 68 z "},"1":{"ha":543,"x_min":0,"x_max":543,"o":"m 540 1499 l 543 1493 l 543 1480 q 540 1469 543 1474 l 543 1463 l 486 1217 l 448 1043 q 450 1040 448 1040 q 434 897 441 938 q 437 894 434 894 q 418 753 427 753 l 420 747 l 418 742 l 420 736 q 396 614 404 698 l 391 614 l 391 639 l 393 652 q 361 433 382 652 q 342 210 347 404 q 345 208 342 208 q 334 96 339 107 q 336 88 336 91 l 363 96 l 391 96 l 391 94 q 334 58 391 90 q 252 -9 252 9 q 136 -47 221 -34 q 122 -42 127 -42 q 52 -129 62 -93 q 38 -134 45 -129 l 38 -129 q 117 199 38 -63 q 133 270 130 237 q 130 278 130 275 l 133 278 q 130 286 130 283 q 133 294 130 289 q 130 300 133 300 l 133 332 l 133 370 q 141 378 133 374 l 144 378 q 163 359 144 372 q 190 490 180 469 q 187 498 187 495 q 193 522 193 515 l 193 525 l 190 525 q 168 471 176 471 l 163 471 l 163 495 q 195 620 163 509 q 209 680 195 666 q 222 753 216 696 q 193 671 218 751 q 152 568 165 596 q 133 528 149 568 l 127 528 q 122 536 127 536 q 274 1062 198 829 l 274 1067 l 271 1067 q 119 967 209 1032 q 68 932 77 932 q 60 935 62 935 l 5 875 l 0 875 q 27 916 0 885 l 24 921 q 98 1016 39 951 l 138 1073 q 195 1146 154 1099 q 269 1274 195 1152 l 266 1255 l 266 1249 q 342 1352 323 1296 q 374 1390 357 1390 q 382 1388 380 1388 q 486 1485 412 1398 l 488 1485 q 494 1477 488 1477 l 494 1474 q 491 1472 494 1472 l 494 1466 q 477 1431 484 1438 l 477 1428 q 529 1493 528 1476 l 540 1499 m 263 723 q 260 715 263 715 q 269 704 264 704 l 271 704 q 279 720 279 707 l 274 723 l 263 723 m 228 593 l 228 574 l 231 574 q 239 582 235 574 l 239 590 l 228 593 m 296 511 q 293 503 296 509 l 296 490 l 307 490 l 309 509 l 304 511 l 296 511 m 307 419 l 307 416 q 315 408 307 412 l 317 408 l 320 422 l 320 425 l 312 425 q 307 419 307 424 m 236 397 l 231 389 l 231 387 q 239 378 231 382 l 244 378 q 250 384 250 378 l 250 395 l 236 397 m 252 330 q 260 316 254 316 q 266 321 266 316 l 266 327 l 260 346 q 252 330 252 343 m 171 327 l 168 316 q 182 300 174 302 l 187 308 l 187 311 q 179 327 187 325 l 171 327 m 298 289 l 298 286 q 307 278 298 282 l 312 278 l 312 297 l 307 297 q 298 289 302 297 m 233 270 l 233 267 q 244 248 233 256 q 258 259 256 254 q 250 278 258 266 q 233 270 237 270 m 206 243 q 201 227 201 234 l 201 216 l 214 216 l 217 229 q 206 243 212 241 m 271 218 l 271 208 q 279 199 271 203 q 288 213 283 199 q 279 227 284 227 q 271 218 275 227 m 160 205 l 157 186 l 165 186 l 165 205 l 160 205 m 214 191 l 214 186 q 222 178 214 184 q 236 189 235 183 q 225 199 236 193 q 214 191 214 195 m 274 170 l 271 164 l 271 161 l 274 148 l 282 148 q 290 156 284 148 q 274 170 289 170 m 184 167 q 176 161 184 161 q 184 145 178 145 l 198 145 l 198 159 q 184 167 198 165 m 233 161 l 233 145 q 239 140 234 140 l 241 140 q 250 151 245 140 q 239 167 244 167 q 233 161 233 166 m 149 142 l 149 137 q 155 132 150 132 l 168 132 q 171 137 168 137 q 163 148 167 148 l 155 148 q 149 142 149 147 m 269 126 q 285 115 271 115 l 288 115 l 290 129 q 285 134 290 134 l 277 134 q 269 126 273 134 m 214 113 q 225 107 225 111 q 239 118 237 113 l 239 129 l 236 129 q 214 113 214 129 m 176 107 l 176 104 q 184 96 176 100 l 193 96 l 195 110 q 184 123 190 122 q 176 107 176 121 m 146 102 q 155 91 151 91 l 168 94 l 168 104 q 160 113 168 109 q 146 102 156 113 m 130 107 l 130 102 l 133 102 l 133 107 l 130 107 m 279 99 q 274 83 279 83 l 260 85 l 255 77 l 255 75 q 263 66 255 71 q 296 85 290 85 q 285 99 289 99 l 279 99 m 231 91 l 231 75 q 241 66 231 71 q 247 77 242 77 q 236 96 242 96 q 231 91 231 96 m 206 94 q 198 75 198 85 l 184 75 q 160 53 165 53 l 146 56 l 141 47 l 141 42 q 165 18 155 33 l 176 18 q 179 26 176 20 q 176 45 176 35 q 201 72 201 62 l 214 69 l 220 77 l 220 91 q 206 94 211 91 m 136 85 q 119 61 136 67 q 103 4 103 9 q 130 28 130 24 l 122 45 q 152 66 140 54 q 141 85 149 85 l 136 85 m 236 61 l 222 45 l 222 34 q 247 58 224 34 q 236 61 241 58 m 193 45 l 193 39 l 198 20 q 193 15 193 20 l 193 9 l 195 9 q 212 20 212 16 l 206 23 l 209 37 q 201 50 207 50 l 198 50 q 193 45 193 50 m 130 1 q 133 -7 133 -4 l 141 -7 q 157 9 157 -7 l 157 20 l 152 18 l 146 20 q 130 1 130 14 m 163 -1 l 165 -1 l 179 1 q 174 7 179 7 q 163 -1 163 3 m 103 -9 l 125 -9 q 117 -1 125 -5 l 111 -1 q 103 -9 107 -1 z "},"2":{"ha":1023,"x_min":0,"x_max":1023,"o":"m 613 1455 l 616 1450 q 559 1393 596 1423 l 564 1393 q 694 1428 639 1417 q 697 1431 694 1431 q 762 1341 753 1374 q 873 1165 805 1240 q 947 1092 873 1160 q 971 1057 971 1063 q 958 991 959 1057 q 909 859 929 859 q 776 682 863 792 q 762 658 776 676 l 762 655 l 765 655 q 811 704 765 662 l 811 699 q 727 536 800 642 q 624 340 698 452 q 589 283 613 328 l 589 281 q 854 346 755 346 q 977 425 881 356 q 1020 446 985 425 l 1023 446 l 1023 444 q 974 332 994 385 l 911 205 l 917 205 l 917 202 q 887 151 897 184 q 838 56 846 59 q 830 69 830 64 q 616 26 800 58 q 450 -61 515 -24 l 453 -75 q 410 -96 453 -82 q 326 -88 366 -91 q 312 -91 321 -91 l 312 -88 l 307 -91 q 304 -88 304 -91 q 117 -142 208 -123 q 60 -183 60 -172 q 11 -197 60 -192 l 3 -197 l 0 -191 q 30 -123 30 -173 q 65 28 49 -64 q 62 31 65 31 q 76 83 69 83 q 149 170 92 95 q 312 359 219 248 q 361 425 332 378 q 442 598 372 434 q 513 791 486 692 q 532 804 524 804 l 532 791 q 526 750 526 751 l 532 747 q 624 951 624 937 q 640 989 640 981 q 600 1105 627 1050 q 328 1002 551 1092 q 255 937 320 1002 q 68 739 76 768 q 46 726 54 726 l 46 758 q 68 840 46 777 l 65 845 q 87 1000 87 947 l 87 1070 l 84 1084 l 87 1084 q 84 1095 84 1088 l 65 1076 l 60 1092 l 81 1124 l 81 1127 l 76 1124 l 76 1127 q 98 1152 77 1134 l 100 1152 l 100 1146 l 114 1157 l 111 1162 l 111 1165 l 114 1165 l 119 1162 q 133 1176 119 1164 l 130 1181 q 198 1227 163 1211 l 198 1236 l 201 1236 l 206 1233 q 258 1279 236 1269 l 263 1276 q 320 1312 285 1301 l 320 1309 l 260 1255 l 263 1255 q 450 1358 432 1326 q 507 1398 476 1381 q 564 1436 545 1436 l 613 1455 m 103 1157 l 109 1157 l 109 1154 l 103 1154 l 103 1157 m 640 712 l 640 704 q 646 699 641 699 l 656 699 l 659 709 l 654 720 q 640 712 640 717 m 518 576 l 518 571 l 529 571 q 534 576 534 571 l 534 587 q 529 593 534 593 l 526 593 q 518 576 518 590 m 648 492 l 651 476 l 654 476 q 659 487 654 487 q 656 495 656 492 l 654 495 l 648 492 m 510 463 l 510 452 q 515 446 511 446 l 524 446 q 529 452 529 446 l 529 457 q 518 465 529 460 q 510 463 513 463 m 423 378 l 423 376 q 431 368 423 372 q 439 370 437 370 l 439 384 l 429 384 q 423 378 423 383 m 559 376 l 559 365 q 564 359 559 359 q 572 368 568 359 l 570 381 l 564 381 q 559 376 559 380 m 355 338 l 361 338 q 366 343 366 338 l 366 349 q 355 338 362 349 m 461 316 l 458 297 l 469 289 l 475 297 q 464 316 471 316 l 461 316 m 529 313 l 524 305 l 524 302 q 540 294 526 294 l 543 308 q 529 313 534 313 m 369 289 q 377 275 371 275 q 382 281 382 275 l 382 286 l 377 305 q 369 289 369 302 m 898 305 l 898 286 l 903 286 l 906 300 l 906 305 l 898 305 m 838 283 q 846 273 842 273 l 849 273 q 854 278 854 273 l 854 286 l 849 294 q 838 283 838 292 m 732 278 q 751 267 735 267 l 754 273 l 754 278 q 746 286 754 282 q 732 278 743 286 m 290 262 q 298 259 293 262 l 304 267 l 304 275 q 290 262 300 275 m 415 248 l 415 245 q 423 237 415 241 l 426 237 q 434 254 431 237 l 429 256 l 423 256 q 415 248 419 256 m 515 254 l 515 243 q 524 235 515 239 q 532 245 532 235 q 529 254 529 251 l 515 254 m 800 235 l 806 232 l 817 232 q 822 237 822 232 l 819 251 q 800 235 800 251 m 350 229 l 350 227 q 361 208 350 215 q 374 218 373 213 q 366 237 374 225 q 350 229 354 229 m 260 216 l 260 213 q 269 205 260 209 l 277 205 q 282 210 282 205 l 282 224 l 269 224 q 260 216 264 224 m 456 205 q 464 197 456 201 l 469 197 l 472 210 l 472 213 q 464 221 472 217 q 456 205 456 218 m 667 208 l 667 199 l 678 197 l 684 205 l 684 213 q 678 218 684 218 q 667 208 674 218 m 559 216 l 556 210 l 556 202 q 562 197 557 197 l 572 197 l 572 213 l 559 216 m 768 205 l 768 197 q 781 186 768 193 l 787 194 l 787 205 q 779 213 787 207 q 768 205 768 209 m 591 194 l 591 191 q 597 186 592 186 l 610 186 l 613 199 l 613 205 q 608 208 608 205 q 591 194 597 204 m 323 202 q 317 186 317 193 l 317 175 l 331 175 l 334 189 q 323 202 328 201 m 822 197 l 822 191 q 827 186 823 186 l 833 186 q 838 191 838 186 l 838 194 q 830 202 838 198 l 827 202 q 822 197 822 201 m 713 180 l 713 172 q 724 170 720 172 q 732 175 724 175 l 732 178 q 727 191 732 191 q 713 180 715 186 m 526 183 l 526 172 l 540 170 l 543 175 l 543 189 l 532 189 q 526 183 526 188 m 388 178 l 388 167 q 396 159 388 163 q 404 172 400 159 q 396 186 401 186 q 388 178 392 186 m 212 164 l 212 151 q 220 142 212 146 l 222 142 q 228 148 228 142 l 228 159 q 222 170 222 165 l 217 170 q 212 164 212 169 m 266 170 l 263 156 q 282 145 268 145 l 282 161 q 274 170 282 165 l 266 170 m 635 161 l 635 156 q 643 148 635 152 l 651 148 l 654 159 l 643 167 l 640 167 q 635 161 635 166 m 792 156 l 800 151 l 808 151 l 811 164 q 803 167 806 167 q 792 156 794 164 m 429 156 l 429 151 q 437 142 429 146 q 448 161 445 142 l 442 164 q 429 156 429 161 m 331 151 l 331 145 q 339 137 331 143 q 353 148 351 142 q 342 159 353 152 q 331 151 331 155 m 193 148 l 198 148 l 198 153 q 193 148 193 153 m 589 148 l 589 137 q 597 129 589 135 q 608 140 608 132 q 597 151 605 151 q 589 148 591 148 m 486 148 l 480 129 l 488 123 l 491 123 q 496 129 496 123 l 496 148 l 486 148 m 741 134 l 741 132 q 746 126 741 126 l 757 126 q 760 132 757 132 q 751 145 756 145 q 741 134 747 145 m 524 132 l 524 126 q 529 121 524 121 l 543 121 l 543 134 q 534 140 543 140 q 524 132 524 136 m 665 123 q 673 113 669 113 q 681 115 678 115 l 681 121 l 678 140 l 675 140 q 665 123 665 134 m 713 140 l 705 129 q 713 118 709 118 l 719 118 q 724 123 724 118 l 724 137 l 713 140 m 629 134 q 613 115 629 133 l 613 113 q 618 107 614 107 l 624 107 q 635 132 635 111 l 629 134 m 789 115 l 795 113 l 806 113 q 811 126 806 117 q 806 134 808 134 q 789 115 789 128 m 559 132 l 556 118 l 556 113 q 564 104 556 109 q 570 110 570 104 l 570 126 q 564 132 570 132 l 559 132 m 165 113 l 171 113 q 176 118 176 113 l 176 129 q 165 113 165 123 m 391 129 l 388 123 l 388 121 l 391 107 l 399 107 q 407 115 401 107 q 391 129 406 129 m 301 126 q 293 121 301 121 q 301 104 295 104 l 315 104 l 315 118 q 301 126 315 124 m 350 121 l 350 104 q 355 99 351 99 l 358 99 q 366 110 362 99 q 355 126 361 126 q 350 121 350 125 m 429 107 l 429 96 l 434 88 q 445 91 439 91 l 445 107 q 437 115 445 111 q 429 107 433 115 m 244 113 l 239 104 l 239 91 q 247 83 239 87 l 250 83 q 255 88 255 83 q 244 113 255 109 m 266 102 l 266 96 q 271 91 267 91 l 285 91 q 288 96 285 96 q 279 107 283 107 l 271 107 q 266 102 266 106 m 182 96 l 182 94 q 198 85 184 85 q 206 102 206 85 l 193 104 q 182 96 182 100 m 757 102 l 757 91 l 776 94 l 776 102 l 765 104 q 757 102 760 102 m 689 83 l 694 80 l 700 80 q 708 91 704 80 q 705 99 705 96 l 697 99 q 689 83 689 96 m 513 80 q 518 75 513 75 q 529 77 523 77 l 529 96 q 513 80 513 96 m 146 94 l 141 85 l 141 72 l 152 72 q 155 83 155 77 l 155 85 q 146 94 155 90 m 385 85 q 401 75 388 75 l 404 75 l 407 88 q 401 94 407 94 l 393 94 q 385 85 389 94 m 578 94 q 572 83 578 90 l 572 77 q 586 69 572 73 l 591 88 l 583 94 l 578 94 m 724 85 l 735 85 q 741 91 741 85 l 735 94 q 724 85 724 90 m 331 72 q 342 66 342 70 q 355 77 354 72 l 355 88 l 353 88 q 331 72 331 88 m 293 66 l 293 64 q 301 56 293 60 l 309 56 l 312 69 q 301 83 307 81 q 293 66 293 80 m 491 83 q 486 66 486 74 l 486 56 l 496 56 q 502 72 502 64 l 491 83 m 648 83 q 643 72 648 79 l 654 72 q 659 77 659 72 l 651 83 l 648 83 m 228 66 l 228 64 l 236 53 q 250 69 250 55 l 241 75 l 236 75 q 228 66 232 75 m 605 75 l 594 61 l 594 58 q 613 64 608 64 l 613 66 q 605 75 613 71 m 168 61 q 184 50 171 50 l 187 56 l 187 69 q 182 72 182 69 q 168 61 170 66 m 263 61 q 271 50 267 50 l 285 53 l 285 64 q 277 72 285 68 q 263 61 273 72 m 450 69 l 445 61 l 445 56 q 456 47 445 52 q 464 50 461 50 l 464 61 q 450 69 464 67 m 201 66 l 201 45 q 206 39 201 39 l 209 39 q 217 50 217 39 q 209 66 214 66 l 201 66 m 420 58 l 420 50 l 434 47 l 439 56 q 437 66 437 60 l 429 66 q 420 58 425 66 m 396 58 q 391 42 396 42 l 377 45 l 372 37 l 372 34 q 385 20 372 31 l 396 37 l 401 34 l 415 37 l 415 42 q 401 58 405 58 l 396 58 m 122 47 l 122 31 l 136 28 q 141 39 138 39 q 130 56 136 56 q 122 47 126 56 m 347 50 l 347 34 q 358 26 347 30 q 363 37 359 37 q 353 56 359 56 q 347 50 347 55 m 572 56 l 572 53 l 578 53 l 578 56 l 572 56 m 323 53 q 315 34 315 45 l 301 34 q 277 12 281 12 l 263 15 l 258 7 l 258 1 q 282 -23 271 -7 l 293 -23 q 296 -15 293 -20 q 293 4 293 -6 q 317 31 317 21 l 331 28 l 336 37 l 336 50 q 323 53 328 50 m 537 37 l 540 37 q 553 42 549 42 l 553 47 q 548 53 553 53 l 545 53 q 537 37 537 50 m 165 47 l 163 42 l 163 26 q 168 20 163 20 l 171 20 q 179 28 175 20 q 165 47 173 47 m 491 47 l 486 39 l 486 31 q 502 26 486 26 q 505 37 505 31 q 491 47 502 47 m 252 45 q 233 20 252 24 q 231 18 233 18 l 233 12 l 233 9 l 220 -15 l 214 -15 l 195 -12 q 190 -20 193 -20 q 203 -39 194 -37 l 206 -39 l 214 -34 l 217 -34 l 222 -37 q 241 -20 222 -32 l 247 -12 l 239 4 q 269 26 256 13 q 258 45 265 45 l 252 45 m 420 20 q 426 12 426 20 l 434 12 q 442 23 438 12 l 434 34 q 420 20 427 34 m 453 31 l 453 12 q 439 -1 453 9 q 448 -12 444 -12 l 461 -4 l 458 1 l 458 4 l 469 15 q 453 31 469 31 m 515 26 l 521 26 l 521 31 q 515 26 515 31 m 203 20 q 195 23 198 23 q 171 7 176 7 q 168 15 168 12 l 157 15 l 149 9 q 141 18 149 14 l 136 18 l 133 4 q 141 -7 137 -7 l 146 -7 q 152 1 146 1 l 155 1 l 155 -4 l 163 -4 l 168 -1 q 184 -18 175 -18 q 206 12 184 -2 l 214 7 l 220 7 q 228 18 228 7 q 220 28 224 28 l 203 20 m 98 12 l 98 -4 q 111 -9 102 -4 l 117 -1 l 117 1 q 106 20 117 16 q 98 12 102 20 m 353 20 l 339 4 l 339 -4 q 355 -12 342 -12 l 361 -12 l 369 -7 q 382 -20 369 -14 q 385 -12 385 -15 l 388 -12 q 401 -23 401 -21 l 415 -12 q 426 -26 420 -24 q 431 -20 431 -26 l 431 -15 l 429 4 l 415 4 q 410 -4 415 -4 l 401 1 q 393 -7 393 1 l 388 -7 q 366 9 388 8 q 353 20 366 18 m 499 20 l 499 18 l 505 18 l 505 20 l 499 20 m 309 4 l 309 -1 l 315 -20 q 309 -26 309 -21 l 309 -31 l 317 -42 l 323 -39 l 326 -39 l 326 -56 l 342 -56 q 331 -26 331 -34 l 323 -18 l 326 -4 q 317 9 323 9 l 315 9 q 309 4 309 9 m 144 -12 l 144 -34 q 168 -50 144 -40 q 176 -47 174 -47 l 176 -45 q 155 -20 176 -24 l 155 -12 l 144 -12 m 339 -31 q 353 -45 342 -43 l 358 -34 q 353 -15 353 -23 q 339 -31 342 -15 m 92 -18 l 92 -37 q 98 -42 93 -42 l 100 -23 l 92 -18 m 103 -47 l 103 -56 q 119 -72 111 -72 l 133 -64 q 141 -72 137 -64 q 138 -80 141 -75 l 141 -96 l 144 -96 q 157 -91 157 -96 q 146 -66 157 -85 q 149 -50 149 -52 q 136 -42 149 -42 q 133 -53 133 -47 l 127 -53 l 127 -50 q 130 -39 127 -44 q 119 -20 125 -20 q 109 -47 114 -20 l 103 -47 m 247 -39 q 258 -56 253 -56 l 260 -56 q 274 -28 274 -50 l 274 -20 l 269 -23 l 263 -20 q 247 -39 247 -26 m 399 -39 q 407 -53 402 -53 q 415 -45 411 -53 l 415 -34 q 407 -26 415 -30 q 399 -39 402 -26 m 279 -42 l 279 -56 l 309 -56 l 309 -53 q 290 -34 309 -49 q 279 -42 279 -38 m 377 -37 l 374 -50 l 374 -53 q 380 -58 375 -58 l 393 -58 l 393 -56 q 382 -37 390 -37 l 377 -37 m 184 -42 l 179 -50 l 179 -61 q 187 -69 179 -65 l 190 -69 q 198 -53 198 -66 q 184 -42 195 -42 m 206 -77 l 209 -77 q 241 -56 241 -66 l 241 -50 q 233 -42 241 -46 l 228 -42 q 206 -77 206 -54 m 355 -53 l 355 -56 l 361 -56 l 361 -53 l 355 -53 m 165 -66 q 160 -77 165 -71 q 165 -91 161 -91 l 179 -88 l 179 -75 q 171 -66 179 -71 l 165 -66 m 84 -69 l 81 -88 l 81 -91 q 92 -107 92 -91 q 138 -99 119 -99 l 138 -96 q 130 -88 138 -92 l 122 -88 q 117 -96 122 -96 l 100 -75 q 87 -69 94 -75 l 84 -69 m 79 -99 l 73 -118 q 81 -110 77 -118 l 81 -99 l 79 -99 z "},"3":{"ha":1009,"x_min":0,"x_max":1009,"o":"m 559 1546 l 564 1546 q 586 1525 570 1546 q 673 1514 598 1522 q 675 1516 675 1514 q 684 1514 678 1516 l 768 1519 l 776 1508 q 773 1500 773 1503 q 852 1351 787 1500 q 890 1256 888 1282 q 920 1221 920 1225 q 925 1194 925 1199 q 906 1202 911 1202 q 944 1118 924 1149 l 944 1115 q 947 1074 944 1101 l 941 1074 q 936 1082 941 1082 q 930 1077 930 1082 l 930 1055 q 876 936 930 1042 l 879 936 q 949 939 924 939 q 993 928 985 928 l 1009 928 l 1009 922 q 963 906 1001 922 l 963 890 l 960 884 l 963 884 q 996 895 975 895 l 998 890 l 998 876 q 977 811 991 867 q 901 600 930 725 q 833 450 866 510 q 825 410 833 438 l 827 410 q 854 426 844 426 l 857 426 l 857 415 q 800 307 840 378 l 781 209 l 784 203 q 781 187 781 189 l 784 176 q 719 -11 746 44 l 719 -16 l 716 -16 l 711 -14 q 705 -30 711 -18 q 711 -35 711 -31 l 684 -62 l 684 -60 q 651 -68 659 -68 q 605 -62 639 -68 q 559 -119 570 -92 q 529 -133 541 -133 q 507 -127 507 -133 q 401 -160 447 -149 l 385 -160 q 355 -138 355 -160 q 293 -76 307 -113 q 209 136 293 -27 q 184 206 184 193 l 184 222 q 160 236 178 222 q 114 266 117 255 l 114 269 q 125 277 114 275 q 176 266 132 271 q 92 374 176 279 q 3 475 51 429 q 0 483 3 477 l 5 486 q 49 458 10 486 q 122 445 56 448 l 149 448 q 279 423 170 439 q 323 439 312 429 l 331 439 q 374 266 339 439 q 431 214 374 250 q 464 152 449 193 q 469 141 464 141 l 475 141 q 518 293 488 205 q 572 429 526 299 q 589 480 589 467 q 562 453 583 480 l 559 453 q 553 458 553 453 l 553 472 q 662 665 588 552 l 700 724 q 713 746 700 731 l 713 749 l 686 757 l 673 757 q 507 686 640 757 q 477 681 496 681 q 469 703 472 681 l 472 708 l 469 719 q 513 833 469 751 l 513 838 q 467 873 492 845 q 572 947 475 890 q 697 1074 675 1044 q 713 1085 706 1078 q 637 1191 687 1140 q 616 1218 618 1218 l 610 1218 q 483 1169 522 1169 q 377 941 483 1156 q 339 917 377 931 q 298 949 336 925 q 293 955 298 955 l 290 955 l 293 941 q 282 920 290 920 q 187 1066 231 976 l 179 1066 l 163 1015 l 157 1015 l 157 1017 q 152 1088 157 1054 q 171 1134 156 1088 q 241 1291 208 1204 q 260 1362 255 1327 q 250 1367 250 1362 l 250 1373 l 269 1394 l 269 1397 l 263 1405 l 263 1411 q 377 1465 263 1417 q 515 1530 446 1484 q 559 1546 541 1546 m 735 594 l 735 591 q 741 586 736 586 l 743 586 q 749 591 749 586 l 749 597 q 743 602 749 602 q 735 594 739 602 m 675 518 l 681 496 q 689 505 685 496 l 689 510 q 684 521 684 517 l 681 521 l 675 518 m 770 477 l 779 472 l 781 472 q 789 480 785 472 l 789 483 q 781 488 789 488 q 770 477 772 486 m 656 420 q 659 412 659 415 l 667 412 q 673 418 673 412 l 673 423 q 667 429 673 429 l 665 429 q 656 420 661 429 m 149 393 l 146 380 q 160 366 157 366 l 165 366 l 165 369 q 152 393 165 382 l 149 393 m 214 377 l 214 374 l 228 372 l 233 380 l 233 382 q 228 388 233 388 l 225 388 q 214 377 221 388 m 697 372 l 697 369 q 703 363 698 363 l 708 363 l 719 374 q 716 382 716 380 q 697 372 697 376 m 266 361 l 266 350 q 274 342 266 346 q 279 350 279 342 q 271 366 277 366 q 266 361 266 366 m 315 312 l 312 301 q 326 285 317 287 l 328 290 l 328 293 l 326 312 l 315 312 m 675 298 l 675 290 l 689 290 q 697 309 694 290 l 692 312 q 675 298 681 309 m 586 288 l 586 285 q 591 279 587 279 l 600 279 l 600 285 l 597 304 l 594 304 q 586 288 586 301 m 263 285 q 274 266 263 271 l 279 274 l 279 282 q 271 288 279 288 q 263 285 266 285 m 220 274 l 220 260 l 225 252 q 236 255 230 255 l 236 260 q 225 279 236 275 q 220 274 220 279 m 288 241 l 288 239 q 296 231 288 235 l 304 231 q 309 236 309 231 l 309 250 l 296 250 q 288 241 292 250 m 694 233 l 694 225 l 705 222 l 711 231 l 711 239 q 705 244 711 244 q 694 233 701 244 m 586 241 l 583 236 l 583 228 q 589 222 584 222 l 600 222 l 600 239 l 586 241 m 618 220 l 618 217 q 624 212 619 212 l 637 212 l 640 225 l 640 231 q 635 233 635 231 q 618 220 624 230 m 345 220 l 345 201 l 358 201 q 361 209 358 203 q 345 220 347 220 m 553 209 l 553 198 l 567 195 l 570 201 l 570 214 l 559 214 q 553 209 553 214 m 741 206 l 741 198 l 749 198 l 749 214 q 741 206 745 214 m 239 190 l 239 184 q 247 168 241 168 l 250 168 q 255 174 255 168 l 255 184 q 250 195 250 191 l 244 195 q 239 190 239 195 m 293 195 l 290 182 q 309 171 295 171 l 309 187 q 301 195 309 191 l 293 195 m 662 187 l 662 182 q 670 174 662 178 l 678 174 l 681 184 l 670 193 l 667 193 q 662 187 662 192 m 358 176 l 358 171 q 366 163 358 169 q 380 174 378 168 q 369 184 380 178 q 358 176 358 180 m 616 174 l 616 163 q 624 155 616 161 q 635 165 635 157 q 624 176 632 176 q 616 174 618 174 m 521 171 q 518 149 521 164 q 524 157 524 149 l 524 171 l 521 171 m 551 157 l 551 152 q 556 146 551 146 l 570 146 l 570 160 q 562 165 570 165 q 551 157 551 161 m 692 149 q 700 138 696 138 q 708 141 705 141 l 708 146 l 705 165 l 703 165 q 692 149 692 160 m 656 160 l 640 141 l 640 138 q 646 133 641 133 l 651 133 q 662 157 662 136 l 656 160 m 732 155 l 732 152 q 738 157 738 152 l 738 160 q 732 155 732 159 m 586 157 l 583 144 l 583 138 q 591 130 583 134 q 597 136 597 130 l 597 152 q 591 157 597 157 l 586 157 m 328 152 q 320 146 328 146 q 328 130 322 130 l 342 130 l 342 144 q 328 152 342 150 m 377 146 l 377 130 q 382 125 378 125 l 385 125 q 393 136 389 125 q 382 152 388 152 q 377 146 377 151 m 415 152 l 415 146 l 418 133 l 426 133 l 426 136 q 415 152 420 152 m 271 138 l 266 130 l 266 125 q 274 109 268 109 l 277 109 q 282 114 282 109 q 271 138 282 135 m 293 127 l 293 122 q 298 117 294 117 l 312 117 q 315 122 312 122 q 307 133 311 133 l 298 133 q 293 127 293 132 m 716 109 l 722 106 q 724 125 722 114 q 716 109 716 122 m 540 106 q 545 100 541 100 q 556 103 550 103 l 556 122 q 540 106 540 122 m 412 111 q 429 100 415 100 l 431 100 q 434 109 431 103 q 431 119 431 113 l 420 119 q 412 111 416 119 m 605 119 q 600 109 605 115 l 600 103 q 613 95 600 98 l 618 114 l 610 119 l 605 119 m 358 98 q 369 92 369 96 q 382 103 381 98 l 382 114 l 380 114 q 358 98 358 114 m 320 92 l 320 90 q 328 81 320 85 l 336 81 l 339 95 q 328 109 334 107 q 320 92 320 106 m 518 109 q 513 92 513 100 l 513 81 l 524 81 q 529 98 529 90 l 518 109 m 675 109 q 667 95 675 104 l 667 90 q 675 84 667 84 q 689 90 684 90 q 678 109 686 109 l 675 109 m 632 100 q 621 87 621 88 q 629 71 624 71 l 637 71 l 640 90 l 640 92 q 632 100 640 96 m 290 87 q 298 76 294 76 l 312 79 l 312 90 q 304 98 312 94 q 290 87 300 98 m 477 95 l 472 87 l 472 81 q 483 73 472 77 q 491 76 488 76 l 491 87 q 477 95 491 93 m 448 84 l 448 76 l 461 73 l 467 81 q 464 92 464 86 l 456 92 q 448 84 452 92 m 697 76 l 697 71 q 705 68 700 71 l 713 84 q 711 87 711 84 q 697 76 699 81 m 423 84 q 418 68 423 68 l 404 71 l 399 62 l 399 60 q 412 46 399 56 l 423 62 l 429 60 l 442 62 l 442 68 q 429 84 432 84 l 423 84 m 374 76 l 374 60 q 385 52 374 56 q 391 62 386 62 q 380 81 386 81 q 374 76 374 81 m 600 81 l 594 73 l 594 65 q 602 57 594 61 q 610 60 608 60 l 610 79 l 600 81 m 350 79 q 342 60 342 71 l 328 60 q 304 38 309 38 q 320 3 315 3 q 323 11 320 5 q 320 30 320 20 q 345 57 345 47 l 358 54 l 363 62 l 363 76 q 350 79 355 76 m 564 62 l 567 52 l 575 52 q 581 57 581 52 l 581 73 q 575 79 581 79 l 572 79 q 564 62 564 76 m 518 73 l 513 65 l 513 57 q 529 52 513 52 q 532 62 532 56 q 518 73 529 73 m 662 60 l 662 49 l 675 46 q 681 60 681 55 q 678 68 678 65 q 662 60 662 66 m 448 46 q 453 38 453 46 l 461 38 q 469 49 465 38 l 461 60 q 448 46 454 60 m 627 52 l 627 46 q 643 41 627 41 q 646 52 646 45 q 637 60 646 56 l 635 60 q 627 52 631 60 m 480 57 l 480 38 q 467 24 480 35 q 488 -3 467 20 q 499 5 499 1 l 499 8 q 486 27 499 19 l 486 30 l 496 41 q 480 57 496 57 m 545 57 q 524 41 545 52 l 524 38 l 526 33 q 515 16 515 30 l 515 8 q 521 3 516 3 l 529 3 l 532 16 q 529 24 529 22 q 548 35 545 35 l 556 35 l 559 41 q 545 57 555 52 m 694 54 q 689 43 694 50 l 689 35 l 694 35 l 700 54 l 694 54 m 380 46 l 366 30 l 366 22 q 382 14 369 14 l 388 14 l 396 19 q 410 5 396 12 q 412 14 412 11 l 415 14 q 429 3 429 5 l 442 14 l 450 0 l 448 -5 q 461 -19 448 -9 q 450 -41 450 -31 l 456 -60 q 450 -65 456 -65 q 434 -38 437 -38 l 431 -38 q 420 -49 429 -38 l 423 -54 q 410 -71 420 -65 l 404 -71 l 404 -68 q 410 -62 405 -62 q 385 -27 404 -37 q 380 -33 380 -28 l 380 -41 q 382 -52 380 -47 q 372 -65 377 -64 q 353 -52 372 -62 l 353 -49 l 342 -49 q 339 -60 342 -60 q 358 -79 339 -68 l 355 -84 q 393 -119 391 -107 l 418 -117 l 418 -114 l 415 -95 l 429 -87 l 431 -87 l 434 -103 q 429 -109 429 -104 l 431 -109 q 458 -87 450 -109 l 464 -87 l 464 -98 l 483 -95 l 483 -81 l 496 -71 l 507 -79 q 515 -71 511 -79 l 515 -60 q 505 -52 515 -53 l 505 -43 q 521 -27 505 -39 q 534 -35 534 -31 q 518 -57 531 -35 l 521 -62 q 518 -65 521 -65 l 521 -71 q 513 -84 513 -79 l 499 -81 l 496 -81 l 494 -95 l 513 -95 q 551 -46 524 -92 q 575 -30 555 -46 l 605 -30 q 591 -19 602 -19 q 583 -22 586 -22 q 575 -14 583 -18 q 559 -27 564 -17 q 537 -8 537 -18 l 532 -11 l 526 -8 q 518 -16 526 -12 q 505 -11 509 -11 q 496 -19 505 -15 q 480 -3 484 -3 q 469 -14 480 -7 q 467 -11 469 -11 l 469 -5 l 469 -3 q 456 30 456 7 l 442 30 q 437 22 442 22 l 429 27 q 420 19 420 27 l 415 19 q 393 35 415 34 q 380 46 393 43 m 564 19 l 564 14 l 567 14 q 605 30 605 21 q 597 43 602 43 l 594 43 q 567 33 584 36 l 564 19 m 643 35 q 665 16 643 16 q 673 8 665 12 l 675 8 q 684 19 677 19 q 681 27 681 24 l 678 27 l 665 24 q 662 38 662 29 l 656 38 l 643 35 m 336 30 l 336 24 l 342 5 q 336 0 336 5 l 336 -5 l 345 -16 l 350 -14 l 353 -14 l 353 -19 q 363 -43 353 -40 l 366 -43 q 369 -27 366 -41 q 358 0 358 -12 q 350 8 352 8 l 353 22 q 345 35 351 35 l 342 35 q 336 30 336 35 m 608 24 q 632 -5 608 14 l 637 -5 q 643 0 643 -5 l 643 11 l 627 22 l 627 30 l 613 30 q 608 24 608 29 m 537 5 q 548 -8 543 -7 q 562 3 562 -5 q 551 16 556 15 q 537 5 538 11 m 366 -5 q 380 -19 369 -17 l 385 -8 q 380 11 380 3 q 366 -5 369 11 m 575 0 l 575 -5 q 591 -14 578 -14 q 600 -11 597 -11 l 610 -22 q 608 -30 608 -27 l 635 -30 q 627 -5 627 -15 l 621 -8 q 613 5 615 -8 l 608 5 l 594 3 q 589 8 594 8 l 583 8 q 575 0 579 8 m 426 -14 q 434 -27 429 -27 l 437 -27 q 442 -22 442 -27 l 442 -8 q 434 0 442 -4 q 426 -14 429 0 m 637 -30 l 640 -30 q 673 -5 659 -30 l 673 -3 l 670 -3 l 640 -19 l 637 -30 m 404 -11 l 401 -24 q 410 -38 404 -38 l 412 -38 q 420 -30 416 -38 q 410 -11 417 -11 l 404 -11 m 323 -14 l 323 -33 l 326 -46 l 339 -43 q 323 -14 339 -22 m 477 -33 l 486 -33 q 491 -38 491 -33 l 491 -41 q 486 -46 491 -46 l 480 -46 l 477 -33 m 396 -73 l 401 -73 q 399 -87 399 -78 l 393 -87 l 391 -76 l 396 -73 m 431 -73 l 437 -73 l 437 -81 l 431 -81 l 431 -73 m 377 -79 l 382 -87 l 382 -92 l 377 -92 q 372 -87 372 -92 l 372 -84 q 377 -79 372 -79 z "},"4":{"ha":998,"x_min":0,"x_max":998,"o":"m 879 1426 l 884 1426 l 882 1399 l 882 1358 q 754 1160 882 1331 q 670 1065 715 1126 q 673 1057 673 1060 l 689 1068 l 694 1068 q 675 987 683 1004 q 610 884 671 971 l 610 881 q 708 935 642 895 q 716 932 711 935 q 863 954 795 946 q 939 995 939 991 q 979 1027 953 1027 q 996 1041 979 1035 l 998 1041 l 998 1038 l 990 1025 q 996 1022 996 1025 q 936 876 968 978 q 873 710 912 795 q 860 672 867 672 q 852 688 852 675 q 811 669 845 688 q 727 634 804 669 l 727 629 l 732 631 q 751 621 747 631 q 727 558 747 614 l 730 553 l 665 317 l 665 279 q 651 214 665 258 l 646 214 q 637 246 643 246 q 608 159 627 222 q 589 124 597 133 l 589 121 l 602 124 l 602 121 l 600 116 l 602 116 l 608 119 l 610 113 q 486 45 594 96 q 412 7 424 7 q 391 -12 391 -6 l 388 -12 l 382 -9 l 358 -31 q 326 -85 351 -31 q 298 -112 321 -85 l 296 -96 q 309 -68 300 -83 q 307 -60 307 -63 q 347 186 331 -26 q 377 290 358 271 q 423 390 389 329 l 423 387 q 418 347 418 353 l 418 344 l 420 344 q 488 596 488 591 q 347 523 466 596 l 345 523 l 347 517 l 347 509 q 198 469 297 469 q 3 404 31 404 q 0 412 0 409 q 49 507 19 435 q 144 634 83 563 q 263 808 174 698 q 326 968 275 812 q 358 1027 347 1027 q 366 1044 366 1038 l 372 1044 l 372 1041 q 366 1025 372 1034 q 369 1017 369 1019 q 358 965 361 995 q 423 1087 364 965 q 548 1326 527 1295 q 570 1320 567 1320 q 719 1364 681 1364 q 827 1394 761 1364 q 879 1426 866 1426 m 765 778 l 765 770 q 770 764 766 764 l 781 764 l 784 775 l 779 786 q 765 778 765 783 m 350 772 l 350 767 q 366 759 353 759 q 372 764 367 764 q 358 775 369 775 q 350 772 353 772 m 505 748 q 502 740 505 740 q 510 729 506 729 l 513 729 q 521 745 521 732 l 515 748 l 505 748 m 353 667 l 347 659 l 347 656 q 353 650 348 650 l 363 650 l 363 664 l 353 667 m 643 642 l 643 637 l 654 637 q 659 642 659 637 l 659 653 q 654 659 659 659 l 651 659 q 643 642 643 656 m 236 577 q 241 572 237 572 l 250 572 q 255 577 255 572 l 255 585 l 244 585 q 236 577 240 585 m 320 564 l 317 558 l 320 558 q 328 561 326 561 l 328 564 l 320 564 m 537 536 q 534 528 537 534 l 537 515 l 548 515 l 551 534 l 545 536 l 537 536 m 635 528 l 635 517 q 640 512 635 512 l 648 512 q 654 517 654 512 l 654 523 q 643 531 654 526 q 635 528 637 528 m 157 520 l 157 515 q 165 509 157 509 q 174 512 171 512 l 174 520 q 165 528 174 524 q 157 520 161 528 m 548 444 l 548 441 q 556 433 548 437 q 564 436 562 436 l 564 450 l 553 450 q 548 444 548 449 m 483 420 l 480 406 l 480 404 l 486 404 q 491 409 491 404 l 491 420 l 483 420 m 586 382 l 583 363 l 594 355 l 600 363 q 589 382 596 382 l 586 382 m 494 355 q 502 341 496 341 q 507 347 507 341 l 507 352 l 502 371 q 494 355 494 368 m 540 314 l 540 311 q 548 303 540 307 l 551 303 q 559 319 556 303 l 553 322 l 548 322 q 540 314 544 322 m 475 295 l 475 292 q 486 273 475 281 q 499 284 498 279 q 491 303 499 291 q 475 295 479 295 m 581 271 q 589 262 581 267 l 594 262 l 597 276 l 597 279 q 589 287 597 283 q 581 271 581 284 m 448 268 q 442 252 442 259 l 442 241 l 456 241 l 458 254 q 448 268 453 267 m 513 243 l 513 233 q 521 224 513 229 q 529 238 525 224 q 521 252 526 252 q 513 243 517 252 m 396 235 q 391 224 396 231 l 391 219 q 407 211 393 211 l 407 227 q 399 235 407 231 l 396 235 m 553 222 l 553 216 q 562 208 553 212 q 572 227 570 208 l 567 230 q 553 222 553 227 m 456 216 l 456 211 q 464 203 456 209 q 477 214 476 208 q 467 224 477 218 q 456 216 456 220 m 515 195 l 513 189 l 513 186 l 515 173 l 524 173 q 532 181 526 173 q 515 195 530 195 m 426 192 q 418 186 426 186 q 426 170 420 170 l 439 170 l 439 184 q 426 192 439 190 m 475 186 l 475 170 q 480 165 475 165 l 483 165 q 491 176 487 165 q 480 192 486 192 q 475 186 475 191 m 553 173 l 553 159 l 556 159 q 567 178 567 164 l 562 181 q 553 173 557 181 m 391 168 l 391 162 q 396 157 391 157 l 410 157 q 412 162 410 162 q 404 173 408 173 l 396 173 q 391 168 391 172 m 510 151 q 526 140 513 140 l 529 140 l 532 154 q 526 159 532 159 l 518 159 q 510 151 514 159 m 456 138 q 467 132 467 136 q 480 143 479 138 l 480 154 l 477 154 q 456 138 456 154 m 418 132 l 418 130 q 426 121 418 125 l 434 121 l 437 135 q 426 149 431 147 q 418 132 418 146 m 388 127 q 396 116 392 116 l 410 119 l 410 130 q 401 138 410 134 q 388 127 397 138 m 545 124 l 548 124 q 556 127 553 127 l 556 132 l 553 132 q 545 124 549 132 m 521 124 l 521 111 q 532 119 532 115 q 526 124 532 124 l 521 124 m 472 116 l 472 100 q 483 92 472 96 q 488 102 484 102 q 477 121 484 121 q 472 116 472 121 m 448 119 q 439 100 439 111 l 426 100 q 401 78 406 78 l 388 81 l 382 73 l 382 67 q 401 48 401 54 q 418 62 418 54 l 418 70 q 442 97 442 87 l 456 94 l 461 102 l 461 116 q 448 119 452 116 m 377 111 l 372 75 l 377 75 q 393 92 377 79 q 382 111 390 111 l 377 111 m 496 102 l 496 100 q 510 105 505 105 l 510 111 l 505 111 q 496 102 500 111 m 437 75 l 434 70 l 434 67 q 445 73 441 73 l 445 75 l 437 75 m 369 56 l 369 51 l 372 51 l 372 56 l 369 56 m 385 45 l 385 43 l 391 43 l 391 45 l 385 45 z "},"5":{"ha":1080,"x_min":0,"x_max":1080,"o":"m 1047 1581 q 1080 1537 1080 1560 q 993 1353 1043 1436 q 987 1337 987 1344 l 998 1323 l 998 1318 q 955 1301 998 1310 q 868 1307 920 1307 q 789 1280 848 1307 q 635 1242 730 1263 q 632 1244 632 1242 q 586 1239 610 1239 l 572 1239 q 540 1149 561 1228 l 521 1109 l 521 1103 l 735 1174 q 803 1187 798 1187 q 808 1182 804 1182 q 814 1187 814 1182 l 814 1193 l 811 1198 q 819 1201 817 1201 q 909 1109 865 1201 q 990 998 954 1034 q 1001 979 990 989 l 998 979 q 1009 962 1004 962 q 914 669 963 826 q 901 629 914 659 q 909 591 901 602 l 909 564 q 911 485 909 533 q 901 447 905 447 q 895 452 895 447 l 895 469 l 890 469 q 798 298 798 304 l 798 295 q 803 279 803 286 q 743 135 803 228 l 730 127 l 724 127 q 708 146 720 127 q 616 105 661 117 q 540 40 616 66 q 334 -12 466 10 q 168 -120 312 -12 q 54 -218 62 -218 l 43 -229 l 38 -229 q 11 -134 28 -229 q 8 -79 8 -103 q 0 -68 1 -79 q 84 162 0 -43 q 160 357 151 313 q 174 393 163 393 l 176 393 l 176 371 q 193 317 176 336 l 193 268 q 190 265 193 265 q 193 262 190 262 l 190 235 l 190 149 q 195 116 190 135 l 198 116 q 241 159 241 152 q 331 246 311 233 q 423 319 393 319 q 429 314 429 319 l 412 292 l 415 292 q 545 409 488 352 q 581 547 572 488 q 602 623 585 547 l 602 631 l 597 631 q 578 612 591 612 l 575 618 q 613 743 575 682 q 675 878 675 873 l 673 878 q 586 843 661 860 q 529 835 557 835 l 521 835 q 437 848 505 835 q 212 753 349 821 q 119 696 192 739 l 106 702 q 136 764 125 727 q 176 884 160 792 l 179 897 q 176 919 176 908 q 206 984 193 981 l 201 1068 q 203 1071 203 1068 l 195 1076 q 165 1017 195 1070 l 160 1017 q 258 1394 206 1212 q 271 1442 267 1442 q 290 1453 278 1442 l 293 1453 l 301 1448 q 486 1470 399 1470 l 597 1470 q 727 1505 661 1470 q 852 1540 822 1540 q 876 1527 856 1540 q 879 1529 879 1527 q 887 1527 882 1529 q 1012 1559 1012 1542 l 1047 1581 m 681 724 l 681 715 q 686 710 682 710 l 697 710 l 700 721 l 694 732 q 681 724 681 728 m 749 580 l 749 577 q 754 572 749 572 l 757 572 q 762 577 762 572 l 762 583 q 757 588 762 588 q 749 580 753 588 m 868 574 l 868 561 l 876 555 l 876 558 q 871 574 871 564 l 868 574 m 689 504 l 694 482 q 703 490 699 482 l 703 496 q 697 507 697 503 l 694 507 l 689 504 m 784 463 l 792 458 l 795 458 q 803 466 799 458 l 803 469 q 795 474 803 474 q 784 463 786 471 m 670 406 q 673 398 673 401 l 681 398 q 686 404 686 398 l 686 409 q 681 414 686 414 l 678 414 q 670 406 674 414 m 600 387 l 600 376 q 605 371 600 371 q 613 379 609 371 l 610 393 l 605 393 q 600 387 600 392 m 711 357 l 711 355 q 716 349 711 349 l 722 349 l 732 360 q 730 368 730 366 q 711 357 711 362 m 570 325 l 564 317 l 564 314 q 581 306 567 306 l 583 319 q 570 325 574 325 m 505 306 q 510 300 505 300 l 515 309 l 515 314 l 513 314 q 505 306 509 314 m 689 284 l 689 276 l 703 276 q 711 295 708 276 l 705 298 q 689 284 694 294 m 600 273 l 600 271 q 605 265 600 265 l 613 265 l 613 271 l 610 290 l 608 290 q 600 273 600 287 m 456 260 l 456 257 q 464 249 456 253 l 467 249 q 475 265 472 249 l 469 268 l 464 268 q 456 260 460 268 m 556 265 l 556 254 q 564 246 556 250 q 572 257 572 246 q 570 265 570 262 l 556 265 m 391 241 l 391 238 q 401 219 391 227 q 415 230 414 224 q 407 249 415 237 q 391 241 395 241 m 496 216 q 505 208 496 212 l 510 208 l 513 222 l 513 224 q 505 233 513 229 q 496 216 496 230 m 708 219 l 708 211 l 719 208 l 724 216 l 724 224 q 719 230 724 230 q 708 219 715 230 m 600 227 l 597 222 l 597 214 q 602 208 597 208 l 613 208 l 613 224 l 600 227 m 632 205 l 632 203 q 637 197 633 197 l 651 197 l 654 211 l 654 216 q 648 219 648 216 q 632 205 637 216 m 363 214 q 358 197 358 205 l 358 186 l 372 186 l 374 200 q 363 214 369 212 m 567 195 l 567 184 l 581 181 l 583 186 l 583 200 l 572 200 q 567 195 567 199 m 429 189 l 429 178 q 437 170 429 174 q 445 184 441 170 q 437 197 441 197 q 429 189 433 197 m 136 178 l 136 173 l 138 173 l 138 178 l 136 178 m 320 176 q 309 159 320 170 l 323 157 l 323 176 l 320 176 m 469 168 l 469 162 q 477 154 469 158 q 488 173 486 154 l 483 176 q 469 168 469 172 m 372 162 l 372 157 q 380 149 372 155 q 393 159 392 154 q 382 170 393 163 q 372 162 372 166 m 629 159 l 629 154 l 632 154 q 643 159 639 159 l 643 162 l 637 162 q 629 159 632 159 m 526 159 l 521 140 l 529 135 l 532 135 q 537 140 537 135 l 537 159 l 526 159 m 564 143 l 564 138 q 570 132 565 132 l 583 132 l 583 146 q 575 151 583 151 q 564 143 564 147 m 144 130 q 152 119 148 119 q 157 124 157 119 l 157 146 l 152 146 q 144 130 144 143 m 431 140 l 429 135 l 429 132 l 431 119 l 439 119 q 448 127 441 119 q 431 140 446 140 m 342 138 q 334 132 342 132 q 342 116 336 116 l 355 116 l 355 130 q 342 138 355 136 m 391 132 l 391 116 q 396 111 391 111 l 399 111 q 407 121 403 111 q 396 138 401 138 q 391 132 391 137 m 114 113 l 117 113 q 127 121 127 117 l 127 135 l 122 135 q 114 113 116 135 m 469 119 l 469 108 l 475 100 q 486 102 479 102 l 486 119 q 477 127 486 123 q 469 119 473 127 m 285 124 l 279 116 l 279 102 q 288 94 279 98 l 290 94 q 296 100 296 94 q 285 124 296 121 m 307 113 l 307 108 q 312 102 307 102 l 326 102 q 328 108 326 108 q 320 119 324 119 l 312 119 q 307 113 307 118 m 553 94 q 570 102 564 102 l 570 108 q 553 94 553 108 m 106 105 l 106 100 l 109 100 l 109 105 l 106 105 m 426 97 q 442 86 429 86 l 445 86 l 448 100 q 442 105 448 105 l 434 105 q 426 97 430 105 m 130 102 l 127 97 l 127 92 l 130 73 q 122 64 126 73 l 122 59 q 127 54 123 54 l 130 54 l 144 56 l 144 67 l 138 75 q 149 86 142 75 l 149 89 q 130 102 148 96 m 372 83 q 382 78 382 81 q 396 89 395 83 l 396 100 l 393 100 q 372 83 372 100 m 334 78 l 334 75 q 342 67 334 71 l 350 67 l 353 81 q 342 94 347 93 q 334 78 334 92 m 532 94 l 526 83 l 532 83 q 537 89 537 83 q 532 94 537 94 m 269 78 l 269 75 l 277 64 q 290 81 290 66 l 282 86 l 277 86 q 269 78 273 86 m 187 83 l 187 81 l 193 81 l 193 83 l 187 83 m 209 73 q 225 62 212 62 l 228 67 l 228 81 q 222 83 222 81 q 209 73 210 78 m 304 73 q 312 62 308 62 l 326 64 l 326 75 q 317 83 326 79 q 304 73 313 83 m 491 81 l 486 73 l 486 64 l 505 70 l 505 73 q 491 81 505 79 m 241 78 l 241 56 q 247 51 242 51 l 250 51 q 258 62 258 51 q 250 78 255 78 l 241 78 m 461 70 l 461 62 l 475 59 l 480 67 q 477 78 477 72 l 469 78 q 461 70 465 78 m 92 73 q 87 54 92 64 l 92 51 q 100 59 96 51 q 95 73 95 68 l 92 73 m 437 70 q 431 54 437 54 l 418 56 l 412 48 l 412 43 q 456 54 446 54 q 442 70 446 70 l 437 70 m 163 59 l 163 43 l 176 40 q 182 51 178 51 q 171 67 176 67 q 163 59 167 67 m 388 62 l 388 45 q 393 40 389 40 l 396 40 q 404 48 398 40 q 393 67 399 67 q 388 62 388 66 m 363 64 q 355 45 355 56 l 342 45 q 323 29 330 29 l 323 26 l 331 26 q 358 43 355 26 l 372 40 l 377 48 l 377 62 q 363 64 368 62 m 206 59 l 203 54 l 203 37 q 209 32 204 32 l 212 32 q 220 40 216 32 q 206 59 214 59 m 293 56 q 274 32 293 36 q 271 29 274 29 l 274 24 l 274 21 l 266 10 l 266 7 l 271 7 l 309 37 q 298 56 306 56 l 293 56 m 244 32 q 236 35 239 35 q 212 18 217 18 q 209 26 209 24 l 198 26 l 190 21 q 182 29 190 25 l 176 29 l 174 16 q 182 5 178 5 l 187 5 q 193 13 187 13 l 195 13 l 195 7 l 203 7 l 209 10 q 225 -6 216 -6 q 247 24 225 9 q 255 18 248 24 l 260 18 q 269 29 269 18 q 260 40 264 40 l 244 32 m 111 29 l 111 7 l 119 7 q 127 18 123 7 q 119 35 119 31 l 117 35 q 111 29 111 34 m 138 29 l 138 7 q 152 2 143 7 l 157 10 l 157 13 q 146 32 157 28 q 138 29 141 29 m 35 29 l 35 24 l 38 24 l 38 29 l 35 29 m 304 26 l 304 24 l 312 24 l 312 26 l 304 26 m 79 7 l 79 -6 l 84 -14 q 95 -6 95 -10 l 95 -3 q 87 13 95 11 l 84 13 q 79 7 79 12 m 27 10 l 27 5 l 30 5 l 30 10 l 27 10 m 130 -1 q 111 -28 123 -24 l 111 -36 l 117 -55 l 117 -74 q 111 -79 117 -79 q 109 -77 111 -77 q 103 -82 109 -82 l 87 -79 q 79 -82 81 -82 l 79 -96 q 73 -101 79 -101 l 65 -101 l 65 -96 q 73 -87 70 -96 q 65 -68 65 -71 l 60 -68 l 54 -71 q 49 -58 49 -62 l 46 -58 q 41 -63 41 -58 q 57 -134 43 -134 l 54 -147 l 54 -158 l 57 -158 q 81 -134 60 -158 l 76 -125 l 76 -117 q 81 -112 77 -112 l 92 -117 l 90 -123 l 90 -125 q 122 -98 95 -125 l 122 -96 l 119 -82 l 125 -79 q 133 -90 133 -79 q 149 -77 149 -81 l 149 -71 l 127 -55 q 136 -28 130 -28 q 138 -31 136 -31 l 141 -12 l 130 -1 m 184 -1 l 184 -22 q 203 -36 184 -26 q 217 -28 217 -30 q 195 -6 217 -18 l 195 -1 l 184 -1 m 236 -1 q 231 -9 233 -9 q 233 -17 233 -14 q 252 -6 247 -6 l 252 -3 q 236 -1 250 -3 m 62 -9 l 62 -25 q 71 -9 71 -22 l 62 -9 m 144 -36 l 144 -44 q 160 -60 152 -60 l 174 -52 l 179 -55 l 190 -44 q 176 -31 190 -31 q 174 -41 174 -35 l 168 -41 l 168 -39 q 171 -28 168 -33 q 160 -9 166 -9 q 149 -36 155 -9 l 144 -36 m 73 -41 l 68 -41 l 62 -39 q 57 -52 57 -47 q 62 -66 62 -61 l 71 -66 l 81 -58 l 84 -58 q 100 -77 84 -77 l 106 -68 l 106 -66 q 98 -41 106 -61 q 103 -36 103 -41 l 103 -28 q 98 -17 98 -21 q 81 -36 92 -17 q 73 -41 75 -41 m 52 -36 l 52 -39 l 54 -39 q 60 -28 54 -35 l 57 -28 q 52 -36 52 -28 m 103 -101 l 106 -106 l 100 -109 l 98 -109 l 98 -106 q 103 -101 98 -101 z "},"6":{"ha":925,"x_min":0,"x_max":925,"o":"m 600 1521 q 613 1510 612 1516 q 610 1508 613 1508 l 613 1502 l 613 1497 l 597 1489 l 597 1483 q 659 1402 653 1402 q 830 1348 797 1373 q 865 1301 865 1308 l 863 1301 l 795 1326 q 925 1201 925 1223 q 830 1044 908 1201 q 779 908 784 929 q 762 854 766 857 q 757 848 762 848 q 730 884 730 862 l 730 913 q 741 960 741 954 l 738 965 l 741 970 q 727 1087 735 992 q 600 1171 669 1098 q 581 1190 600 1175 q 404 1052 533 1145 q 399 1041 399 1045 q 393 867 399 944 q 396 857 396 863 l 410 859 l 480 859 q 567 843 555 859 l 567 832 q 537 819 567 823 q 597 791 538 814 q 781 715 633 772 q 806 688 806 704 q 792 683 799 683 q 795 648 792 671 q 781 523 787 546 q 784 520 781 520 l 779 474 l 784 474 q 803 542 798 542 l 803 539 q 800 509 800 515 q 817 547 804 513 l 822 547 l 822 545 q 814 496 814 514 q 819 458 819 467 l 817 458 l 819 452 l 819 450 q 817 447 819 447 q 819 444 817 444 q 792 317 811 387 q 795 309 795 311 q 787 287 787 307 l 787 271 q 751 78 777 271 q 730 18 741 58 l 727 18 q 722 26 722 18 l 722 62 l 719 62 l 719 35 l 713 35 l 713 70 q 703 67 709 67 l 705 62 q 686 40 686 46 q 532 -33 568 -14 l 532 -36 l 551 -36 l 551 -41 l 529 -60 q 526 -58 529 -58 q 345 -123 505 -85 q 285 -134 297 -134 q 255 -120 255 -127 l 258 -115 q 155 -28 252 -115 l 60 40 q 38 18 60 31 q 27 10 38 12 q 11 16 11 12 q 27 146 11 59 l 24 151 q 33 178 24 155 q 27 184 27 178 q 43 298 27 191 q 35 363 38 357 q 38 366 35 366 l 33 412 q 35 420 35 417 l 33 436 l 27 436 q 16 422 27 428 l 14 422 l 14 425 q 16 447 14 428 l 5 428 l 3 433 q 57 688 22 547 q 27 881 35 806 l 27 911 l 24 927 l 27 932 l 24 938 q 27 949 27 943 l 27 951 l 14 949 q 11 965 11 953 l 5 965 l 5 957 l 0 957 l 0 968 q 30 1038 0 988 q 46 1049 30 1046 l 46 1052 q 41 1055 41 1052 q 84 1131 50 1064 l 114 1168 q 138 1196 126 1168 l 133 1196 l 133 1198 q 201 1299 176 1270 l 201 1296 q 198 1285 198 1291 q 206 1299 204 1285 l 212 1299 l 212 1296 q 203 1280 209 1280 l 206 1274 l 179 1217 l 176 1217 l 176 1206 q 168 1187 176 1198 l 168 1185 l 171 1185 q 358 1391 271 1285 l 355 1407 q 591 1518 479 1480 q 600 1521 594 1518 m 130 1196 l 133 1196 l 133 1190 l 130 1190 l 130 1196 m 209 729 l 209 724 q 225 715 212 715 q 231 721 226 721 q 217 732 228 732 q 209 729 212 729 m 624 732 l 624 726 q 629 721 625 721 l 640 721 l 640 726 q 624 732 639 726 m 363 705 q 361 696 363 696 q 369 686 365 686 l 372 686 q 380 702 380 688 l 374 705 l 363 705 m 212 623 l 206 615 l 206 612 q 212 607 207 607 l 222 607 l 222 621 l 212 623 m 502 599 l 502 593 l 513 593 q 518 599 518 593 l 518 610 q 513 615 518 615 l 510 615 q 502 599 502 612 m 692 591 l 692 588 q 697 583 692 583 l 700 583 q 705 588 705 583 l 705 593 q 700 599 705 599 q 692 591 696 599 m 323 574 l 320 561 q 334 555 329 555 l 339 564 l 339 572 l 326 574 l 323 574 m 95 534 q 100 528 96 528 l 109 528 q 114 534 114 528 l 114 542 l 103 542 q 95 534 99 542 m 174 512 l 174 498 q 182 496 182 498 q 190 498 187 498 l 190 507 l 187 520 l 182 520 q 174 512 178 520 m 632 515 l 637 493 q 646 501 642 493 l 646 507 q 640 517 640 513 l 637 517 l 632 515 m 391 507 q 388 498 388 501 q 391 490 388 496 q 388 482 391 488 q 391 471 388 476 q 369 243 380 243 l 369 195 q 548 306 453 251 l 572 447 l 572 455 l 570 455 l 548 409 l 543 409 l 543 425 q 507 488 543 446 q 475 498 507 498 l 464 498 l 448 496 q 391 507 426 501 m 727 474 l 735 469 l 738 469 q 746 477 742 469 l 746 479 q 738 485 746 485 q 727 474 729 482 m 146 460 q 141 450 146 456 l 141 444 q 149 441 149 444 q 157 444 155 444 l 157 455 q 146 460 153 455 m 266 441 l 263 428 l 263 425 l 269 425 l 282 428 l 282 436 q 277 441 282 441 l 266 441 m 613 417 q 616 409 616 412 l 624 409 q 629 414 629 409 l 629 420 q 624 425 629 425 l 621 425 q 613 417 617 425 m 751 406 l 751 395 q 757 390 752 390 q 762 395 762 390 l 762 406 q 757 412 762 412 q 751 406 751 411 m 106 390 l 103 376 q 119 363 103 363 l 122 363 l 122 366 q 109 390 122 379 l 106 390 m 171 374 l 171 371 l 184 368 l 190 376 l 190 379 q 184 385 190 385 l 182 385 q 171 374 178 385 m 336 379 l 331 371 l 331 368 q 339 360 331 364 l 345 360 q 350 366 350 360 l 350 376 l 336 379 m 654 368 l 654 366 q 659 360 654 360 l 665 360 l 675 371 q 673 379 673 376 q 654 368 654 373 m 222 357 l 222 347 q 231 338 222 342 q 236 347 236 338 q 228 363 233 363 q 222 357 222 362 m 130 314 l 127 300 q 138 290 127 296 l 144 298 q 136 314 144 312 l 130 314 m 271 309 l 269 298 q 282 281 274 283 l 288 290 l 288 292 q 279 309 288 307 l 271 309 m 632 295 l 632 287 l 646 287 q 654 306 651 287 l 648 309 q 632 295 637 305 m 716 300 q 735 290 719 290 l 738 295 l 738 300 q 730 309 738 304 q 716 300 726 309 m 220 281 q 231 262 220 267 l 236 271 l 236 279 q 228 284 236 284 q 220 281 222 281 m 176 271 l 176 257 l 182 249 q 193 252 186 252 l 193 257 q 182 276 193 272 q 176 271 176 275 m 114 252 q 122 241 118 241 l 125 241 q 133 252 133 241 q 125 262 129 262 l 122 262 q 114 252 118 262 m 76 254 q 71 233 76 250 q 79 227 79 230 q 87 230 84 230 l 87 238 q 76 254 87 252 m 244 238 l 244 235 q 252 227 244 231 l 260 227 q 266 233 266 227 l 266 246 l 252 246 q 244 238 248 246 m 651 230 l 651 222 l 662 219 l 667 227 l 667 235 q 662 241 667 241 q 651 230 658 241 m 543 238 l 540 233 l 540 224 q 545 219 541 219 l 556 219 l 556 235 l 543 238 m 575 216 l 575 214 q 581 208 576 208 l 594 208 l 597 222 l 597 227 q 591 230 591 227 q 575 216 581 227 m 307 224 q 301 208 301 216 l 301 197 l 315 197 l 317 211 q 307 224 312 223 m 130 216 l 130 192 l 144 192 q 146 200 144 195 q 136 216 141 216 l 130 216 m 697 203 l 697 195 q 708 192 703 195 q 716 197 708 197 l 716 200 q 711 214 716 214 q 697 203 699 208 m 510 205 l 510 195 l 524 192 l 526 197 l 526 211 l 515 211 q 510 205 510 210 m 65 195 l 68 178 l 73 178 q 81 186 77 178 l 76 205 l 73 205 q 65 195 69 205 m 195 186 l 195 173 q 203 165 195 169 l 206 165 q 212 170 212 165 l 212 181 q 206 192 206 188 l 201 192 q 195 186 195 191 m 250 192 l 247 178 q 266 168 252 168 l 266 184 q 258 192 266 188 l 250 192 m 618 184 l 618 178 q 627 170 618 174 l 635 170 l 637 181 l 627 189 l 624 189 q 618 184 618 189 m 165 186 q 163 178 165 184 q 174 168 165 168 q 184 181 184 170 q 168 186 176 186 l 165 186 m 315 173 l 315 168 q 323 159 315 165 q 334 168 334 163 l 334 173 q 326 181 334 177 q 315 173 315 177 m 415 168 l 420 165 q 429 168 426 168 l 429 178 q 415 168 416 173 m 572 170 l 572 159 q 581 151 572 157 q 591 162 591 154 q 581 173 589 173 q 572 170 575 170 m 469 170 l 464 151 l 472 146 l 475 146 q 480 151 480 146 l 480 170 l 469 170 m 114 154 l 114 143 q 125 138 118 143 q 136 149 129 138 l 136 157 q 125 162 132 157 l 122 162 q 114 154 118 162 m 146 159 l 144 154 q 152 135 146 135 l 155 135 q 160 140 160 135 l 160 146 q 146 159 160 159 m 507 154 l 507 149 q 513 143 508 143 l 526 143 l 526 157 q 518 162 526 162 q 507 154 507 158 m 648 146 q 656 135 652 135 q 665 138 662 138 l 665 143 l 662 162 l 659 162 q 648 146 648 157 m 697 162 l 689 151 q 697 140 693 140 l 703 140 q 708 146 708 140 l 708 159 l 697 162 m 87 140 q 95 130 91 130 q 106 140 99 130 q 98 157 106 155 l 95 157 q 87 140 87 154 m 613 157 q 597 138 597 139 l 597 135 q 602 130 597 130 l 608 130 q 618 154 618 133 l 613 157 m 543 154 l 540 140 l 540 135 q 548 127 540 131 q 553 132 553 127 l 553 149 q 548 154 553 154 l 543 154 m 374 151 l 372 146 l 372 143 l 374 130 l 382 130 l 391 138 q 374 151 389 151 m 285 149 q 277 143 285 143 q 285 127 279 127 l 298 127 l 298 140 q 285 149 298 146 m 334 143 l 334 127 q 339 121 334 121 l 342 121 q 350 132 346 121 q 339 149 345 149 q 334 143 334 148 m 60 124 q 71 132 71 128 l 71 146 l 68 146 q 60 124 62 146 m 412 130 l 412 119 l 418 111 q 429 113 422 113 l 429 130 q 420 138 429 134 q 412 130 416 138 m 228 135 l 222 127 l 222 113 q 231 105 222 109 l 233 105 q 239 111 239 105 q 228 135 239 132 m 250 124 l 250 119 q 255 113 250 113 l 269 113 q 271 119 269 119 q 263 130 267 130 l 255 130 q 250 124 250 129 m 165 119 l 165 116 q 182 108 168 108 q 190 124 190 108 l 176 127 q 165 119 165 123 m 100 113 l 100 111 q 106 105 101 105 l 119 105 l 119 108 q 111 124 119 122 q 100 113 107 124 m 673 105 l 678 102 l 684 102 q 692 113 688 102 q 689 121 689 119 l 681 121 q 673 105 673 119 m 496 102 q 502 97 497 97 q 513 100 507 100 l 513 119 q 496 102 496 119 m 125 111 l 125 94 l 136 94 q 138 105 138 99 l 138 108 q 130 116 138 112 q 125 111 125 115 m 369 108 q 385 97 372 97 l 388 97 l 391 111 q 385 116 391 116 l 377 116 q 369 108 373 116 m 562 116 q 556 105 562 112 l 556 100 q 570 92 556 95 l 575 111 l 567 116 l 562 116 m 705 105 l 705 102 l 716 102 l 719 116 q 705 105 707 111 m 73 113 l 71 108 l 71 102 l 73 83 q 65 75 69 83 l 65 73 l 87 73 l 87 78 l 81 86 q 92 97 85 86 l 92 100 q 73 113 91 106 m 315 94 q 326 89 326 92 q 339 100 338 94 l 339 111 l 336 111 q 315 94 315 111 m 277 89 l 277 86 q 285 78 277 82 l 293 78 l 296 92 q 285 105 290 104 q 277 89 277 102 m 475 105 q 469 89 469 96 l 469 78 l 480 78 q 486 94 486 87 l 475 105 m 632 105 q 624 92 632 100 l 624 86 q 632 81 624 81 q 646 86 641 86 q 635 105 642 105 l 632 105 m 212 89 l 212 86 l 220 75 q 233 92 233 77 l 225 97 l 220 97 q 212 89 216 97 m 589 97 q 578 83 578 85 q 586 67 581 67 l 594 67 l 597 86 l 597 89 q 589 97 597 93 m 152 83 q 168 73 155 73 l 171 78 l 171 92 q 165 94 165 92 q 152 83 153 89 m 247 83 q 255 73 251 73 l 269 75 l 269 86 q 260 94 269 90 q 247 83 256 94 m 434 92 l 429 83 l 429 78 q 439 70 429 74 q 448 73 445 73 l 448 83 q 434 92 448 90 m 184 89 l 184 67 q 190 62 185 62 l 193 62 q 201 73 201 62 q 193 89 198 89 l 184 89 m 404 81 l 404 73 l 418 70 l 423 78 q 420 89 420 83 l 412 89 q 404 81 408 89 m 380 81 q 374 64 380 64 l 361 67 l 355 59 l 355 56 q 369 43 355 53 l 380 59 l 385 56 l 399 59 l 399 64 q 385 81 389 81 l 380 81 m 106 70 l 106 64 q 119 54 106 61 l 122 54 q 125 62 122 62 q 114 78 119 78 q 106 70 110 78 m 331 73 l 331 56 q 342 48 331 52 q 347 59 342 59 q 336 78 342 78 q 331 73 331 77 m 556 78 l 551 70 l 551 62 q 559 54 551 58 q 567 56 564 56 l 567 75 l 556 78 m 307 75 q 298 56 298 67 l 285 56 q 260 35 265 35 l 247 37 l 241 29 l 241 24 q 266 -1 255 15 l 277 -1 q 279 7 277 2 q 277 26 277 16 q 301 54 301 43 l 315 51 l 320 59 l 320 73 q 307 75 311 73 m 521 59 l 524 48 l 532 48 q 537 54 537 48 l 537 70 q 532 75 537 75 l 529 75 q 521 59 521 73 m 149 70 l 146 64 l 146 48 q 152 43 147 43 l 155 43 q 163 51 159 43 q 149 70 157 70 m 475 70 l 469 62 l 469 54 q 486 48 469 48 q 488 59 488 53 q 475 70 486 70 m 236 67 q 217 43 236 47 q 214 40 217 40 l 217 35 l 217 32 l 203 7 l 195 7 l 182 10 q 209 -12 182 6 q 225 2 209 -7 l 231 10 l 222 26 q 252 48 240 35 q 241 67 249 67 l 236 67 m 618 56 l 621 56 q 635 62 628 62 l 635 64 l 629 64 q 618 56 618 60 m 404 43 q 410 35 410 43 l 418 35 q 426 45 422 35 l 418 56 q 404 43 410 56 m 583 48 l 583 40 q 602 51 602 47 l 594 56 l 591 56 q 583 48 587 56 m 437 54 l 437 35 q 423 21 437 31 q 445 -6 423 16 q 456 2 456 -2 l 456 5 q 442 24 456 16 l 442 26 l 453 37 q 437 54 453 54 m 502 54 q 480 37 502 49 l 480 35 l 483 29 q 472 13 472 26 l 472 5 q 477 -1 473 -1 l 486 -1 l 488 13 q 486 21 486 18 q 505 32 501 32 l 513 32 l 515 37 q 502 54 512 49 m 187 43 q 179 45 182 45 q 157 26 175 45 q 171 18 157 22 l 190 35 l 198 29 l 203 29 q 212 40 212 29 q 203 51 208 51 l 187 43 m 336 43 l 323 26 l 323 18 q 339 10 326 10 l 345 10 l 353 16 q 366 2 353 8 q 369 10 369 7 l 372 10 q 385 -1 385 1 l 399 10 l 407 -3 l 404 -9 q 418 -22 404 -12 q 407 -44 407 -34 l 412 -60 l 415 -60 q 477 -31 445 -60 q 486 -33 483 -33 q 499 -22 498 -28 q 494 -12 494 -16 l 488 -14 l 483 -12 q 475 -20 483 -16 q 461 -14 466 -14 q 453 -22 461 -18 q 437 -6 441 -6 q 426 -17 437 -10 q 423 -14 426 -14 l 426 -9 l 426 -6 q 412 26 412 3 l 399 26 q 393 18 399 18 l 385 24 q 377 16 377 24 l 372 16 q 350 32 372 31 q 336 43 350 40 m 521 16 l 521 13 l 524 13 q 559 26 545 26 l 559 35 q 553 40 559 40 l 551 40 q 524 29 541 33 l 521 16 m 141 37 q 155 29 141 31 q 152 37 152 35 l 141 37 m 293 26 l 293 21 l 298 2 q 293 -3 293 1 l 293 -9 l 301 -20 l 307 -17 l 309 -17 l 309 -22 q 320 -47 309 -43 l 323 -47 q 326 -31 323 -45 q 315 -3 315 -15 l 307 5 l 309 18 q 301 32 307 32 l 298 32 q 293 26 293 31 m 494 2 q 496 -6 496 -3 l 499 -6 q 513 7 499 7 q 507 13 513 13 q 494 2 495 7 m 323 -9 q 336 -22 326 -20 l 342 -12 q 336 7 336 -1 q 323 -9 326 7 m 231 -17 q 241 -33 237 -33 l 244 -33 q 258 -6 258 -27 l 258 2 l 252 -1 l 247 2 q 231 -17 231 -4 m 382 -17 q 391 -31 386 -31 l 393 -31 q 399 -25 399 -31 l 399 -12 q 391 -3 399 -7 q 382 -17 386 -3 m 252 -41 q 244 -39 247 -39 l 241 -44 q 290 -82 254 -57 q 293 -85 290 -85 q 296 -77 293 -82 q 279 -50 293 -66 l 296 -47 q 274 -12 296 -25 q 258 -41 264 -12 l 252 -41 m 361 -14 l 358 -28 q 366 -41 360 -41 l 369 -41 q 377 -33 373 -41 q 366 -14 374 -14 l 361 -14 m 336 -36 l 336 -44 q 339 -55 336 -50 q 328 -68 334 -67 q 309 -55 328 -65 l 309 -52 l 298 -52 q 296 -63 298 -63 q 315 -82 296 -72 q 304 -90 304 -86 l 304 -93 q 331 -82 331 -88 l 336 -85 l 342 -85 q 404 -66 345 -79 q 391 -41 395 -41 l 388 -41 q 377 -52 385 -41 l 380 -58 q 366 -74 376 -68 l 361 -74 l 361 -71 q 366 -66 361 -66 q 342 -31 361 -40 q 336 -36 336 -31 m 434 -36 l 442 -36 q 448 -41 448 -37 l 448 -44 q 442 -50 448 -50 l 437 -50 l 434 -36 z "},"7":{"ha":1063,"x_min":0,"x_max":1063,"o":"m 1058 1481 l 1063 1473 l 1063 1468 q 1004 1432 1059 1457 l 922 1253 l 808 1047 q 713 817 745 939 q 670 689 675 695 q 656 654 666 689 q 678 635 678 652 q 600 453 629 513 q 505 255 505 291 l 534 307 q 543 304 540 304 l 543 296 q 505 206 543 290 q 461 109 471 142 l 461 106 q 477 100 477 106 q 442 54 450 83 q 423 0 431 0 q 415 -8 415 0 l 407 -8 q 396 8 407 0 l 404 57 q 106 -95 106 -80 q 57 -157 57 -138 l 52 -157 l 54 -141 q 52 -133 52 -136 q 71 -90 71 -99 q 62 -73 65 -90 q 136 11 96 -59 q 231 214 166 67 q 317 388 311 359 q 380 534 332 389 l 377 540 q 380 551 380 545 l 380 553 l 377 553 q 355 526 359 526 l 353 526 q 347 532 347 526 q 442 760 393 632 q 545 987 480 850 q 393 939 397 951 q 309 865 370 932 q 225 854 273 854 q 217 857 220 857 l 212 854 q 171 860 186 860 l 171 857 l 176 819 l 174 792 q 182 697 182 706 l 179 684 q 209 597 209 629 l 203 597 l 179 621 l 179 597 l 171 597 q 43 770 171 655 q 8 798 23 795 q 0 822 1 806 q 19 882 18 849 q 16 892 16 886 q 60 1131 16 905 l 57 1137 q 84 1237 79 1225 q 106 1242 94 1242 l 122 1242 l 138 1229 q 323 1272 294 1248 q 564 1375 470 1319 q 681 1421 677 1421 l 681 1419 q 768 1443 754 1443 l 770 1438 l 770 1435 q 760 1427 770 1427 l 760 1408 l 754 1400 l 757 1400 q 1058 1481 862 1440 m 507 629 l 507 627 q 513 621 508 621 l 515 621 q 521 627 521 621 l 521 632 q 515 637 521 637 q 507 629 511 637 m 448 553 l 453 532 q 461 540 457 532 l 461 545 q 456 556 456 552 l 453 556 l 448 553 m 543 513 l 551 507 l 553 507 q 562 515 557 507 l 562 518 q 553 524 562 524 q 543 513 545 521 m 429 456 q 431 448 431 450 l 439 448 q 445 453 445 448 l 445 458 q 439 464 445 464 l 437 464 q 429 456 433 464 m 469 407 l 469 404 q 475 399 470 399 l 480 399 l 491 410 q 488 418 488 415 q 469 407 469 412 m 448 334 l 448 326 l 461 326 q 469 345 467 326 l 464 347 q 448 334 453 344 m 358 323 l 358 320 q 363 315 359 315 l 372 315 l 372 320 l 369 339 l 366 339 q 358 323 358 336 m 328 307 l 328 301 l 331 301 l 331 307 l 328 307 m 358 277 l 355 271 l 355 263 q 361 258 356 258 l 372 258 l 372 274 l 358 277 m 467 271 l 467 260 l 469 260 l 469 271 l 467 271 m 391 255 l 391 252 q 396 247 391 247 l 410 247 l 412 260 l 412 266 q 407 269 407 266 q 391 255 396 265 m 326 244 l 326 233 l 339 231 l 342 236 l 342 250 l 331 250 q 326 244 326 249 m 434 222 l 434 217 q 442 209 434 213 l 450 209 l 453 220 l 442 228 l 439 228 q 434 222 434 227 m 388 209 l 388 198 q 396 190 388 196 q 407 201 407 193 q 396 212 404 212 q 388 209 391 209 m 285 209 l 279 190 l 288 184 l 290 184 q 296 190 296 184 l 296 209 l 285 209 m 323 193 l 323 187 q 328 182 323 182 l 342 182 l 342 195 q 334 201 342 201 q 323 193 323 197 m 429 195 q 412 176 412 178 l 412 174 q 418 168 413 168 l 423 168 q 434 193 434 172 l 429 195 m 358 193 l 355 179 l 355 174 q 363 165 355 170 q 369 171 369 165 l 369 187 q 363 193 369 193 l 358 193 m 312 141 q 317 136 313 136 q 328 138 322 138 l 328 157 q 312 141 312 157 m 377 155 q 372 144 377 151 l 372 138 q 385 130 372 134 l 391 149 l 382 155 l 377 155 m 290 144 q 285 127 285 135 l 285 117 l 296 117 q 301 133 301 125 l 290 144 m 404 136 q 393 122 393 123 q 401 106 396 106 l 410 106 l 412 125 l 412 127 q 404 136 412 132 m 250 130 l 244 122 l 244 117 q 255 109 244 113 q 263 111 260 111 l 263 122 q 250 130 263 128 m 233 119 l 231 109 q 239 117 235 109 l 239 119 l 233 119 m 372 117 l 366 109 l 366 100 q 374 92 366 96 q 382 95 380 95 l 382 114 l 372 117 m 336 98 l 339 87 l 347 87 q 353 92 353 87 l 353 109 q 347 114 353 114 l 345 114 q 336 98 336 111 m 290 109 l 285 100 l 285 92 q 301 87 285 87 q 304 98 304 92 q 290 109 301 109 m 220 81 q 225 73 225 81 l 233 73 q 241 84 237 73 l 233 95 q 220 81 226 95 m 401 90 l 412 90 l 412 95 l 407 95 q 401 90 401 94 m 252 92 l 252 73 q 239 60 252 70 q 255 35 252 40 q 271 41 264 41 l 271 43 q 258 62 271 54 l 258 65 l 269 76 q 252 92 269 92 m 317 92 q 296 76 317 87 l 296 73 l 298 68 q 288 52 288 65 l 290 52 q 317 71 293 52 l 320 71 l 326 68 l 331 76 q 317 92 328 87 m 214 65 q 201 38 201 47 l 214 49 l 222 35 l 220 30 q 222 22 222 24 l 241 27 l 241 33 q 228 65 228 42 l 214 65 m 198 22 q 201 11 201 17 l 214 14 l 214 27 q 206 35 214 31 q 198 22 201 35 m 187 16 q 179 0 187 10 l 179 -3 q 193 3 188 3 l 190 16 l 187 16 z "},"8":{"ha":890,"x_min":0,"x_max":890,"o":"m 654 1497 q 681 1424 670 1497 q 789 1242 692 1371 q 811 1199 811 1219 l 811 1180 q 781 1082 799 1154 l 724 944 q 719 933 721 944 l 754 876 l 757 882 l 757 906 q 762 911 758 911 q 817 846 762 899 q 852 776 817 839 q 884 705 884 720 q 890 694 886 705 l 887 681 l 887 667 q 890 656 887 661 q 865 496 878 496 q 852 448 854 475 q 844 434 844 448 l 838 434 l 838 456 l 836 456 q 833 448 836 453 l 827 450 l 825 450 q 773 377 810 416 q 779 355 779 367 q 746 160 779 238 q 697 65 719 65 q 681 57 694 57 q 656 84 681 84 q 648 90 656 87 q 382 8 604 68 q 315 0 335 0 l 312 0 q 195 43 292 0 l 193 43 q 160 19 193 24 q 73 190 138 80 q 19 334 19 294 l 35 345 q 52 323 52 339 l 54 323 l 54 328 l 52 345 l 57 347 q 62 342 58 342 l 62 345 q 43 423 62 352 l 41 423 q 0 401 24 407 l 0 404 q 11 477 4 418 q 179 757 148 679 q 176 762 179 762 q 79 830 92 793 l 65 827 l 65 830 q 81 906 65 846 l 73 911 q 46 830 57 854 q 38 833 41 833 l 38 849 q 146 1142 38 906 q 214 1267 196 1265 q 217 1270 214 1270 l 217 1264 q 206 1229 206 1234 l 209 1223 q 182 1145 182 1164 q 263 1264 206 1171 q 345 1413 269 1269 l 372 1430 l 372 1427 q 366 1394 372 1416 q 369 1392 369 1394 q 629 1473 567 1473 q 654 1497 637 1497 m 423 1153 l 393 1050 q 385 1042 385 1046 l 382 1042 q 377 1066 377 1042 l 374 1066 q 342 982 347 1029 l 429 1004 l 442 985 l 442 982 q 431 974 431 981 l 431 971 q 483 979 476 977 q 486 977 486 979 q 529 993 529 977 q 551 1194 539 1033 l 551 1204 q 434 1153 526 1177 l 423 1153 m 705 865 l 705 857 q 711 852 706 852 l 713 852 l 713 857 q 705 865 713 861 m 290 860 l 290 854 q 307 846 293 846 q 312 852 307 852 q 298 863 309 863 q 290 860 293 860 m 445 836 q 442 827 445 827 q 450 817 446 817 l 453 817 q 461 833 461 819 l 456 836 l 445 836 m 293 754 l 288 746 l 288 743 q 293 738 288 738 l 304 738 l 304 751 q 293 754 294 754 m 583 730 l 583 724 l 594 724 q 600 730 600 724 l 600 741 q 594 746 600 746 l 591 746 q 583 730 583 743 m 773 722 l 773 719 q 779 713 774 713 l 781 713 q 787 719 787 713 l 787 724 q 781 730 787 730 q 773 722 777 730 m 342 518 l 342 496 l 345 477 l 342 477 q 347 461 347 469 l 342 442 l 342 401 q 339 361 342 388 q 396 277 380 295 l 401 277 q 472 336 472 320 q 564 524 508 420 l 597 583 l 594 583 q 431 675 450 660 q 372 570 412 649 l 342 518 m 187 673 q 182 659 187 668 l 190 659 q 195 665 195 659 l 195 673 l 187 673 m 255 643 l 255 629 q 263 627 263 629 q 271 629 269 629 l 271 637 l 269 651 l 263 651 q 255 643 259 651 m 713 646 l 719 624 q 727 632 723 624 l 727 637 q 722 648 722 644 l 719 648 l 713 646 m 808 605 l 817 600 l 819 600 q 827 608 823 600 l 827 610 q 819 616 827 616 q 808 605 810 613 m 228 591 q 222 581 228 587 l 222 575 q 231 572 231 575 q 239 575 236 575 l 239 586 q 228 591 235 586 m 694 548 q 697 540 697 543 l 705 540 q 711 545 711 540 l 711 551 q 705 556 711 556 l 703 556 q 694 548 699 556 m 833 537 l 833 532 l 838 532 q 841 543 838 538 l 838 543 q 833 537 833 542 m 122 526 l 122 521 q 127 515 123 515 l 130 515 q 138 524 134 515 l 138 529 q 133 534 138 534 l 130 534 q 122 526 126 534 m 624 529 l 624 518 q 629 513 625 513 q 637 521 633 513 l 635 534 l 629 534 q 624 529 624 534 m 187 521 l 184 507 q 201 494 184 494 l 203 494 l 203 496 q 190 521 203 510 l 187 521 m 252 505 l 252 502 l 266 499 l 271 507 l 271 510 q 266 515 271 515 l 263 515 q 252 505 259 515 m 735 499 l 735 496 q 741 491 736 491 l 746 491 l 757 502 q 754 510 754 507 q 735 499 735 504 m 304 488 l 304 477 q 309 472 304 472 l 309 494 q 304 488 304 493 m 594 467 l 589 458 l 589 456 q 605 448 591 448 l 608 461 q 594 467 599 467 m 119 442 l 133 434 l 138 442 l 138 445 q 130 461 138 459 l 127 461 q 119 442 122 461 m 212 445 l 209 431 q 220 420 209 427 l 225 429 q 217 445 225 443 l 212 445 m 713 426 l 713 418 l 727 418 q 735 437 732 418 l 730 439 q 713 426 719 436 m 624 415 l 624 412 q 629 407 625 407 l 637 407 l 637 412 l 635 431 l 632 431 q 624 415 624 429 m 114 418 l 114 404 l 122 404 q 127 410 127 404 l 127 412 l 122 420 q 114 418 117 418 m 301 412 l 304 399 l 307 399 l 309 415 q 301 412 304 412 m 258 401 l 258 388 l 263 380 q 274 382 268 382 l 274 388 q 263 407 274 403 q 258 401 258 406 m 581 407 l 581 396 q 589 388 581 392 q 597 399 597 388 q 594 407 594 404 l 581 407 m 195 382 q 203 372 199 372 l 206 372 q 214 382 214 372 q 206 393 210 393 l 203 393 q 195 382 199 393 m 157 385 q 152 363 152 372 q 160 358 160 361 q 168 361 165 361 l 168 369 q 157 385 168 382 m 526 350 l 534 350 l 537 363 l 537 369 q 526 350 533 369 m 624 369 l 621 363 l 621 355 q 627 350 622 350 l 637 350 l 637 366 l 624 369 m 732 361 l 732 353 q 741 350 735 353 l 741 369 q 732 361 736 369 m 656 347 l 656 345 q 662 339 657 339 l 675 339 l 678 353 l 678 358 q 673 361 673 358 q 656 347 662 357 m 103 353 l 103 347 l 106 334 l 111 334 q 119 342 113 334 q 109 358 114 358 q 103 353 103 357 m 212 347 l 212 323 l 225 323 q 228 331 225 326 q 217 347 222 347 l 212 347 m 591 336 l 591 326 l 605 323 l 608 328 l 608 342 l 597 342 q 591 336 591 341 m 146 326 l 149 309 l 155 309 q 163 317 159 309 l 157 336 l 155 336 q 146 326 151 336 m 277 317 l 277 304 q 285 296 277 300 l 288 296 q 293 301 293 296 l 293 312 q 288 323 288 319 l 282 323 q 277 317 277 322 m 700 315 l 700 309 q 708 301 700 305 l 716 301 q 719 312 719 311 l 708 320 l 705 320 q 700 315 700 319 m 247 317 q 244 309 247 315 q 255 298 247 298 q 266 312 266 301 q 250 317 257 317 l 247 317 m 505 298 l 510 298 l 513 315 q 505 298 505 312 m 87 309 l 87 301 l 90 301 l 90 309 l 87 309 m 106 304 q 103 296 106 301 q 111 279 106 279 q 119 282 117 282 l 119 296 q 111 304 119 300 l 106 304 m 654 301 l 654 290 l 662 282 q 673 293 673 285 q 662 304 670 304 q 654 301 656 301 m 551 301 l 545 282 l 553 277 l 556 277 q 562 282 562 277 l 562 301 l 551 301 m 195 285 l 195 274 q 206 269 199 274 q 217 279 210 269 l 217 288 q 206 293 213 288 l 203 293 q 195 285 199 293 m 228 290 l 225 285 q 233 266 228 266 l 236 266 q 241 271 241 266 l 241 277 q 228 290 241 290 m 589 285 l 589 279 q 594 274 589 274 l 608 274 l 608 288 q 600 293 608 293 q 589 285 589 289 m 730 277 q 732 269 732 271 l 735 269 q 741 293 741 289 q 730 277 730 288 m 168 271 q 176 260 172 260 q 187 271 180 260 q 179 288 187 286 l 176 288 q 168 271 168 285 m 694 288 q 678 269 678 270 l 678 266 q 684 260 679 260 l 689 260 q 700 285 700 264 l 694 288 m 624 285 l 621 271 l 621 266 q 629 258 621 262 q 635 263 635 258 l 635 279 q 629 285 635 285 l 624 285 m 133 269 l 133 263 q 141 255 133 259 q 152 263 152 259 l 152 277 l 141 277 q 133 269 137 277 m 458 263 l 458 260 l 467 260 l 469 266 l 469 269 q 458 263 463 263 m 494 260 l 494 250 l 499 241 q 510 244 504 244 l 510 260 q 502 269 510 264 q 494 260 498 269 m 309 266 l 304 258 l 304 244 q 312 236 304 240 l 315 236 q 320 241 320 236 q 309 266 320 262 m 87 260 l 87 258 q 90 250 90 252 l 92 250 l 92 252 q 90 260 90 258 l 87 260 m 119 260 l 117 247 l 119 236 l 125 236 q 133 244 129 236 q 119 260 127 259 m 331 255 l 331 250 q 336 244 332 244 l 350 244 q 353 250 350 250 q 345 260 349 260 l 336 260 q 331 255 331 260 m 247 250 l 247 247 q 263 239 250 239 q 271 255 271 239 l 258 258 q 247 250 247 254 m 182 244 l 182 241 q 187 236 182 236 l 201 236 l 201 239 q 193 255 201 253 q 182 244 189 255 m 578 233 q 583 228 578 228 q 594 231 588 231 l 594 250 q 578 233 578 250 m 206 241 l 206 225 l 217 225 q 220 236 220 230 l 220 239 q 212 247 220 243 q 206 241 206 246 m 450 239 q 467 228 453 228 l 469 228 l 472 241 q 467 247 472 247 l 458 247 q 450 239 454 247 m 643 247 q 637 236 643 243 l 637 231 q 651 222 637 226 l 656 241 l 648 247 l 643 247 m 155 244 l 152 239 l 152 233 l 155 214 q 146 206 151 214 l 146 201 q 152 195 147 195 l 155 195 l 168 198 l 168 209 l 163 217 q 174 228 167 217 l 174 231 q 155 244 172 237 m 396 225 q 407 220 407 223 q 420 231 419 225 l 420 241 l 418 241 q 396 225 396 241 m 358 220 l 358 217 q 366 209 358 213 l 374 209 l 377 222 q 366 236 372 235 q 358 220 358 233 m 556 236 q 551 220 551 227 l 551 209 l 562 209 q 567 225 567 218 l 556 236 m 713 236 q 705 222 713 231 l 705 217 q 711 212 706 212 l 713 212 q 724 217 720 217 l 724 228 q 716 236 724 232 l 713 236 m 293 220 l 293 217 l 301 206 q 315 222 315 208 l 307 228 l 301 228 q 293 220 297 228 m 670 228 q 659 214 659 216 q 667 198 662 198 l 675 198 l 678 217 l 678 220 q 670 228 678 224 m 233 214 q 250 203 236 203 l 252 209 l 252 222 q 247 225 247 222 q 233 214 235 220 m 328 214 q 336 203 332 203 l 350 206 l 350 217 q 342 225 350 221 q 328 214 338 225 m 515 222 l 510 214 l 510 209 q 521 201 510 205 q 529 203 526 203 l 529 214 q 515 222 529 220 m 109 220 l 109 217 q 122 195 118 195 l 125 201 q 117 220 117 214 l 109 220 m 266 220 l 266 198 q 271 193 267 193 l 274 193 q 282 203 282 193 q 274 220 279 220 l 266 220 m 486 212 l 486 203 l 499 201 l 505 209 q 502 220 502 214 l 494 220 q 486 212 490 220 m 461 212 q 456 195 461 195 l 442 198 l 437 190 l 437 187 q 450 174 437 184 l 461 190 l 467 187 l 480 190 l 480 195 q 467 212 470 212 l 461 212 m 187 201 l 187 184 l 201 182 q 206 193 203 193 q 195 209 201 209 q 187 201 191 209 m 412 203 l 412 187 q 423 179 412 183 q 429 190 424 190 q 418 209 424 209 q 412 203 412 208 m 637 209 l 632 201 l 632 193 q 640 184 632 189 q 648 187 646 187 l 648 206 q 637 209 639 209 m 388 206 q 380 187 380 198 l 366 187 q 342 165 347 165 l 328 168 l 323 160 l 323 155 q 347 130 336 146 l 358 130 q 361 138 358 133 q 358 157 358 147 q 382 184 382 174 l 396 182 l 401 190 l 401 203 q 388 206 393 203 m 602 190 l 605 179 l 613 179 q 618 184 618 179 l 618 201 q 613 206 618 206 l 610 206 q 602 190 602 203 m 231 201 l 228 195 l 228 179 q 233 174 229 174 l 236 174 q 244 182 240 174 q 231 201 238 201 m 556 201 l 551 193 l 551 184 q 567 179 551 179 q 570 190 570 184 q 556 201 567 201 m 317 198 q 298 174 317 178 q 296 171 298 171 l 298 165 l 298 163 l 285 138 l 279 138 l 260 141 q 255 133 258 133 q 269 114 259 117 l 271 114 l 279 119 l 282 119 l 288 117 q 307 133 288 121 l 312 141 l 304 157 q 334 179 321 166 q 323 198 330 198 l 317 198 m 700 187 l 700 176 q 708 174 703 176 q 713 195 708 176 l 711 195 q 700 187 700 191 m 486 174 q 491 165 491 174 l 499 165 q 507 176 503 165 l 499 187 q 486 174 492 187 m 665 179 l 665 174 q 681 168 665 168 q 684 179 684 173 q 675 187 684 183 l 673 187 q 665 179 669 187 m 518 184 l 518 165 q 505 152 518 162 q 526 125 505 147 q 537 133 537 129 l 537 136 q 524 155 537 146 l 524 157 l 534 168 q 518 184 534 184 m 583 184 q 562 168 583 180 l 562 165 l 564 160 q 553 144 553 157 l 553 136 q 559 130 554 130 l 567 130 l 570 144 q 567 152 567 149 q 586 163 583 163 l 594 163 l 597 168 q 583 184 593 180 m 269 174 q 260 176 263 176 q 236 160 241 160 q 233 168 233 165 l 222 168 l 214 163 q 206 171 214 167 l 201 171 l 198 157 q 206 146 202 146 l 212 146 q 217 155 212 155 l 220 155 l 220 149 l 228 149 l 233 152 q 250 136 240 136 q 271 165 250 151 l 279 160 l 285 160 q 293 171 293 160 q 285 182 289 182 l 269 174 m 136 171 q 144 152 144 159 l 149 152 q 152 160 149 155 q 144 176 144 173 l 141 176 q 136 171 136 176 m 163 171 l 163 149 q 176 144 168 149 l 182 152 l 182 155 q 171 174 182 170 q 163 171 165 171 m 418 174 l 404 157 l 404 149 q 420 141 407 141 l 426 141 l 434 146 q 448 133 434 139 q 450 141 450 138 l 453 141 q 467 130 467 132 l 480 141 l 488 127 l 486 122 q 499 109 486 119 q 488 87 488 97 l 488 81 q 515 95 515 81 q 529 92 524 95 q 581 109 562 100 q 575 119 575 115 l 570 117 l 564 119 q 556 111 564 115 q 543 117 547 117 q 534 109 543 113 q 518 125 522 125 q 507 114 518 121 q 505 117 507 117 l 507 122 l 507 125 q 494 157 494 134 l 480 157 q 475 149 480 149 l 467 155 q 458 146 458 155 l 453 146 q 431 163 453 161 q 418 174 431 171 m 602 146 l 602 141 l 605 141 q 643 157 643 149 q 635 171 640 171 l 632 171 q 605 160 622 163 l 602 146 m 681 163 q 697 146 681 146 l 700 152 l 700 165 l 694 165 l 681 163 m 374 157 l 374 152 l 380 133 q 374 127 374 132 l 374 122 l 382 111 l 388 114 l 391 114 l 391 109 q 401 84 391 87 l 404 84 q 407 100 404 86 q 396 127 396 116 q 388 136 390 136 l 391 149 q 382 163 389 163 l 380 163 q 374 157 374 162 m 646 152 q 670 122 646 141 l 675 122 q 681 127 681 122 l 681 138 l 665 149 l 665 157 l 651 157 q 646 152 646 157 m 575 133 q 586 119 581 121 q 600 130 600 122 q 589 144 594 142 q 575 133 576 138 m 155 141 q 152 138 155 138 q 165 119 157 121 l 165 127 q 155 141 159 141 m 209 141 l 209 119 q 233 103 210 113 q 241 106 239 106 l 241 109 q 220 133 241 130 l 220 141 l 209 141 m 404 122 q 418 109 407 111 l 423 119 q 418 138 418 130 q 404 122 407 138 m 613 127 l 613 122 l 654 122 l 654 125 q 651 133 651 130 l 646 133 l 632 130 q 627 136 632 136 l 621 136 q 613 127 617 136 m 171 103 q 179 81 179 88 q 198 90 188 81 q 206 76 206 90 l 217 76 q 212 87 212 83 q 214 103 212 89 q 201 111 214 111 q 198 100 198 106 l 193 100 l 193 103 q 195 114 193 109 q 184 133 191 133 q 171 103 180 133 m 312 114 q 323 98 318 98 l 326 98 q 339 125 339 104 l 339 133 l 334 130 l 328 133 q 312 114 312 127 m 464 114 q 472 100 467 100 l 475 100 q 480 106 480 100 l 480 119 q 472 127 480 123 q 464 114 467 127 m 334 90 q 326 92 328 92 q 304 73 326 90 q 317 52 306 60 q 307 41 313 52 q 328 38 326 38 q 377 54 377 41 q 361 81 374 64 l 377 84 q 355 119 377 106 q 339 90 346 119 l 334 90 m 442 117 l 439 103 q 448 90 441 90 l 450 90 q 458 98 454 90 q 448 117 455 117 l 442 117 m 250 111 l 244 103 l 244 92 q 252 84 244 88 l 255 84 q 263 100 263 87 q 250 111 260 111 m 263 71 l 260 71 l 255 73 l 252 68 l 252 65 q 298 49 286 49 l 301 60 q 290 76 301 64 l 290 81 q 304 92 304 89 q 307 100 307 92 l 307 103 q 298 111 307 107 l 293 111 q 271 76 271 100 l 263 71 m 418 95 l 418 87 q 420 76 418 81 q 410 62 415 64 q 391 76 410 66 l 391 79 l 380 79 q 377 68 380 68 q 396 52 377 56 l 445 68 q 423 100 445 89 q 418 95 418 100 m 458 76 q 467 73 464 73 q 480 79 480 73 q 472 90 476 90 l 469 90 q 458 76 464 88 m 231 87 q 225 76 231 83 q 244 71 236 76 l 244 79 q 236 87 244 83 l 231 87 m 339 68 q 347 60 343 68 q 342 54 347 54 l 334 54 l 334 49 l 331 49 q 323 57 327 49 l 323 60 l 326 65 l 331 62 l 339 68 z "},"9":{"ha":974,"x_min":0,"x_max":974,"o":"m 391 1413 l 401 1413 q 448 1386 420 1386 q 738 1302 641 1326 q 762 1289 757 1289 l 762 1286 q 757 1280 762 1280 l 751 1280 q 749 1283 749 1280 q 735 1280 744 1280 q 806 1234 794 1234 q 830 1251 806 1238 q 844 1291 830 1291 l 846 1291 q 868 1180 863 1231 q 914 1031 885 1180 l 911 1025 q 939 928 939 937 l 936 928 q 955 895 954 901 l 949 892 q 928 898 938 892 q 917 846 917 882 q 958 708 953 711 q 974 681 974 708 q 898 532 967 631 q 781 366 898 515 l 654 176 q 591 81 637 160 l 589 81 l 583 84 q 581 81 583 81 l 583 76 l 583 73 q 578 68 583 68 q 575 71 578 71 q 496 -24 516 -18 l 494 -24 l 494 -22 q 513 5 513 4 q 507 11 513 11 q 502 5 507 5 l 499 5 l 505 14 l 505 16 l 404 -130 q 372 -187 386 -153 q 328 -222 334 -222 l 328 -220 l 331 -209 q 328 -201 331 -206 q 331 -176 331 -186 l 331 -163 l 326 -163 l 323 -174 l 317 -174 q 323 -157 317 -169 l 317 -146 q 320 -138 320 -141 l 312 -133 q 307 -138 312 -138 q 282 -100 286 -100 q 95 11 197 -29 l 60 43 q 62 52 62 49 l 68 52 q 79 49 74 52 q 87 52 84 52 q 317 16 247 41 q 320 14 317 14 q 418 355 388 264 q 442 393 435 393 q 448 388 448 393 l 445 388 q 453 377 449 377 q 445 353 445 357 l 450 350 l 448 336 l 448 323 q 467 363 452 323 l 507 483 q 543 578 543 562 q 301 534 395 534 q 157 461 161 461 q 98 434 125 437 q 62 456 74 434 l 65 467 q 24 537 39 537 q 16 572 16 566 q 22 583 18 583 q 16 597 16 592 q 22 602 22 597 q 0 700 16 602 q 68 971 21 842 q 73 990 73 971 l 57 977 l 54 977 l 49 979 q 46 977 49 977 q 38 990 38 985 q 41 1012 38 993 q 38 1015 38 1012 l 33 1012 q 27 1017 27 1012 q 30 1020 30 1017 q 24 1025 24 1020 q 52 1074 24 1030 q 130 1199 105 1175 q 201 1289 157 1249 l 203 1289 l 203 1280 q 201 1278 203 1278 l 203 1272 q 171 1202 190 1252 q 155 1172 163 1202 q 374 1402 360 1377 q 391 1413 380 1402 m 496 1028 l 491 1031 q 350 1012 365 1017 q 339 960 350 1002 q 366 830 355 899 q 353 779 363 794 l 345 779 q 339 795 345 795 l 339 792 q 350 757 344 762 q 532 827 508 827 l 534 827 q 543 817 543 827 q 540 808 540 811 l 543 808 q 635 838 635 830 l 665 892 q 629 1039 640 961 l 618 1039 l 496 1028 m 73 998 l 73 993 l 76 993 l 76 998 l 73 998 m 323 846 l 323 841 l 326 841 l 326 846 l 323 846 m 326 836 l 326 833 q 328 825 328 827 l 331 825 l 331 827 q 328 836 328 833 l 326 836 m 331 822 l 331 817 l 334 817 l 334 822 l 331 822 m 681 686 l 681 678 q 686 673 682 673 l 697 673 q 700 684 700 682 l 694 694 q 681 686 681 691 m 266 681 l 266 675 q 282 667 269 667 q 288 673 283 673 q 274 684 285 684 q 266 681 269 681 m 420 656 q 418 648 420 648 q 426 637 422 637 l 429 637 q 437 654 437 640 l 431 656 l 420 656 m 122 597 l 122 589 q 130 581 122 585 l 136 589 l 136 597 q 130 602 136 602 l 127 602 q 122 597 122 602 m 269 575 l 263 567 l 263 564 l 279 567 l 279 572 q 269 575 270 575 m 749 543 l 749 540 q 754 534 749 534 l 757 534 q 762 540 762 534 l 762 545 q 757 551 762 551 q 749 543 753 551 m 689 467 l 694 445 q 703 453 699 445 l 703 458 q 697 469 697 465 l 694 469 l 689 467 m 551 437 l 551 426 q 556 420 551 420 l 564 420 q 570 426 570 420 l 570 431 q 559 439 570 434 q 551 437 553 437 m 670 369 q 673 361 673 363 l 681 361 q 686 366 686 361 l 686 372 q 681 377 686 377 l 678 377 q 670 369 674 377 m 600 350 l 600 339 q 605 334 600 334 q 613 342 609 334 l 610 355 l 605 355 q 600 350 600 355 m 453 323 l 453 317 l 456 317 l 456 323 l 453 323 m 445 320 q 442 304 442 306 q 445 296 445 298 l 448 296 l 450 309 q 448 320 448 314 l 445 320 m 502 290 l 499 271 l 510 263 l 515 271 q 505 290 512 290 l 502 290 m 570 288 l 564 279 l 564 277 q 581 269 567 269 l 583 282 q 570 288 574 288 m 600 236 l 600 233 q 605 228 600 228 l 613 228 l 613 233 l 610 252 l 608 252 q 600 236 600 250 m 456 222 l 456 220 q 464 212 456 216 l 467 212 q 475 228 472 212 l 469 231 l 464 231 q 456 222 460 231 m 556 228 l 556 217 q 564 209 556 213 q 572 220 572 209 q 570 228 570 225 l 556 228 m 410 193 l 410 187 q 415 193 415 187 l 415 198 q 410 193 410 197 m 496 179 q 505 171 496 175 l 510 171 l 513 184 l 513 187 q 505 195 513 191 q 496 179 496 193 m 597 184 l 597 176 l 600 176 q 605 187 600 180 l 605 190 l 602 190 q 597 184 597 189 m 567 157 l 567 146 l 578 146 l 583 155 l 583 163 l 572 163 q 567 157 567 162 m 429 152 l 429 141 q 437 133 429 137 q 445 146 441 133 q 437 160 441 160 q 429 152 433 160 m 469 130 l 469 125 q 477 117 469 121 q 488 136 486 117 l 483 138 q 469 130 469 135 m 526 122 l 521 103 l 529 98 l 532 98 q 537 103 537 98 l 537 122 l 526 122 m 431 103 l 429 98 l 429 95 l 431 81 l 439 81 q 448 90 441 81 q 431 103 446 103 m 594 103 l 589 92 l 589 90 l 591 90 q 597 103 591 94 l 594 103 m 391 95 l 391 79 q 396 73 391 73 l 399 73 q 407 84 403 73 q 396 100 401 100 q 391 95 391 100 m 469 81 l 469 71 l 475 62 q 486 65 479 65 l 486 81 q 477 90 486 85 q 469 81 473 90 m 426 60 q 442 49 429 49 l 445 49 l 448 62 q 442 68 448 68 l 434 68 q 426 60 430 68 m 372 46 q 382 41 382 44 q 396 52 395 46 l 396 62 l 393 62 q 372 46 372 62 m 529 49 l 526 35 l 532 35 q 534 49 532 44 l 529 49 m 437 33 q 431 16 437 16 l 418 19 l 412 11 l 412 8 q 426 -5 412 5 l 437 11 l 442 8 l 445 8 q 453 22 445 13 l 442 33 l 437 33 m 388 24 l 388 8 q 399 0 388 4 q 404 11 399 11 q 393 30 399 30 q 388 24 388 29 m 515 22 l 515 19 q 524 22 521 22 l 524 30 q 515 22 519 30 m 366 24 q 361 5 361 7 l 366 3 l 369 3 q 377 11 373 3 l 377 24 l 366 24 m 228 -5 l 228 -8 q 255 -19 246 -13 l 260 -19 q 269 -11 264 -19 q 250 -5 250 -11 l 244 -8 l 236 -3 q 228 -5 231 -5 m 393 -5 l 380 -22 l 380 -30 q 396 -38 382 -38 l 401 -38 l 410 -33 l 415 -35 l 423 -22 l 423 -19 q 399 -8 412 -19 l 393 -5 m 491 -5 l 496 -5 l 496 -11 l 491 -11 l 491 -5 m 274 -14 q 266 -24 274 -24 q 288 -41 266 -35 l 288 -38 l 279 -22 q 285 -16 285 -22 q 274 -14 279 -16 m 350 -22 l 350 -27 l 355 -46 q 350 -52 350 -47 l 350 -57 l 358 -68 l 363 -65 l 366 -65 l 366 -71 q 374 -92 366 -90 l 382 -81 q 372 -52 372 -60 l 363 -43 l 366 -30 q 358 -16 364 -16 l 355 -16 q 350 -22 350 -17 m 298 -19 l 298 -24 q 323 -49 312 -33 l 334 -49 q 336 -41 334 -46 q 334 -22 334 -32 l 336 -22 l 336 -19 l 298 -19 m 380 -57 q 393 -71 382 -68 q 399 -60 393 -66 q 393 -41 393 -49 q 380 -57 382 -41 m 296 -49 q 312 -65 296 -53 l 315 -65 l 315 -46 l 309 -49 l 304 -46 q 296 -49 298 -49 m 320 -68 q 334 -100 320 -73 q 353 -95 347 -95 q 331 -60 353 -73 q 320 -68 320 -64 m 355 -100 q 353 -111 355 -111 q 355 -119 355 -117 l 358 -119 q 366 -100 366 -103 l 355 -100 m 317 -155 l 320 -155 l 320 -160 l 317 -160 l 317 -155 z "}," ":{"ha":345,"x_min":0,"x_max":0,"o":""},"!":{"ha":543,"x_min":0,"x_max":566,"o":"m 358 1408 q 366 1425 362 1416 q 398 1459 380 1459 q 406 1456 404 1456 q 509 1544 435 1466 l 512 1544 q 517 1536 512 1536 l 517 1534 q 515 1531 517 1531 l 517 1527 q 501 1495 508 1501 l 501 1493 q 553 1551 552 1535 l 564 1556 l 566 1551 l 566 1539 q 564 1529 566 1533 l 566 1524 l 509 1303 l 471 1147 q 474 1145 471 1145 q 458 1017 465 1053 q 460 1014 458 1014 q 441 888 451 888 l 444 882 l 441 878 l 444 873 q 420 764 428 838 l 414 764 l 414 785 l 417 798 q 385 601 406 798 q 366 401 371 575 q 368 399 366 399 q 357 300 363 309 q 360 292 360 294 l 387 300 l 414 300 l 414 297 q 357 265 414 294 q 276 205 276 221 q 159 171 245 183 q 146 176 151 176 q 75 98 85 130 q 62 93 68 98 l 62 98 q 140 392 62 157 q 157 455 154 426 q 154 463 154 460 l 157 463 q 154 469 154 467 q 157 477 154 472 q 154 481 157 481 l 157 511 l 157 545 q 165 552 157 549 l 168 552 q 186 535 168 546 q 214 652 203 633 q 211 659 211 656 q 216 681 216 675 l 216 684 l 214 684 q 192 635 199 635 l 186 635 l 186 656 q 219 768 186 669 q 233 822 219 810 q 246 888 240 837 q 216 814 241 886 q 176 722 189 747 q 157 686 173 722 l 151 686 q 146 693 151 693 q 298 1164 222 956 l 298 1169 l 295 1169 q 264 1153 280 1162 l 358 1408 m 287 861 q 284 853 287 853 q 292 844 288 844 l 295 844 q 303 859 303 846 l 298 861 l 287 861 m 252 744 l 252 727 l 254 727 q 262 734 258 727 l 262 742 l 252 744 m 319 671 q 317 664 319 669 l 319 652 l 330 652 l 333 669 l 328 671 l 319 671 m 330 589 l 330 586 q 338 579 330 583 l 341 579 l 344 591 l 344 593 l 336 593 q 330 589 330 593 m 260 569 l 254 562 l 254 559 q 262 552 254 556 l 268 552 q 273 557 273 552 l 273 567 l 260 569 m 276 509 q 284 496 278 496 q 290 501 290 496 l 290 506 l 284 523 q 276 509 276 521 m 195 506 l 192 496 q 205 481 197 484 l 211 489 l 211 492 q 203 506 211 504 l 195 506 m 322 472 l 322 469 q 330 463 322 466 l 336 463 l 336 479 l 330 479 q 322 472 326 479 m 257 455 l 257 452 q 268 435 257 442 q 281 446 280 440 q 273 463 281 452 q 257 455 261 455 m 230 431 q 224 416 224 422 l 224 406 l 238 406 l 241 418 q 230 431 235 429 m 295 409 l 295 399 q 303 392 295 395 q 311 404 307 392 q 303 416 308 416 q 295 409 299 416 m 184 397 l 181 380 l 189 380 l 189 397 l 184 397 m 238 385 l 238 380 q 246 372 238 378 q 260 382 258 377 q 249 392 260 386 q 238 385 238 388 m 298 365 l 295 360 l 295 358 l 298 346 l 306 346 q 314 353 308 346 q 298 365 313 365 m 208 363 q 200 358 208 358 q 208 343 202 343 l 222 343 l 222 355 q 208 363 222 361 m 257 358 l 257 343 q 262 338 258 338 l 265 338 q 273 348 269 338 q 262 363 268 363 q 257 358 257 362 m 173 340 l 173 336 q 178 331 174 331 l 192 331 q 195 336 192 336 q 186 346 191 346 l 178 346 q 173 340 173 345 m 292 326 q 309 317 295 317 l 311 317 l 314 329 q 309 334 314 334 l 300 334 q 292 326 296 334 m 238 314 q 249 309 249 312 q 262 319 261 314 l 262 329 l 260 329 q 238 314 238 329 m 200 309 l 200 307 q 208 300 200 303 l 216 300 l 219 311 q 208 323 214 323 q 200 309 200 321 m 170 304 q 178 294 174 294 l 192 297 l 192 307 q 184 314 192 311 q 170 304 180 314 m 154 309 l 154 304 l 157 304 l 157 309 l 154 309 m 303 302 q 298 288 303 288 l 284 290 l 279 282 l 279 280 q 287 273 279 277 q 319 290 314 290 q 309 302 313 302 l 303 302 m 254 294 l 254 280 q 265 273 254 277 q 271 282 266 282 q 260 300 266 300 q 254 294 254 299 m 230 297 q 222 280 222 290 l 208 280 q 184 260 189 260 l 170 263 l 165 256 l 165 251 q 189 229 178 243 l 200 229 q 203 236 200 231 q 200 253 200 244 q 224 277 224 269 l 238 275 l 243 282 l 243 294 q 230 297 235 294 m 159 290 q 143 268 159 273 q 127 217 127 222 q 154 239 154 235 l 146 253 q 176 273 163 261 q 165 290 172 290 l 159 290 m 260 268 l 246 253 l 246 243 q 271 265 248 243 q 260 268 264 265 m 216 253 l 216 248 l 222 231 q 216 227 216 231 l 216 222 l 219 222 q 235 231 235 227 l 230 234 l 233 246 q 224 258 231 258 l 222 258 q 216 253 216 258 m 154 214 q 157 207 157 210 l 165 207 q 181 222 181 207 l 181 231 l 176 229 l 170 231 q 154 214 154 226 m 186 212 l 189 212 l 203 214 q 197 219 203 219 q 186 212 186 216 m 127 205 l 149 205 q 140 212 149 208 l 135 212 q 127 205 131 212 m 355 168 l 355 166 q 346 135 352 163 q 345 79 349 110 q 300 -102 336 -6 l 292 -106 l 287 -106 q 276 -86 280 -106 l 273 -86 l 263 -106 q 265 -115 265 -110 l 264 -117 q 248 -131 264 -121 l 236 -122 q 206 -133 218 -122 l 193 -131 q 29 -211 140 -140 l 2 -222 l 0 -218 q 46 -128 26 -201 l 44 -124 q 47 -122 44 -122 q 44 -119 47 -119 q 52 -95 49 -100 q 56 -37 54 -58 l 61 9 q 55 25 54 18 l 56 32 q 38 39 39 32 l 39 43 q 90 68 52 57 q 257 148 214 138 l 259 144 l 255 132 q 355 168 326 168 m 292 108 l 291 106 q 298 99 291 102 l 303 99 l 307 110 l 307 115 q 292 108 292 113 m 224 83 l 223 75 q 230 68 222 71 q 239 79 234 68 q 233 90 237 90 q 224 83 229 90 m 261 66 l 260 61 q 267 54 260 58 q 279 70 275 54 l 275 73 q 261 66 261 69 m 168 61 l 167 57 l 174 50 q 188 59 186 54 q 178 68 188 62 q 168 61 168 64 m 222 43 l 219 39 l 219 37 l 220 25 l 228 25 q 237 32 230 25 q 222 43 237 43 m 136 41 q 128 37 136 37 q 135 23 129 23 l 148 23 l 149 35 q 136 41 149 39 m 182 37 l 181 23 q 186 19 182 19 l 189 19 q 197 28 193 19 q 189 41 193 41 q 182 37 183 41 m 256 25 l 256 16 l 260 9 q 271 12 265 12 l 272 25 q 265 32 273 28 q 256 25 261 32 m 101 21 l 100 16 q 105 12 100 12 l 118 12 q 121 16 119 16 q 114 25 118 25 l 106 25 q 101 21 101 25 m 213 7 q 228 -1 215 -1 l 231 -1 l 234 9 q 229 14 235 14 l 222 14 q 213 7 218 14 m 160 -3 q 170 -8 170 -5 q 184 1 182 -3 l 185 9 l 182 9 q 160 -3 161 9 m 123 -8 l 123 -10 q 130 -17 123 -14 l 138 -17 l 142 -6 q 133 5 138 4 q 123 -8 125 3 m 94 -12 q 102 -22 98 -22 l 115 -19 l 115 -10 q 109 -3 116 -7 q 94 -12 104 -3 m 274 -6 l 268 -12 l 268 -17 q 277 -24 267 -20 q 286 -22 283 -22 l 286 -12 q 274 -6 287 -7 m 245 -15 l 244 -22 l 256 -24 l 262 -17 q 261 -8 260 -13 l 253 -8 q 245 -15 249 -8 m 221 -15 q 214 -28 220 -28 l 202 -26 l 196 -33 l 196 -35 q 208 -46 195 -37 l 219 -33 l 224 -35 l 237 -33 l 238 -28 q 227 -15 230 -15 l 221 -15 m 174 -22 l 172 -35 q 182 -41 172 -38 q 189 -33 184 -33 q 180 -17 185 -17 q 174 -22 174 -18 m 151 -19 q 141 -35 142 -26 l 128 -35 q 103 -53 108 -53 l 90 -50 l 87 -55 l 86 -66 q 105 -81 96 -66 l 116 -81 q 119 -75 116 -79 q 118 -60 117 -68 q 144 -37 143 -45 l 157 -39 l 162 -33 l 163 -22 q 151 -19 155 -22 m 88 -26 l 86 -43 q 91 -48 86 -48 l 97 -41 q 88 -26 95 -26 m 241 -46 q 245 -53 246 -46 l 254 -53 q 262 -43 257 -53 l 255 -35 q 241 -46 248 -35 m 273 -37 l 271 -53 l 266 -60 l 276 -60 q 283 -39 283 -45 l 279 -37 l 273 -37 m 176 -46 l 162 -60 l 161 -66 q 176 -73 163 -73 l 181 -73 l 190 -68 q 201 -79 189 -75 q 205 -73 204 -75 l 208 -73 q 219 -81 220 -80 l 233 -73 q 238 -77 233 -77 q 245 -60 239 -68 l 235 -60 q 229 -66 234 -66 l 221 -62 q 213 -68 214 -62 l 208 -68 q 189 -55 209 -56 q 176 -46 189 -48 m 134 -60 l 133 -64 l 136 -79 q 131 -84 132 -80 l 130 -88 l 137 -97 l 142 -95 l 145 -95 l 144 -109 l 157 -106 l 158 -97 q 147 -77 151 -97 l 144 -77 l 149 -66 q 142 -55 148 -55 l 139 -55 q 134 -60 134 -56 m 159 -88 q 171 -100 161 -98 l 177 -91 q 174 -75 173 -81 q 159 -88 163 -75 m 85 -79 l 82 -109 q 97 -86 95 -103 l 98 -79 l 92 -81 q 85 -79 87 -79 m 215 -95 l 231 -95 l 231 -91 q 224 -84 232 -87 q 215 -95 220 -84 m 81 -115 l 77 -135 l 79 -135 l 130 -115 q 112 -91 132 -103 q 94 -115 103 -91 l 81 -115 m 195 -93 l 194 -97 q 202 -95 199 -95 l 203 -93 l 195 -93 z "},"\"":{"ha":794,"x_min":0,"x_max":786,"o":"m 366 1606 l 374 1606 q 385 1568 385 1606 l 385 1552 q 339 1261 358 1402 q 320 1196 326 1234 q 304 1172 308 1173 l 301 1172 q 309 1237 304 1224 q 307 1245 307 1242 l 298 1245 q 255 1147 298 1238 q 269 1134 255 1145 q 174 1015 269 1105 q 65 963 111 969 q 54 949 58 949 l 52 949 q 81 1025 60 979 q 87 1042 81 1030 l 84 1047 q 168 1234 157 1199 l 163 1234 q 62 1188 100 1194 l 41 1188 q 0 1161 22 1163 l 0 1164 q 14 1234 0 1173 q 5 1253 14 1241 q 24 1356 14 1328 q 22 1359 24 1359 q 38 1449 30 1419 l 33 1457 l 33 1459 q 84 1497 50 1497 q 182 1554 169 1554 l 187 1554 l 193 1552 l 190 1546 l 190 1538 q 195 1533 191 1533 q 269 1563 203 1533 q 366 1606 366 1592 m 767 1606 l 775 1606 q 786 1568 786 1606 l 786 1552 q 740 1261 759 1402 q 721 1196 727 1234 q 705 1172 709 1173 l 702 1172 q 710 1237 705 1224 q 707 1245 707 1242 l 699 1245 q 656 1147 699 1238 q 669 1134 656 1145 q 574 1015 669 1105 q 466 963 511 969 q 455 949 459 949 l 452 949 q 482 1025 460 979 q 488 1042 482 1030 l 485 1047 q 569 1234 558 1199 l 564 1234 q 463 1188 500 1194 l 441 1188 q 401 1161 422 1163 l 401 1164 q 414 1234 401 1173 q 406 1253 414 1241 q 425 1356 414 1328 q 422 1359 425 1359 q 439 1449 431 1419 l 433 1457 l 433 1459 q 485 1497 451 1497 q 583 1554 570 1554 l 588 1554 l 593 1552 l 591 1546 l 591 1538 q 596 1533 591 1533 q 669 1563 604 1533 q 767 1606 767 1592 z "},"#":{"ha":1095,"x_min":-1150,"x_max":1083,"o":"m 1065 962 l 1069 962 q 1083 952 1076 961 q 1010 750 1055 825 l 996 744 q 976 755 976 748 l 968 755 q 851 746 864 746 q 892 736 851 743 l 896 726 q 889 725 889 726 l 848 726 l 800 726 q 717 713 726 726 q 222 672 566 705 q 164 661 175 672 q 136 680 136 670 l 140 680 q 130 705 136 685 q 133 730 133 718 l 133 739 l 130 739 q 102 709 111 709 q 98 711 102 711 q 92 697 92 699 l 85 697 l 133 843 q 136 849 136 843 q 133 854 136 851 q 150 876 139 876 q 171 865 171 876 q 392 905 183 865 q 465 915 453 915 l 458 909 l 461 905 q 454 901 454 905 q 461 897 461 901 q 433 890 437 890 l 433 888 l 437 888 q 762 913 534 901 l 762 911 l 1031 946 q 1034 944 1034 946 l 1034 942 l 1048 942 q 1065 962 1048 945 m 628 416 q 625 410 628 414 l 628 401 l 642 401 l 645 414 l 638 416 l 628 416 m 752 410 l 752 403 q 759 399 753 399 l 770 399 q 777 403 777 399 l 777 407 q 762 412 777 408 q 752 410 755 410 m 642 351 l 642 349 q 652 342 642 345 q 663 345 659 345 l 663 354 l 648 354 q 642 351 642 354 m 814 349 l 814 340 q 821 336 815 336 q 831 342 827 336 l 828 352 l 821 352 q 814 349 814 352 m 690 306 l 690 304 l 697 304 l 697 306 l 690 306 m -1150 446 l -1150 442 l -1147 442 l -1147 446 l -1150 446 m 130 -113 l 138 -113 q 142 -119 142 -114 l 141 -121 q 135 -127 140 -127 l 130 -127 l 130 -113 m 75 -154 l 80 -154 l 79 -162 l 73 -162 l 75 -154 m 394 475 l 393 470 l 404 470 q 410 475 410 470 l 412 486 q 408 492 414 492 l 406 492 q 394 475 397 489 m 15 281 l 15 277 l 19 277 l 19 281 l 15 281 m 437 295 l 437 291 q 450 293 443 293 l 450 295 l 437 295 m 541 299 l 557 299 q 551 309 551 305 q 541 299 543 309 m 519 346 l 513 340 l 513 338 q 523 332 513 335 l 530 332 q 537 336 537 332 l 537 344 l 519 346 m 872 373 q 876 367 876 369 l 886 367 q 892 371 892 367 l 892 375 q 886 378 892 378 l 882 378 q 872 373 877 378 m 896 443 l 903 427 q 913 433 908 427 l 913 437 q 907 445 907 441 l 903 445 l 896 443 m 559 -124 l 581 -124 q 572 -117 581 -121 l 567 -117 q 559 -124 563 -117 m 618 -117 l 621 -117 l 635 -115 q 629 -110 635 -110 q 618 -117 618 -113 m 586 -115 q 589 -122 589 -119 l 597 -122 q 613 -107 613 -122 l 613 -98 l 608 -100 l 602 -98 q 586 -115 586 -103 m 648 -76 l 648 -81 l 654 -98 q 648 -102 648 -98 l 648 -107 l 651 -107 q 667 -98 667 -102 l 662 -95 l 665 -83 q 656 -71 663 -71 l 654 -71 q 648 -76 648 -71 m 692 -61 l 678 -76 l 678 -85 q 703 -64 680 -85 q 692 -61 696 -64 m 591 -39 q 575 -61 591 -56 q 559 -112 559 -107 q 586 -90 586 -94 l 578 -76 q 608 -56 595 -68 q 597 -39 604 -39 l 591 -39 m 662 -32 q 654 -49 654 -39 l 640 -49 q 616 -68 621 -68 l 602 -66 l 597 -73 l 597 -78 q 621 -100 610 -86 l 632 -100 q 635 -93 632 -98 q 632 -76 632 -85 q 656 -52 656 -60 l 670 -54 l 675 -47 l 675 -35 q 662 -32 667 -35 m 686 -35 l 686 -49 q 697 -56 686 -52 q 703 -47 698 -47 q 692 -29 698 -29 q 686 -35 686 -30 m 735 -27 q 730 -41 735 -41 l 716 -39 l 711 -47 l 711 -49 q 719 -56 711 -52 q 751 -39 746 -39 q 741 -27 745 -27 l 735 -27 m 586 -20 l 586 -24 l 589 -24 l 589 -20 l 586 -20 m 602 -24 q 610 -35 606 -35 l 624 -32 l 624 -22 q 616 -15 624 -18 q 602 -24 612 -15 m 632 -20 l 632 -22 q 640 -29 632 -26 l 648 -29 l 651 -18 q 640 -5 646 -6 q 632 -20 632 -7 m 670 -15 q 681 -20 681 -17 q 694 -10 693 -15 l 694 0 l 692 0 q 670 -15 670 0 m 724 -3 q 741 -12 727 -12 l 743 -12 l 746 0 q 741 5 746 5 l 732 5 q 724 -3 728 5 m 605 12 l 605 7 q 610 2 606 2 l 624 2 q 627 7 624 7 q 618 17 623 17 l 610 17 q 605 12 605 16 m 689 29 l 689 14 q 694 9 690 9 l 697 9 q 705 19 701 9 q 694 34 700 34 q 689 29 689 33 m 640 34 q 632 29 640 29 q 640 14 634 14 l 654 14 l 654 26 q 640 34 654 32 m 730 36 l 727 31 l 727 29 l 730 17 l 738 17 q 746 24 740 17 q 730 36 745 36 m 670 56 l 670 51 q 678 43 670 49 q 692 53 690 48 q 681 63 692 57 q 670 56 670 59 m 616 68 l 613 51 l 621 51 l 621 68 l 616 68 m 727 80 l 727 70 q 735 63 727 66 q 743 75 739 63 q 735 87 740 87 q 727 80 731 87 m 662 102 q 656 87 656 94 l 656 77 l 670 77 l 673 90 q 662 102 667 100 m 689 126 l 689 123 q 700 106 689 113 q 713 117 712 111 q 705 134 713 123 q 689 126 693 126 m 754 143 l 754 140 q 762 134 754 137 l 768 134 l 768 151 l 762 151 q 754 143 758 151 m 627 177 l 624 168 q 637 153 629 155 l 643 160 l 643 163 q 635 177 643 175 l 627 177 m 708 180 q 716 168 710 168 q 722 172 722 168 l 722 177 l 716 194 q 708 180 708 192 m 692 240 l 686 233 l 686 231 q 694 223 686 227 l 700 223 q 705 228 705 223 l 705 238 l 692 240 m 762 260 l 762 257 q 770 250 762 254 l 773 250 l 776 262 l 776 264 l 768 264 q 762 260 762 264 m 789 486 q 786 478 789 478 q 794 469 790 469 l 797 469 q 805 484 805 471 l 800 486 l 789 486 m 292 399 l 291 397 q 292 393 291 395 l 292 399 m 302 207 l 301 204 q 306 199 301 199 l 314 199 l 315 204 l 316 223 l 313 223 q 302 207 304 220 m 173 199 l 172 193 l 174 193 l 176 199 l 173 199 m 257 199 l 255 188 q 261 180 254 184 q 271 191 269 180 q 271 199 270 196 l 257 199 m 187 150 q 194 142 186 146 l 199 142 l 205 155 l 205 158 q 199 166 206 162 q 187 150 190 163 m 293 161 l 289 155 l 288 147 q 292 142 287 142 l 302 142 l 306 158 l 293 161 m 254 128 l 252 117 l 264 115 l 269 120 l 271 134 l 260 134 q 254 128 254 133 m 151 101 l 149 96 q 156 87 149 92 q 171 106 164 87 l 165 109 q 151 101 151 106 m 206 93 l 197 74 q 203 68 198 74 l 206 68 q 213 74 212 68 l 217 93 l 206 93 m 241 77 l 239 71 q 243 66 239 66 l 257 66 l 260 79 q 253 85 261 85 q 241 77 241 81 m 140 52 l 138 41 l 142 33 q 154 36 148 36 l 157 52 q 151 60 158 56 q 140 52 146 60 m 219 25 q 224 20 219 20 q 235 22 229 22 l 239 41 q 219 25 222 41 m 198 28 q 189 12 191 19 l 187 1 l 198 1 q 207 17 205 9 l 198 28 m 155 14 l 148 6 l 146 1 q 156 -7 146 -3 q 165 -5 162 -5 l 167 6 q 155 14 168 12 m 123 3 l 121 -5 l 134 -7 l 141 1 q 140 12 140 5 l 132 12 q 123 3 128 12 m 235 -18 l 235 -29 l 243 -29 q 250 -24 249 -29 l 254 -7 q 249 -2 254 -2 l 246 -2 q 235 -18 238 -5 m 191 -7 l 184 -16 l 182 -24 q 197 -29 181 -29 q 203 -18 201 -24 q 191 -7 202 -7 m 112 -10 l 111 -18 l 113 -18 l 115 -10 l 112 -10 m 115 -35 q 119 -43 121 -35 l 127 -43 q 138 -32 131 -43 l 132 -21 q 115 -35 124 -21 m 150 -24 l 146 -43 q 130 -56 145 -46 q 146 -83 129 -61 q 159 -75 158 -79 l 159 -73 q 149 -54 161 -62 l 150 -51 l 163 -40 q 150 -24 166 -24 m 215 -24 q 190 -40 214 -28 l 189 -43 l 191 -48 q 177 -64 180 -51 l 176 -73 q 180 -78 175 -78 l 188 -78 l 193 -64 q 192 -56 192 -59 q 214 -45 210 -45 l 222 -45 l 225 -40 q 215 -24 224 -28 m 227 -62 l 225 -67 l 228 -67 q 260 -59 235 -67 l 261 -51 q 258 -40 257 -44 q 227 -62 230 -45 m 106 -51 q 100 -59 105 -59 q 92 -54 94 -54 l 90 -54 l 86 -73 l 87 -78 l 103 -67 l 109 -81 l 105 -86 q 116 -100 104 -90 q 100 -121 102 -111 l 102 -140 q 96 -146 101 -146 q 85 -119 87 -119 l 82 -119 q 60 -173 71 -119 l 69 -168 l 72 -168 l 72 -184 q 56 -197 68 -184 l 55 -200 q 159 -138 95 -171 q 153 -132 161 -132 l 154 -124 q 174 -108 155 -120 q 186 -116 186 -111 q 176 -124 182 -116 l 176 -127 l 178 -127 q 222 -111 207 -111 l 243 -111 q 256 -105 252 -105 l 256 -102 l 246 -100 q 237 -102 240 -102 q 231 -94 238 -98 q 212 -108 219 -98 q 194 -89 192 -99 l 188 -92 l 183 -89 q 173 -97 182 -93 q 161 -92 165 -92 q 151 -100 160 -96 q 138 -83 142 -83 q 125 -94 137 -87 q 123 -92 125 -92 l 127 -86 l 127 -83 q 120 -51 115 -74 l 106 -51 m 197 -75 q 205 -89 199 -87 q 220 -78 219 -86 q 212 -64 218 -66 q 197 -75 199 -70 m 233 -81 l 233 -86 q 247 -94 233 -94 q 256 -92 253 -92 q 258 -94 255 -94 l 258 -92 q 249 -73 261 -79 l 243 -73 q 233 -81 239 -73 m 81 -94 q 87 -108 82 -108 l 90 -108 q 96 -102 95 -108 l 99 -89 q 92 -81 100 -85 q 81 -94 87 -81 m 391 260 q 382 229 387 245 q 360 185 375 222 q 362 182 359 182 q 294 31 345 136 l 292 22 q 293 -81 303 -31 l 291 -92 l 292 -97 l 298 -94 l 320 -94 l 321 -105 q 266 -149 300 -111 l 265 -151 l 252 -151 l 243 -143 q 25 -268 176 -168 q 10 -273 18 -268 q 0 -257 7 -273 l 1 -252 l 8 -243 l 9 -241 l 1 -241 l 9 -214 l 10 -205 l 16 -205 l 19 -189 l 19 -176 q 28 -173 25 -173 l 28 -168 l 23 -168 l 24 -162 l 45 -102 l 43 -97 q 53 -75 52 -80 q 49 -40 55 -51 q 56 -16 55 -25 l 58 -10 q 54 -5 59 -5 q 83 77 75 60 l 83 79 l 89 79 q 89 52 87 59 l 83 36 l 82 31 l 82 17 l 79 17 q 80 6 81 12 l 83 6 q 109 85 106 85 l 106 96 q 142 210 113 96 l 141 215 l 146 231 l 147 234 q 147 238 147 236 q 136 237 142 237 l 134 237 l 134 234 l 128 234 q 128 237 128 235 q 77 225 87 236 q 50 245 50 235 l 53 245 q 43 270 50 250 q 46 295 46 283 l 46 303 l 43 303 q 15 274 24 274 q 12 275 15 275 q 5 262 5 264 l -2 262 l 46 408 q 50 414 50 408 q 46 419 50 416 q 64 441 52 441 q 84 429 84 441 q 184 447 92 429 l 185 451 l 204 489 q 203 497 202 494 q 272 687 245 616 l 243 659 l 380 973 q 369 988 377 978 l 371 996 q 420 1118 379 1038 l 418 1124 q 429 1148 425 1148 l 432 1181 l 435 1197 q 452 1292 441 1228 l 454 1292 l 453 1297 l 454 1305 l 458 1311 l 453 1311 q 444 1308 447 1308 l 438 1319 l 477 1349 l 479 1349 l 484 1346 q 618 1417 509 1364 q 665 1438 619 1423 l 671 1438 q 675 1433 676 1438 q 660 1425 665 1425 l 659 1419 q 712 1455 707 1432 q 722 1476 722 1475 l 728 1476 q 730 1419 733 1436 l 728 1409 q 724 1406 727 1406 q 726 1403 724 1403 q 714 1368 718 1368 q 716 1365 713 1365 q 645 1159 684 1259 l 637 1159 l 642 1183 l 639 1183 q 605 1083 621 1132 q 602 1053 603 1059 q 597 1050 600 1052 l 588 995 l 642 1076 l 576 877 q 576 871 576 873 q 566 847 571 859 l 564 841 l 564 841 q 486 676 527 755 q 476 603 480 623 q 473 597 475 597 q 473 589 472 595 q 450 463 460 511 q 610 474 517 469 q 730 836 670 671 l 730 840 l 727 840 q 696 824 712 833 l 827 1221 q 835 1238 831 1230 q 867 1272 850 1272 q 876 1270 873 1270 q 979 1357 905 1279 l 981 1357 q 987 1350 981 1350 l 987 1348 q 984 1345 987 1345 l 987 1340 q 970 1308 977 1314 l 970 1306 q 1022 1364 1021 1349 l 1033 1369 l 1036 1364 l 1036 1352 q 1033 1343 1036 1347 l 1036 1337 l 979 1116 l 903 819 q 906 816 903 816 q 890 688 897 724 q 892 685 890 685 q 873 559 883 559 l 876 553 l 873 549 l 876 544 q 862 500 868 527 l 945 511 q 948 509 948 511 l 948 507 l 962 507 q 979 526 962 509 l 983 526 q 996 517 989 526 q 924 315 968 390 l 910 309 q 889 320 889 313 l 882 320 q 821 315 846 317 q 817 272 819 294 q 798 73 803 246 q 800 70 798 70 q 789 -29 795 -20 q 792 -37 792 -35 l 819 -29 l 846 -29 l 846 -32 q 789 -64 846 -35 q 708 -124 708 -108 q 591 -158 677 -146 q 578 -153 583 -153 q 507 -231 517 -199 q 494 -236 500 -231 l 494 -231 q 572 63 494 -172 q 589 126 586 97 q 586 134 586 131 l 589 134 q 586 140 586 138 q 589 148 586 143 q 586 153 589 153 l 589 182 l 589 216 q 597 223 589 220 l 600 223 q 618 206 600 217 q 633 280 626 252 q 630 277 631 279 q 391 260 543 273 m 625 355 q 627 365 626 359 l 616 365 q 610 361 610 365 l 610 359 q 620 353 610 356 q 625 355 622 354 m 593 417 q 596 427 595 422 l 595 427 q 592 421 595 425 l 593 417 m 655 477 q 665 493 659 488 q 678 559 672 508 q 648 486 673 557 q 644 476 646 481 q 655 477 650 476 m 431 390 q 427 378 429 385 l 433 378 l 450 380 l 450 387 q 444 390 450 390 l 431 390 m 159 351 q 159 359 158 356 l 160 363 l 153 363 q 143 357 149 363 l 143 353 q 150 349 144 349 l 153 349 q 159 351 156 349 m 148 279 q 145 270 146 275 q 150 274 150 271 l 150 275 q 148 279 150 277 m 157 309 q 152 292 156 304 l 157 291 l 163 297 l 163 299 q 157 309 163 307 m 224 245 q 209 243 217 244 l 209 242 l 218 234 l 225 242 l 224 245 m 294 252 q 275 250 285 251 l 275 248 q 290 239 276 239 l 294 252 m 279 414 q 273 406 279 410 l 273 401 q 283 399 283 401 q 293 401 290 401 l 293 410 q 279 414 288 410 m 228 363 l 224 353 q 245 343 224 343 l 248 343 l 248 345 q 231 363 248 355 l 228 363 m 311 351 l 311 349 l 328 347 l 335 353 l 335 355 q 328 359 335 359 l 324 359 q 311 351 319 359 m 376 340 l 376 332 q 387 326 376 329 q 393 332 393 326 q 383 343 390 343 q 376 340 376 343 m 259 309 l 255 299 q 269 291 255 296 l 276 297 q 266 309 276 307 l 259 309 z "},"$":{"ha":746,"x_min":0,"x_max":746,"o":"m 100 1225 q 92 1208 100 1219 l 92 1206 q 103 1222 97 1206 l 103 1225 l 100 1225 m 390 -123 l 390 -128 q 397 -125 395 -125 l 397 -123 l 390 -123 m 297 -149 l 294 -174 l 297 -174 l 338 -149 q 321 -120 338 -136 q 308 -149 313 -120 l 297 -149 m 408 -125 l 420 -125 l 420 -120 q 414 -113 420 -116 q 408 -125 410 -113 m 297 -107 l 297 -142 q 308 -115 308 -136 l 308 -107 l 303 -110 q 297 -107 299 -107 m 360 -117 q 371 -131 362 -129 l 375 -120 q 371 -102 371 -110 q 360 -117 362 -102 m 336 -83 l 336 -88 l 340 -107 q 336 -113 336 -108 l 336 -117 l 342 -128 l 347 -125 l 349 -125 l 349 -142 l 360 -139 l 360 -128 q 349 -104 354 -128 l 347 -104 l 349 -91 q 342 -78 347 -78 l 340 -78 q 336 -83 336 -79 m 371 -67 l 360 -83 l 360 -91 q 373 -99 362 -99 l 377 -99 l 384 -94 q 395 -107 384 -101 q 397 -99 397 -102 l 399 -99 q 410 -110 410 -108 l 420 -99 q 425 -104 421 -104 q 429 -83 425 -93 l 420 -83 q 416 -91 420 -91 l 410 -86 q 404 -94 404 -86 l 399 -94 q 382 -78 399 -79 q 371 -67 382 -70 m 451 -57 l 451 -75 l 447 -83 l 456 -83 q 460 -59 460 -66 l 456 -57 l 451 -57 m 425 -67 q 429 -75 429 -67 l 436 -75 q 442 -64 439 -75 l 436 -54 q 425 -67 430 -54 m 294 -43 l 294 -64 q 299 -70 295 -70 l 303 -62 q 294 -43 300 -43 m 366 -38 l 366 -54 q 375 -62 366 -58 q 379 -52 376 -52 q 371 -33 376 -33 q 366 -38 366 -33 m 406 -30 q 401 -46 406 -46 l 390 -43 l 386 -52 l 386 -54 q 397 -67 386 -58 l 406 -52 l 410 -54 l 420 -52 l 420 -46 q 410 -30 412 -30 l 406 -30 m 425 -30 l 425 -38 l 436 -41 l 440 -33 q 438 -22 438 -28 l 431 -22 q 425 -30 429 -22 m 449 -20 l 445 -28 l 445 -33 q 453 -41 445 -37 q 460 -38 458 -38 l 460 -28 q 449 -20 460 -22 m 299 -28 q 305 -38 302 -38 l 316 -35 l 316 -25 q 310 -17 316 -21 q 299 -28 307 -17 m 431 18 l 431 7 l 436 -1 q 445 1 439 1 l 445 18 q 438 26 445 22 q 431 18 435 26 m 368 31 l 368 15 q 373 9 369 9 l 375 9 q 382 20 378 9 q 373 36 377 36 q 368 31 368 35 m 330 36 q 323 31 330 31 q 330 15 324 15 l 340 15 l 340 28 q 330 36 340 34 m 399 87 l 399 76 q 406 68 399 72 q 412 81 409 68 q 406 94 410 94 q 399 87 402 94 m 424 107 l 424 104 q 431 96 424 100 l 435 96 l 437 110 l 437 115 q 424 107 424 113 m 298 71 q 309 60 309 68 l 315 60 l 315 77 q 307 85 315 81 q 298 71 302 85 m 252 130 l 239 114 q 252 98 249 98 l 260 98 l 269 103 q 282 90 269 96 q 285 98 285 95 l 288 98 q 301 87 301 89 l 315 98 l 323 85 l 320 79 q 334 66 320 76 q 323 47 323 54 q 350 26 347 26 l 353 26 q 355 34 353 29 q 350 53 355 36 l 358 53 l 363 50 l 372 66 q 355 82 365 66 l 353 82 q 342 71 353 78 q 339 74 342 74 l 342 79 l 342 82 q 328 114 328 91 l 315 114 q 309 106 315 106 l 301 111 q 293 103 293 111 l 288 103 q 266 119 288 117 q 252 130 266 127 m 418 140 q 396 124 418 136 l 396 121 l 399 117 q 388 100 388 114 l 388 90 l 391 90 q 404 100 403 100 l 401 106 q 429 127 401 108 l 429 130 q 418 140 429 134 m 353 140 l 353 121 q 339 109 353 118 q 361 82 339 104 q 372 90 372 86 l 372 92 q 358 111 372 103 l 358 114 l 369 124 q 353 140 369 140 m 320 130 q 326 121 326 130 l 334 121 q 342 132 338 121 l 334 143 q 320 130 326 143 m 391 156 l 385 148 l 385 140 q 401 135 385 135 q 404 146 404 140 q 391 156 401 156 m 437 146 l 437 140 l 439 140 q 453 153 443 140 l 453 156 q 448 161 453 161 l 445 161 q 437 146 437 159 m 222 161 l 214 151 l 214 140 q 231 138 229 138 l 236 146 l 236 159 q 222 161 227 159 m 247 159 l 247 143 q 258 135 247 139 q 263 146 258 146 q 252 164 258 164 q 247 159 247 163 m 296 167 q 290 151 296 151 l 277 153 l 271 146 l 271 143 q 285 130 271 140 l 296 146 l 301 143 l 315 146 l 315 151 q 301 167 304 167 l 296 167 m 320 167 l 320 159 l 334 156 l 339 164 q 336 175 336 169 l 328 175 q 320 167 324 175 m 350 177 l 345 170 l 345 164 q 355 156 345 160 q 363 159 361 159 l 363 170 q 350 177 363 176 m 391 191 q 385 175 385 182 l 385 164 l 396 164 q 401 180 401 173 l 391 191 m 193 175 l 193 172 q 201 164 193 168 l 209 164 l 212 177 q 201 191 206 189 q 193 175 193 188 m 231 180 q 241 175 241 178 q 255 185 254 180 l 255 196 l 252 196 q 231 180 231 196 m 477 201 q 472 191 477 197 l 472 185 q 477 180 473 180 q 491 193 481 180 q 483 201 491 197 l 477 201 m 285 193 q 301 182 288 182 l 304 182 l 307 196 q 301 201 307 201 l 293 201 q 285 193 289 201 m 412 188 q 418 182 413 182 q 429 185 422 185 l 429 204 q 412 188 412 204 m 165 209 q 171 199 171 209 l 184 199 q 187 204 184 204 q 179 214 183 214 l 171 214 q 165 209 165 214 m 328 214 l 328 204 l 334 196 q 345 199 338 199 l 345 214 q 336 222 345 218 q 328 214 332 222 m 250 228 l 250 212 q 255 206 250 206 l 258 206 q 266 217 262 206 q 255 233 260 233 q 250 228 250 233 m 201 233 q 193 228 201 228 q 201 212 195 212 l 214 212 l 214 225 q 201 233 214 231 m 290 235 l 288 231 l 288 228 l 290 214 l 298 214 q 307 222 300 214 q 290 235 305 235 m 458 238 l 456 225 l 456 220 q 464 212 456 216 q 469 217 469 212 l 469 233 q 464 238 469 238 l 458 238 m 423 238 l 423 233 q 429 228 424 228 l 442 228 l 442 241 q 434 246 442 246 q 423 238 423 242 m 385 254 l 380 235 l 388 231 l 391 231 q 396 235 396 231 l 396 254 l 385 254 m 488 254 l 488 243 q 496 235 488 241 q 507 246 507 238 q 496 257 505 257 q 488 254 491 254 m 231 257 l 231 252 q 239 243 231 250 q 252 254 251 249 q 241 264 252 258 q 231 257 231 261 m 328 262 l 328 257 q 336 249 328 253 q 347 267 345 249 l 342 270 q 328 262 328 267 m 534 267 l 534 260 l 537 260 q 545 273 542 260 l 540 273 q 534 267 534 272 m 165 275 l 163 262 q 182 252 168 252 l 182 267 q 174 275 182 271 l 165 275 m 117 275 l 114 252 l 119 249 l 122 249 q 127 254 127 249 l 127 264 q 122 275 122 271 l 117 275 m 288 283 l 288 273 q 296 264 288 269 q 304 278 300 264 q 296 292 300 292 q 288 283 292 292 m 426 289 l 426 278 l 439 275 l 442 281 l 442 294 l 431 294 q 426 289 426 293 m 222 307 q 217 292 217 298 l 217 281 l 231 281 l 233 294 q 222 307 228 306 m 491 299 l 491 296 q 496 292 492 292 l 510 292 l 513 304 l 513 310 q 507 313 507 310 q 491 299 496 309 m 458 321 l 456 315 l 456 307 q 461 302 456 302 l 472 302 l 472 318 l 458 321 m 567 313 l 567 304 l 578 302 q 583 318 583 311 q 578 323 583 323 q 567 313 574 323 m 361 326 q 355 310 361 316 q 363 302 355 306 l 369 302 l 372 315 l 372 318 q 363 326 372 321 l 361 326 m 160 321 l 160 318 q 168 310 160 314 l 176 310 q 182 315 182 310 l 182 328 l 168 328 q 160 321 164 328 m 250 334 l 250 331 q 260 313 250 320 q 274 323 273 318 q 266 342 274 330 q 250 334 254 334 m 415 357 l 415 347 q 423 339 415 343 q 431 350 431 339 q 429 357 429 355 l 415 357 m 136 363 q 146 345 136 349 l 152 352 l 152 360 q 144 366 152 366 q 136 363 138 363 m 458 366 l 458 363 q 464 357 459 357 l 472 357 l 472 363 l 469 381 l 467 381 q 458 366 458 379 m 548 376 l 548 368 l 562 368 q 570 387 567 368 l 564 389 q 548 376 553 386 m 187 389 l 184 379 q 198 363 190 365 l 203 371 l 203 374 q 195 389 203 387 l 187 389 m 429 416 l 423 408 l 423 406 q 439 397 426 397 l 442 410 q 429 416 433 416 m 144 418 l 146 418 q 152 424 152 418 l 152 432 q 144 418 147 432 m 570 448 l 570 445 q 575 439 570 439 l 578 439 l 578 453 l 575 453 q 570 448 570 452 m 458 477 l 458 467 q 464 461 459 461 q 472 469 468 461 l 469 482 l 464 482 q 458 477 458 481 m 529 496 q 532 488 532 490 l 540 488 q 545 493 545 488 l 545 498 q 540 503 545 503 l 537 503 q 529 496 533 503 m 184 519 l 179 503 l 190 503 l 190 519 l 184 519 m 410 562 l 410 551 q 415 546 410 546 l 423 546 q 429 551 429 546 l 429 556 q 418 564 429 559 q 410 562 412 562 m 548 591 l 553 570 q 562 578 557 570 l 562 583 q 556 593 556 589 l 553 593 l 548 591 m 418 673 l 418 668 l 429 668 q 434 673 434 668 l 434 684 q 429 689 434 689 l 426 689 q 418 673 418 686 m 30 771 l 30 763 l 33 763 l 33 771 l 30 771 m 125 800 l 125 795 q 141 787 127 787 q 146 792 142 792 q 133 803 144 803 q 125 800 127 800 m 540 806 l 540 798 q 545 792 541 792 l 556 792 l 559 803 l 553 814 q 540 806 540 810 m 30 1113 l 30 1108 l 33 1108 l 33 1113 l 30 1113 m 420 1200 l 355 1135 q 298 1071 298 1080 q 296 1057 298 1057 q 298 1055 296 1055 q 293 967 293 1004 q 494 1089 423 1064 l 494 1097 q 426 1198 452 1154 l 420 1200 m 403 4 q 397 -3 399 3 q 398 -7 397 -5 q 403 4 400 -1 m 250 43 q 214 71 240 53 q 117 206 169 118 l 117 209 q 111 204 111 208 q 114 175 114 180 l 111 175 q 76 220 76 208 q 125 498 77 312 q 201 599 148 555 l 228 625 l 231 625 l 231 612 q 228 602 231 606 q 231 588 231 597 q 225 551 225 559 l 225 517 q 222 514 225 514 l 225 509 l 222 493 l 225 488 q 222 477 222 483 l 222 474 q 255 432 222 465 q 326 345 302 366 q 366 556 366 530 l 366 604 l 363 636 l 366 636 q 363 644 363 642 q 361 724 363 656 q 339 628 353 724 q 326 581 326 608 l 320 581 q 331 681 320 593 q 328 689 328 686 l 334 689 q 345 750 334 711 l 342 755 l 342 758 l 350 795 l 347 800 q 353 817 347 808 q 350 829 350 821 q 157 631 350 826 l 152 631 q 146 639 146 631 q 160 665 160 659 l 155 663 l 152 668 q 168 715 163 706 l 163 715 q 122 675 163 711 q 14 556 103 657 l 3 554 q 0 556 3 556 q 8 583 8 575 q 5 591 5 588 q 16 602 8 591 l 14 620 l 14 734 l 11 753 l 14 753 q 11 760 11 758 q 8 848 11 789 q 14 896 14 888 l 19 896 l 19 877 l 27 835 l 24 835 q 30 787 30 821 l 30 779 l 35 779 l 35 798 q 43 821 35 804 l 41 827 q 43 835 43 832 l 41 848 q 43 850 41 850 l 41 864 l 41 872 l 43 888 q 41 890 43 890 l 46 981 q 43 989 46 983 q 62 1126 43 1035 q 41 1076 56 1126 l 35 1076 q 33 1095 35 1084 l 30 1095 l 30 1086 l 24 1086 q 19 1097 24 1090 q 73 1182 23 1128 q 141 1293 101 1241 l 141 1288 l 144 1288 q 160 1314 144 1293 l 155 1314 q 149 1307 155 1307 l 149 1312 q 222 1407 189 1380 l 225 1407 q 228 1402 225 1402 q 214 1314 222 1350 l 217 1314 q 285 1375 256 1348 q 289 1403 286 1393 q 287 1405 288 1405 q 290 1472 287 1449 l 286 1478 l 286 1480 q 319 1512 295 1509 q 385 1564 374 1563 l 388 1564 l 393 1563 l 391 1558 l 391 1552 q 396 1548 393 1548 q 446 1577 401 1550 q 513 1618 513 1608 l 518 1619 q 530 1592 526 1620 l 531 1580 q 524 1371 525 1472 q 556 1299 538 1339 l 559 1299 q 665 1495 642 1482 q 678 1468 670 1495 q 675 1466 678 1466 l 678 1447 q 675 1392 678 1417 q 678 1343 678 1377 l 681 1343 q 694 1397 689 1364 l 697 1397 l 694 1402 q 724 1532 716 1467 l 727 1532 q 746 1471 731 1529 l 719 1299 q 716 1280 719 1284 q 719 1278 716 1278 q 686 1023 697 1150 l 686 1010 l 689 983 q 678 938 684 983 l 681 933 l 675 893 q 678 882 678 888 l 670 882 q 613 960 633 926 l 610 960 q 594 747 594 960 q 627 800 598 748 l 635 806 l 637 806 q 646 785 646 804 q 627 636 646 771 l 629 599 l 610 421 q 618 281 618 286 q 602 220 614 281 q 600 214 600 220 l 597 214 q 583 246 583 226 q 498 134 555 195 q 501 81 501 110 q 479 -134 501 -20 l 473 -139 l 469 -139 q 458 -115 463 -139 l 456 -115 l 449 -139 q 451 -149 451 -144 l 451 -152 q 438 -168 451 -156 l 427 -157 q 404 -171 412 -157 l 393 -168 q 262 -263 349 -179 l 240 -277 l 238 -271 q 269 -165 258 -251 l 267 -160 q 269 -157 267 -157 q 267 -155 269 -155 q 271 -125 269 -131 q 269 -57 269 -81 l 269 -1 q 262 18 262 9 l 262 26 q 247 33 248 26 l 247 39 q 250 43 248 41 m 437 71 q 431 66 434 68 l 431 60 q 438 52 431 56 q 447 71 445 52 l 442 73 q 437 71 439 73 m 368 -24 l 385 -39 q 398 -7 391 -22 q 410 -14 401 -14 l 412 -14 l 414 -1 q 410 4 414 4 l 403 4 q 408 18 406 11 q 414 26 410 19 q 414 30 414 28 q 427 62 421 47 q 406 38 412 46 q 401 39 404 39 l 399 33 l 399 31 l 400 24 q 368 -24 392 -1 m 352 -37 q 342 -45 347 -41 q 340 -54 340 -50 l 330 -54 q 310 -75 313 -75 l 299 -73 l 297 -78 l 297 -91 q 314 -110 305 -91 l 323 -110 q 325 -102 323 -107 q 323 -83 323 -93 q 342 -57 342 -66 l 353 -59 l 357 -52 l 357 -38 q 352 -37 355 -38 m 337 -17 q 325 -11 331 -14 q 323 -22 323 -15 l 323 -25 q 330 -33 323 -28 l 336 -33 l 338 -20 q 337 -17 338 -18 m 307 1 q 301 7 304 4 q 305 1 302 1 l 307 1 m 354 -11 l 365 -21 q 373 -12 372 -16 l 373 -1 l 371 -1 q 354 -11 357 -1 z "},"%":{"ha":751,"x_min":0,"x_max":732,"o":"m 129 -113 l 137 -113 q 142 -119 142 -114 l 141 -121 q 134 -127 140 -127 l 129 -127 l 129 -113 m 75 -154 l 80 -154 l 79 -162 l 73 -162 l 75 -154 m 324 522 l 323 516 l 334 516 q 340 522 339 516 l 342 532 q 338 538 344 538 l 336 538 q 324 522 327 535 m 81 -94 q 87 -108 82 -108 l 90 -108 q 96 -102 95 -108 l 99 -89 q 92 -81 100 -85 q 81 -94 87 -81 m 233 -81 l 232 -86 q 247 -94 233 -94 q 256 -92 253 -92 q 258 -94 255 -94 l 258 -92 q 248 -73 261 -79 l 243 -73 q 233 -81 239 -73 m 197 -75 q 205 -89 199 -87 q 220 -78 218 -86 q 212 -64 217 -66 q 197 -75 199 -70 m 106 -51 q 99 -59 104 -59 q 92 -54 94 -54 l 90 -54 l 85 -73 l 87 -78 l 103 -67 l 109 -81 l 104 -86 q 115 -100 104 -90 q 100 -121 102 -111 l 102 -140 q 96 -146 101 -146 q 85 -119 87 -119 l 82 -119 q 60 -173 71 -119 l 69 -168 l 72 -168 l 71 -184 q 55 -197 68 -184 l 55 -200 q 159 -138 95 -171 q 153 -132 161 -132 l 154 -124 q 174 -108 155 -120 q 186 -116 186 -111 q 176 -124 182 -116 l 175 -127 l 178 -127 q 222 -111 207 -111 l 243 -111 q 256 -105 252 -105 l 256 -102 l 245 -100 q 237 -102 240 -102 q 231 -94 238 -98 q 212 -108 219 -98 q 194 -89 192 -99 l 188 -92 l 183 -89 q 173 -97 182 -93 q 161 -92 165 -92 q 151 -100 160 -96 q 138 -83 142 -83 q 125 -94 137 -87 q 123 -92 125 -92 l 126 -86 l 127 -83 q 120 -51 115 -74 l 106 -51 m 227 -62 l 225 -67 l 228 -67 q 259 -59 235 -67 l 261 -51 q 258 -40 257 -44 q 227 -62 230 -45 m 215 -24 q 190 -40 214 -28 l 189 -43 l 191 -48 q 177 -64 180 -51 l 175 -73 q 180 -78 175 -78 l 188 -78 l 193 -64 q 192 -56 191 -59 q 213 -45 210 -45 l 221 -45 l 225 -40 q 215 -24 224 -28 m 150 -24 l 146 -43 q 130 -56 145 -46 q 146 -83 129 -61 q 159 -75 157 -79 l 159 -73 q 149 -54 161 -62 l 150 -51 l 163 -40 q 150 -24 166 -24 m 115 -35 q 119 -43 121 -35 l 127 -43 q 137 -32 131 -43 l 132 -21 q 115 -35 124 -21 m 112 -10 l 110 -18 l 113 -18 l 115 -10 l 112 -10 m 191 -7 l 184 -16 l 182 -24 q 197 -29 181 -29 q 202 -18 201 -24 q 191 -7 202 -7 m 235 -18 l 235 -29 l 243 -29 q 250 -24 249 -29 l 254 -7 q 249 -2 254 -2 l 246 -2 q 235 -18 237 -5 m 123 3 l 121 -5 l 134 -7 l 141 1 q 140 12 139 5 l 132 12 q 123 3 128 12 m 155 14 l 148 6 l 146 1 q 156 -7 146 -3 q 164 -5 161 -5 l 167 6 q 155 14 168 12 m 198 28 q 189 12 191 19 l 187 1 l 198 1 q 207 17 205 9 l 198 28 m 219 25 q 224 20 219 20 q 235 22 229 22 l 239 41 q 219 25 222 41 m 140 52 l 138 41 l 142 33 q 153 36 147 36 l 157 52 q 151 60 157 56 q 140 52 146 60 m 241 77 l 239 71 q 243 66 239 66 l 257 66 l 260 79 q 253 85 261 85 q 241 77 241 81 m 205 93 l 197 74 q 203 68 198 74 l 206 68 q 213 74 212 68 l 216 93 l 205 93 m 151 101 l 149 96 q 156 87 149 92 q 170 106 164 87 l 165 109 q 151 101 151 106 m 254 128 l 252 117 l 264 115 l 268 120 l 271 134 l 260 134 q 254 128 254 133 m 292 161 l 289 155 l 287 147 q 292 142 287 142 l 302 142 l 306 158 l 292 161 m 187 150 q 194 142 186 146 l 199 142 l 205 155 l 205 158 q 199 166 206 162 q 187 150 190 163 m 257 199 l 254 188 q 261 180 254 184 q 271 191 269 180 q 271 199 270 196 l 257 199 m 173 199 l 172 193 l 174 193 l 176 199 l 173 199 m 302 207 l 301 204 q 306 199 301 199 l 314 199 l 315 204 l 316 223 l 313 223 q 302 207 304 220 m 282 258 l 275 250 l 275 248 q 290 239 276 239 l 295 253 q 282 258 287 258 m 215 261 l 208 242 l 218 234 l 224 242 q 218 261 225 261 l 215 261 m 167 318 l 165 310 l 168 310 l 170 318 l 167 318 m 162 321 l 161 315 l 163 315 l 165 321 l 162 321 m 325 321 l 323 310 q 327 304 322 304 q 336 313 331 304 l 336 326 l 331 326 q 325 321 326 326 m 204 329 l 201 315 l 204 315 l 207 329 l 204 329 m 293 408 l 291 397 q 296 391 291 391 l 304 391 q 310 397 309 391 l 311 402 q 302 410 312 405 q 293 408 296 408 m 380 973 q 369 988 377 978 l 370 996 q 420 1118 379 1038 l 418 1124 q 428 1148 425 1148 l 432 1181 l 435 1197 q 452 1292 441 1228 l 454 1292 l 453 1297 l 454 1305 l 458 1311 l 453 1311 q 444 1308 447 1308 l 438 1319 l 477 1349 l 479 1349 l 484 1346 q 618 1417 509 1364 q 665 1438 619 1423 l 671 1438 q 675 1433 676 1438 q 660 1425 665 1425 l 659 1419 q 712 1455 707 1432 q 722 1476 722 1475 l 728 1476 q 730 1419 732 1436 l 727 1409 q 724 1406 727 1406 q 726 1403 724 1403 q 713 1368 717 1368 q 716 1365 713 1365 q 645 1159 684 1259 l 637 1159 l 642 1183 l 639 1183 q 605 1083 621 1132 q 602 1053 603 1059 q 597 1050 600 1052 l 588 995 l 642 1076 l 576 877 q 576 871 576 873 q 566 847 571 859 l 564 841 l 564 841 q 486 676 526 755 q 476 603 480 623 q 473 597 475 597 q 473 589 472 595 q 450 456 459 505 l 444 429 q 382 229 433 402 q 360 185 374 222 q 362 182 359 182 q 294 31 345 136 l 292 22 q 293 -81 303 -31 l 291 -92 l 292 -97 l 298 -94 l 320 -94 l 321 -105 q 266 -149 300 -111 l 265 -151 l 252 -151 l 243 -143 q 25 -268 176 -168 q 10 -273 18 -268 q 0 -257 7 -273 l 1 -252 l 8 -243 l 9 -241 l 1 -241 l 9 -214 l 10 -205 l 16 -205 l 19 -189 l 19 -176 q 28 -173 25 -173 l 28 -168 l 23 -168 l 24 -162 l 45 -102 l 43 -97 q 53 -75 52 -80 q 49 -40 55 -51 q 56 -16 54 -25 l 58 -10 q 53 -5 58 -5 q 83 77 75 60 l 83 79 l 89 79 q 89 52 87 59 l 83 36 l 82 31 l 82 17 l 79 17 q 80 6 81 12 l 83 6 q 109 85 106 85 l 106 96 q 142 210 113 96 l 140 215 l 146 231 l 147 234 q 146 245 149 240 q 159 264 151 256 q 157 286 159 269 q 168 307 165 300 q 157 310 161 307 q 135 242 155 297 l 134 234 l 128 234 q 124 253 132 253 q 160 351 155 351 q 159 359 158 356 l 165 378 q 161 383 160 378 q 176 405 165 405 q 174 408 176 408 l 180 427 l 185 451 l 203 489 q 203 497 202 494 q 272 687 245 616 l 243 659 l 380 973 m 719 250 l 719 247 q 713 209 717 243 q 719 141 719 179 q 692 -79 719 38 l 684 -84 l 678 -84 q 665 -60 671 -84 l 662 -60 l 654 -84 q 656 -95 656 -89 l 656 -98 q 640 -114 656 -102 l 627 -103 q 597 -117 608 -103 l 583 -114 q 420 -212 529 -125 l 393 -225 l 391 -220 q 429 -111 416 -199 l 426 -106 q 429 -103 426 -103 q 426 -100 429 -100 q 431 -71 429 -76 q 429 0 429 -25 l 429 57 q 420 76 420 67 l 420 84 q 401 92 403 84 l 401 98 q 453 127 414 114 q 618 225 574 213 l 621 220 l 618 206 q 719 250 689 250 m 659 176 l 659 174 q 667 165 659 170 l 673 165 l 675 179 l 675 184 q 659 176 659 182 m 591 146 l 591 136 q 600 127 591 132 q 608 141 604 127 q 600 155 604 155 q 591 146 595 155 m 632 125 l 632 119 q 640 111 632 115 q 651 130 648 111 l 646 133 q 632 125 632 130 m 534 119 l 534 114 l 543 106 q 556 117 555 111 q 545 127 556 121 q 534 119 534 123 m 594 98 l 591 92 l 591 90 l 594 76 l 602 76 q 610 84 604 76 q 594 98 609 98 m 505 95 q 496 90 505 90 q 505 73 498 73 l 518 73 l 518 87 q 505 95 518 93 m 553 90 l 553 73 q 559 68 554 68 l 562 68 q 570 79 566 68 q 559 95 564 95 q 553 90 553 94 m 632 76 l 632 65 l 637 57 q 648 60 642 60 l 648 76 q 640 84 648 80 q 632 76 636 84 m 469 71 l 469 65 q 475 60 470 60 l 488 60 q 491 65 488 65 q 483 76 487 76 l 475 76 q 469 71 469 75 m 589 54 q 605 43 591 43 l 608 43 l 610 57 q 605 62 610 62 l 597 62 q 589 54 593 62 m 534 41 q 545 35 545 39 q 559 46 557 41 l 559 57 l 556 57 q 534 41 534 57 m 496 35 l 496 33 q 505 24 496 28 l 513 24 l 515 38 q 505 52 510 50 q 496 35 496 49 m 467 30 q 475 19 471 19 l 488 22 l 488 33 q 480 41 488 37 q 467 30 476 41 m 654 38 l 648 30 l 648 24 q 659 16 648 20 q 667 19 665 19 l 667 30 q 654 38 667 36 m 624 27 l 624 19 l 637 16 l 643 24 q 640 35 640 29 l 632 35 q 624 27 628 35 m 600 27 q 594 11 600 11 l 581 14 l 575 5 l 575 3 q 589 -11 575 -1 l 600 5 l 605 3 l 618 5 l 618 11 q 605 27 608 27 l 600 27 m 551 19 l 551 3 q 562 -5 551 -1 q 567 5 562 5 q 556 24 562 24 q 551 19 551 24 m 526 22 q 518 3 518 14 l 505 3 q 480 -19 485 -19 l 467 -16 l 464 -22 l 464 -35 q 486 -54 474 -35 l 496 -54 q 499 -46 496 -52 q 496 -27 496 -37 q 521 0 521 -10 l 534 -3 l 540 5 l 540 19 q 526 22 531 19 m 461 14 l 461 -8 q 467 -14 462 -14 l 472 -5 q 461 14 469 14 m 624 -11 q 629 -19 629 -11 l 637 -19 q 646 -8 642 -19 l 637 3 q 624 -11 630 3 m 656 0 l 656 -19 l 651 -27 l 662 -27 q 667 -3 667 -9 l 662 0 l 656 0 m 556 -11 l 543 -27 l 543 -35 q 559 -43 545 -43 l 564 -43 l 572 -38 q 586 -52 572 -45 q 589 -43 589 -46 l 591 -43 q 605 -54 605 -52 l 618 -43 q 624 -49 619 -49 q 629 -27 624 -37 l 618 -27 q 613 -35 618 -35 l 605 -30 q 597 -38 597 -30 l 591 -38 q 570 -22 591 -23 q 556 -11 570 -14 m 513 -27 l 513 -33 l 518 -52 q 513 -57 513 -52 l 513 -62 l 521 -73 l 526 -71 l 529 -71 l 529 -87 l 543 -84 l 543 -73 q 529 -49 535 -73 l 526 -49 l 529 -35 q 521 -22 527 -22 l 518 -22 q 513 -27 513 -22 m 543 -62 q 556 -76 545 -74 l 562 -65 q 556 -46 556 -54 q 543 -62 545 -46 m 464 -52 l 464 -87 q 477 -60 477 -81 l 477 -52 l 472 -54 q 464 -52 467 -52 m 602 -71 l 618 -71 l 618 -65 q 610 -57 618 -61 q 602 -71 606 -57 m 464 -95 l 461 -119 l 464 -119 l 515 -95 q 494 -65 515 -81 q 477 -95 484 -65 l 464 -95 m 581 -68 l 581 -73 q 589 -71 586 -71 l 589 -68 l 581 -68 m 300 1124 q 298 1131 298 1129 l 291 1131 q 285 1115 291 1128 l 138 1026 q 179 1122 172 1100 l 174 1122 q 87 1082 120 1088 l 69 1082 q 34 1059 53 1061 l 34 1061 q 45 1122 34 1069 q 39 1139 45 1128 q 55 1227 45 1202 q 53 1230 55 1230 q 66 1306 60 1280 l 62 1314 l 62 1316 q 106 1348 77 1348 q 191 1398 179 1398 l 195 1398 l 200 1395 l 197 1390 l 197 1383 q 202 1379 198 1379 q 265 1404 209 1379 q 349 1442 349 1430 l 356 1442 q 366 1409 366 1442 l 366 1395 q 326 1145 342 1266 q 309 1089 315 1122 q 296 1068 299 1069 l 293 1068 q 300 1124 296 1114 z "},"&":{"ha":1141,"x_min":0,"x_max":0,"o":""},"'":{"ha":385,"x_min":0,"x_max":385,"o":"m 366 1606 l 374 1606 q 385 1568 385 1606 l 385 1552 q 339 1261 358 1402 q 320 1196 326 1234 q 304 1172 308 1173 l 301 1172 q 309 1237 304 1224 q 307 1245 307 1242 l 298 1245 q 255 1147 298 1238 q 269 1134 255 1145 q 174 1015 269 1105 q 65 963 111 969 q 54 949 58 949 l 52 949 q 81 1025 60 979 q 87 1042 81 1030 l 84 1047 q 168 1234 157 1199 l 163 1234 q 62 1188 100 1194 l 41 1188 q 0 1161 22 1163 l 0 1164 q 14 1234 0 1173 q 5 1253 14 1241 q 24 1356 14 1328 q 22 1359 24 1359 q 38 1449 30 1419 l 33 1457 l 33 1459 q 84 1497 50 1497 q 182 1554 169 1554 l 187 1554 l 193 1552 l 190 1546 l 190 1538 q 195 1533 191 1533 q 269 1563 203 1533 q 366 1606 366 1592 z "},"(":{"ha":551,"x_min":0,"x_max":549,"o":"m 350 -59 q 366 -76 344 -59 q 385 -56 385 -60 l 377 -39 q 407 -17 395 -31 q 396 3 404 3 l 391 3 q 372 -22 391 -18 q 369 -26 372 -26 l 372 -31 l 372 -34 l 358 -59 l 350 -59 m 412 -109 q 450 -115 431 -109 l 450 -112 q 429 -79 450 -94 q 412 -109 419 -79 m 385 -84 q 396 -101 391 -101 l 399 -101 q 412 -73 412 -94 l 412 -64 l 407 -67 l 401 -64 q 385 -84 385 -71 m 301 -28 q 307 -34 302 -34 l 307 -28 l 301 -28 m 342 -22 q 334 -20 336 -20 q 312 -39 330 -20 l 326 -51 q 345 -31 326 -45 l 353 -37 l 358 -37 q 366 -26 366 -37 q 358 -14 362 -14 l 342 -22 m 304 5 l 301 0 l 301 -17 q 307 -22 302 -22 l 309 -22 q 317 -14 313 -22 q 304 5 311 5 m 260 5 q 277 -9 260 2 q 279 -3 277 -3 q 269 14 274 14 q 260 5 264 14 m 339 25 l 339 3 q 345 -3 340 -3 l 347 -3 q 355 8 355 -3 q 347 25 353 25 l 339 25 m 401 19 q 410 8 406 8 l 423 11 l 423 22 q 415 31 423 26 q 401 19 411 31 m 307 19 q 323 8 309 8 l 326 14 l 326 28 q 320 31 320 28 q 307 19 308 25 m 366 25 l 366 22 l 374 11 q 388 28 388 13 l 380 33 l 374 33 q 366 25 370 33 m 228 50 l 225 44 l 225 39 l 228 19 q 220 11 224 19 l 220 5 l 241 5 l 241 14 l 236 22 q 247 33 240 22 l 247 36 q 228 50 245 43 m 279 47 l 279 31 l 290 31 q 293 41 293 35 l 293 44 q 285 53 293 48 q 279 47 279 52 m 255 50 l 255 47 q 260 41 256 41 l 274 41 l 274 44 q 266 61 274 59 q 255 50 262 61 m 163 61 l 163 47 l 165 47 l 165 61 l 163 61 m 320 56 l 320 53 q 336 44 323 44 q 345 61 345 44 l 331 64 q 320 56 320 60 m 377 66 l 377 50 q 385 41 377 46 l 388 41 q 393 47 393 41 l 391 66 l 377 66 m 193 66 l 190 53 l 193 41 l 198 41 q 206 50 202 41 q 193 66 201 65 m 206 75 l 206 69 q 214 61 206 65 q 225 69 225 65 l 225 83 l 214 83 q 206 75 210 83 m 241 78 q 250 66 245 66 q 260 78 254 66 q 252 94 260 92 l 250 94 q 241 78 241 92 m 301 100 q 298 92 301 97 q 307 73 301 73 l 309 73 q 315 78 315 73 l 315 81 q 304 100 315 96 l 301 100 m 269 92 l 269 81 q 279 75 273 81 q 290 86 283 75 l 290 94 q 279 100 286 94 l 277 100 q 269 92 273 100 m 179 111 q 176 103 179 109 q 184 86 179 86 q 193 89 190 89 l 193 103 q 184 111 193 107 l 179 111 m 220 134 l 222 117 l 228 117 q 236 125 232 117 l 231 145 l 228 145 q 220 134 224 145 m 285 156 l 285 131 l 290 131 l 290 134 q 288 156 288 153 l 285 156 m 176 161 l 176 156 l 179 142 l 184 142 q 193 151 186 142 q 182 167 187 167 q 176 161 176 166 m 231 195 q 225 173 225 180 q 233 167 233 170 q 241 170 239 170 l 241 178 q 231 195 241 192 m 269 192 q 277 181 273 181 l 279 181 q 285 186 285 181 l 285 198 q 279 203 285 203 l 277 203 q 269 192 273 203 m 187 229 l 187 214 l 195 214 q 201 220 201 214 l 201 223 l 195 231 q 187 229 190 229 m 282 251 l 282 239 l 285 239 l 285 251 l 282 251 m 285 256 l 285 254 l 293 254 l 293 256 l 285 256 m 193 254 l 206 245 l 212 254 l 212 256 q 203 273 212 271 l 201 273 q 193 254 195 273 m 260 334 l 258 321 q 274 307 258 307 l 277 307 l 277 309 q 263 334 277 323 l 260 334 m 127 334 l 125 329 l 125 307 l 136 307 l 136 318 q 127 334 136 332 m 195 340 l 195 334 q 201 329 196 329 l 203 329 q 212 337 208 329 l 212 343 q 206 349 212 349 l 203 349 q 195 340 199 349 m 171 424 l 171 418 q 179 413 171 413 q 187 416 184 416 l 187 424 q 179 432 187 428 q 171 424 175 432 m 250 482 q 255 477 250 477 l 266 477 l 266 491 l 258 491 q 250 482 254 491 m 133 494 q 144 482 136 484 q 152 486 149 486 l 152 496 q 146 502 152 502 l 144 502 l 133 494 m 220 597 l 220 589 q 228 580 220 585 l 233 589 l 233 597 q 228 602 233 602 l 225 602 q 220 597 220 602 m 114 661 l 114 652 q 119 647 115 647 l 127 647 q 133 652 133 647 l 133 659 q 127 664 133 664 l 114 661 m 336 -59 q 339 -56 344 -59 l 336 -56 l 336 -59 m 130 -12 l 136 -12 l 136 -31 l 130 -31 l 130 -12 m 463 -64 l 461 -62 l 464 -47 q 456 -34 462 -34 l 453 -34 q 448 -39 448 -35 l 448 -45 l 453 -64 q 448 -70 448 -65 l 448 -76 l 456 -87 l 461 -84 l 462 -84 l 461 -81 l 463 -64 m 464 -90 q 469 -111 464 -105 l 464 -90 m 467 -125 q 464 -123 465 -124 l 464 -120 l 453 -120 l 453 -140 q 461 -146 458 -143 l 467 -125 m 471 -185 l 471 -195 q 388 -168 388 -180 l 388 -162 q 420 -154 388 -156 l 420 -151 q 366 -134 368 -138 l 277 -70 q 222 -28 241 -37 l 220 -34 q 231 -62 220 -41 l 228 -67 q 233 -84 233 -77 q 228 -90 233 -90 q 209 -76 228 -84 q 184 -37 199 -68 l 163 -6 l 160 -12 l 160 -34 q 163 -47 160 -43 q 149 -126 160 -85 l 144 -126 l 141 -112 l 144 -112 l 141 -106 l 141 -73 l 138 -73 l 138 -90 l 133 -90 l 133 -67 l 141 -67 l 138 -34 l 138 8 l 130 8 l 130 73 q 125 103 130 92 l 125 111 l 122 111 l 122 151 q 119 268 122 193 q 109 273 109 268 l 92 273 l 92 312 l 87 312 q 92 374 87 335 q 73 507 85 507 q 19 614 38 604 l 19 622 q 35 633 19 625 l 0 745 q 3 789 3 773 l 3 817 l 8 817 q 19 789 19 795 l 24 789 q 81 946 46 867 q 111 987 81 977 q 136 1024 136 1008 l 138 1024 l 144 1021 l 146 1027 l 141 1027 l 146 1046 l 149 1046 l 155 1044 q 206 1227 190 1138 q 217 1258 212 1228 l 222 1258 l 222 1244 l 233 1253 l 239 1253 l 247 1222 l 252 1222 q 274 1305 258 1300 q 285 1375 279 1356 l 290 1375 q 304 1364 290 1364 q 334 1473 326 1426 q 355 1487 349 1487 q 369 1468 367 1468 q 401 1487 388 1468 l 418 1490 l 464 1470 q 549 1450 479 1461 l 519 1101 q 453 1155 473 1136 q 429 1052 442 1138 l 426 1052 l 429 1046 q 396 918 410 963 l 388 918 q 382 924 382 918 l 382 932 q 385 935 382 935 q 382 943 382 940 q 391 985 391 971 l 391 987 l 388 987 q 315 801 315 869 q 282 659 309 765 q 307 602 301 602 l 309 602 q 326 636 309 623 l 328 636 l 328 606 q 317 558 323 597 l 298 507 q 312 399 307 423 q 309 396 312 396 l 320 312 l 317 312 q 350 218 331 265 l 350 212 q 345 206 350 206 q 320 220 342 206 l 317 220 l 317 212 q 320 201 317 205 l 317 195 q 342 131 327 131 q 369 100 364 101 l 369 136 l 385 136 q 467 47 418 109 l 469 47 l 469 37 l 470 41 l 493 70 l 493 36 l 524 101 l 514 -155 l 495 -169 l 519 -173 l 479 -198 l 471 -185 m 464 9 q 461 11 463 10 q 453 -9 453 3 l 439 -9 q 415 -31 420 -31 l 401 -28 l 396 -37 l 396 -42 q 420 -67 410 -51 l 431 -67 q 434 -59 431 -64 q 431 -39 431 -50 q 456 -12 456 -22 l 465 -14 l 464 9 z "},")":{"ha":555,"x_min":0,"x_max":549,"o":"m 199 -59 l 191 -59 l 178 -34 l 178 -31 l 180 -26 q 178 -22 178 -26 q 159 3 159 -18 l 153 3 q 142 -17 146 3 q 172 -39 155 -31 l 164 -56 q 183 -76 164 -60 q 199 -59 205 -59 m 137 -109 q 121 -79 130 -79 q 99 -112 99 -94 l 99 -115 q 137 -109 119 -109 m 164 -84 q 148 -64 164 -71 l 142 -67 l 137 -64 l 137 -73 q 151 -101 137 -94 l 153 -101 q 164 -84 158 -101 m 243 -28 l 243 -34 q 248 -28 248 -34 l 243 -28 m 191 -14 q 183 -26 187 -14 q 191 -37 183 -37 l 197 -37 l 205 -31 q 224 -51 224 -45 l 237 -39 q 216 -20 220 -20 q 208 -22 213 -20 l 191 -14 m 245 5 q 232 -14 238 5 q 240 -22 236 -22 l 243 -22 q 248 -17 248 -22 l 248 0 l 245 5 m 289 5 q 281 14 285 14 q 270 -3 275 14 q 273 -9 273 -3 q 289 5 289 2 m 202 25 q 194 8 197 25 q 202 -3 194 -3 l 205 -3 q 210 3 210 -3 l 210 25 l 202 25 m 148 19 q 134 31 138 31 q 126 22 126 26 l 126 11 l 140 8 q 148 19 144 8 m 243 19 q 229 31 241 25 q 224 28 229 28 l 224 14 l 227 8 q 243 19 240 8 m 183 25 q 175 33 179 33 l 170 33 l 161 28 q 175 11 161 13 l 183 22 l 183 25 m 321 50 q 302 36 304 43 l 302 33 q 313 22 309 22 l 308 14 l 308 5 l 330 5 l 330 11 q 321 19 326 19 l 324 39 l 324 44 l 321 50 m 270 47 q 264 53 270 52 q 256 44 256 48 l 256 41 q 259 31 256 35 l 270 31 l 270 47 m 294 50 q 283 61 288 61 q 275 44 275 59 l 275 41 l 289 41 q 294 47 294 41 l 294 50 m 384 61 l 384 47 l 387 47 l 387 61 l 384 61 m 229 56 q 218 64 229 60 l 205 61 q 213 44 205 44 q 229 53 227 44 l 229 56 m 159 66 l 156 47 q 161 41 156 41 l 164 41 q 172 50 172 46 l 172 66 l 159 66 m 357 66 q 343 50 349 65 q 351 41 347 41 l 357 41 l 359 53 l 357 66 m 343 75 q 335 83 339 83 l 324 83 l 324 69 q 335 61 324 65 q 343 69 343 65 l 343 75 m 308 78 q 300 94 308 92 l 297 94 q 289 78 289 92 q 300 66 296 66 q 308 78 304 66 m 245 100 q 235 81 235 96 l 235 78 q 240 73 235 73 l 243 73 q 251 92 248 73 q 248 100 248 97 l 245 100 m 281 92 q 273 100 277 100 l 270 100 q 259 94 263 94 l 259 86 q 270 75 266 75 q 281 81 277 81 l 281 92 m 365 111 q 357 103 357 107 l 357 89 q 365 86 359 89 q 373 103 370 86 q 370 111 370 109 l 365 111 m 330 134 q 321 145 326 145 l 319 145 l 313 125 q 321 117 317 117 l 327 117 l 330 134 m 262 156 q 259 134 262 153 l 259 131 l 264 131 l 264 156 l 262 156 m 373 161 q 368 167 373 166 q 357 151 362 167 q 365 142 363 142 l 370 142 l 373 156 l 373 161 m 319 195 q 308 178 308 192 l 308 170 q 316 167 311 170 q 324 173 316 170 q 319 195 324 180 m 281 192 q 273 203 277 203 l 270 203 q 264 198 264 203 l 264 186 q 270 181 264 181 l 273 181 q 281 192 277 181 m 362 229 q 354 231 359 229 l 349 223 l 349 220 q 354 214 349 214 l 362 214 l 362 229 m 264 251 l 264 239 l 267 239 l 267 251 l 264 251 m 256 256 l 256 254 l 264 254 l 264 256 l 256 256 m 357 254 q 349 273 354 273 l 346 273 q 338 256 338 271 l 338 254 l 343 245 l 357 254 m 286 334 q 273 309 273 323 l 273 307 l 275 307 q 292 321 292 307 l 289 334 l 286 334 m 422 334 q 414 318 414 332 l 414 307 l 425 307 l 425 329 l 422 334 m 354 340 q 346 349 350 349 l 343 349 q 338 343 338 349 l 338 337 q 346 329 342 329 l 349 329 q 354 334 353 329 l 354 340 m 378 424 q 370 432 374 432 q 362 424 362 428 l 362 416 q 370 413 365 416 q 378 418 378 413 l 378 424 m 300 482 q 292 491 296 491 l 283 491 l 283 477 l 294 477 q 300 482 299 477 m 406 502 l 403 502 q 397 496 397 502 l 397 486 q 406 482 400 486 q 416 494 414 484 l 406 502 m 330 597 q 324 602 330 602 l 321 602 q 316 597 316 602 l 316 589 l 321 580 q 330 589 330 585 l 330 597 m 422 664 q 416 659 416 664 l 416 652 q 422 647 416 647 l 430 647 q 435 652 435 647 l 435 661 l 422 664 m 213 -59 l 213 -56 l 210 -56 q 213 -59 205 -59 m 419 -31 l 414 -31 l 414 -12 l 419 -12 l 419 -31 m 88 -81 l 87 -84 l 88 -84 l 94 -87 l 102 -76 l 102 -70 q 96 -64 102 -65 l 102 -45 l 102 -39 q 96 -34 102 -35 l 94 -34 q 85 -47 87 -34 l 88 -62 l 86 -64 l 88 -81 m 80 -111 q 85 -90 85 -105 l 80 -111 m 88 -146 q 96 -140 92 -143 l 96 -120 l 85 -120 l 85 -123 q 83 -125 84 -124 l 88 -146 m 70 -198 l 31 -173 l 54 -169 l 35 -155 l 25 101 l 56 36 l 56 70 l 79 41 l 81 37 l 81 47 l 83 47 q 164 136 131 109 l 180 136 l 180 100 q 208 131 185 101 q 232 195 222 131 l 229 201 q 232 212 232 205 l 232 220 l 229 220 q 205 206 207 206 q 199 212 199 206 l 199 218 q 232 312 218 265 l 229 312 l 240 396 q 237 399 237 396 q 251 507 243 423 l 232 558 q 221 606 226 597 l 221 636 l 224 636 q 240 602 240 623 l 243 602 q 267 659 248 602 q 235 801 240 765 q 161 987 235 869 l 159 987 l 159 985 q 167 943 159 971 q 164 935 167 940 q 167 932 167 935 l 167 924 q 161 918 167 918 l 153 918 q 121 1046 140 963 l 123 1052 l 121 1052 q 96 1155 107 1138 q 30 1101 77 1136 l 0 1450 q 85 1470 71 1461 l 132 1490 l 148 1487 q 180 1468 161 1468 q 194 1487 182 1468 q 216 1473 200 1487 q 245 1364 224 1426 q 259 1375 259 1364 l 264 1375 q 275 1305 270 1356 q 297 1222 292 1300 l 302 1222 l 311 1253 l 316 1253 l 327 1244 l 327 1258 l 332 1258 q 343 1227 338 1228 q 395 1044 359 1138 l 400 1046 l 403 1046 l 408 1027 l 403 1027 l 406 1021 l 411 1024 l 414 1024 q 438 987 414 1008 q 468 946 468 977 q 525 789 503 867 l 530 789 q 541 817 530 795 l 547 817 l 547 789 q 549 745 547 773 l 514 633 q 530 622 530 625 l 530 614 q 476 507 511 604 q 457 374 465 507 q 463 312 463 335 l 457 312 l 457 273 l 441 273 q 430 268 441 268 q 427 151 427 193 l 427 111 l 425 111 l 425 103 q 419 73 419 92 l 419 8 l 411 8 l 411 -34 l 408 -67 l 416 -67 l 416 -90 l 411 -90 l 411 -73 l 408 -73 l 408 -106 l 406 -112 l 408 -112 l 406 -126 l 400 -126 q 387 -47 389 -85 q 389 -34 389 -43 l 389 -12 l 387 -6 l 365 -37 q 340 -76 350 -68 q 321 -90 321 -84 q 316 -84 316 -90 q 321 -67 316 -77 l 319 -62 q 330 -34 330 -41 l 327 -28 q 273 -70 308 -37 l 183 -134 q 129 -151 181 -138 l 129 -154 q 161 -162 161 -156 l 161 -168 q 78 -195 161 -180 l 78 -185 l 70 -198 m 85 -14 l 94 -12 q 118 -39 94 -22 q 115 -59 118 -50 q 118 -67 118 -64 l 129 -67 q 153 -42 140 -51 l 153 -37 l 148 -28 l 134 -31 q 110 -9 130 -31 l 96 -9 q 88 11 96 3 q 85 9 87 10 l 85 -14 z "},"*":{"ha":694,"x_min":0,"x_max":0,"o":""},"+":{"ha":688,"x_min":0,"x_max":0,"o":""},",":{"ha":385,"x_min":0,"x_max":385,"o":"m 366 431 l 374 431 q 385 393 385 431 l 385 377 q 339 87 358 227 q 320 22 326 59 q 304 -3 308 -2 l 301 -3 q 309 62 304 50 q 307 71 307 68 l 298 71 q 255 -27 298 63 q 269 -41 255 -29 q 174 -160 269 -70 q 65 -212 111 -205 q 54 -225 58 -225 l 52 -225 q 81 -149 60 -195 q 87 -133 81 -144 l 84 -127 q 168 60 157 24 l 163 60 q 62 14 100 20 l 41 14 q 0 -14 22 -12 l 0 -11 q 14 60 0 -1 q 5 79 14 66 q 24 182 14 153 q 22 184 24 184 q 38 274 30 244 l 33 282 l 33 285 q 84 323 50 323 q 182 380 169 380 l 187 380 l 193 377 l 190 372 l 190 363 q 195 358 191 358 q 269 388 203 358 q 366 431 366 418 m 301 323 q 309 309 303 309 q 315 315 315 309 l 315 320 l 309 339 q 301 323 301 336 m 220 320 l 217 309 q 231 293 222 295 l 236 301 l 236 304 q 228 320 236 318 l 220 320 m 168 293 q 179 274 168 279 l 184 282 l 184 290 q 176 296 184 296 q 168 293 171 293 m 125 282 l 125 269 l 130 260 q 141 263 135 263 l 141 269 q 130 288 141 283 q 125 282 125 287 m 76 271 l 71 252 l 73 252 q 81 263 81 252 q 79 271 79 269 l 76 271 m 282 263 l 282 260 q 293 241 282 249 q 307 252 305 247 q 298 271 307 259 q 282 263 286 263 m 193 250 l 193 247 q 201 239 193 243 l 209 239 q 214 244 214 239 l 214 258 l 201 258 q 193 250 197 258 m 255 236 q 250 220 250 227 l 250 209 l 263 209 l 266 222 q 255 236 260 235 m 79 228 l 79 203 l 92 203 q 95 212 92 206 q 84 228 90 228 l 79 228 m 144 198 l 144 184 q 152 176 144 180 l 155 176 q 160 182 160 176 l 160 193 q 155 203 155 199 l 149 203 q 144 198 144 203 m 198 203 l 195 190 q 214 179 200 179 l 214 195 q 206 203 214 199 l 198 203 m 114 198 q 111 190 114 195 q 122 179 114 179 q 133 193 133 182 q 117 198 124 198 l 114 198 m 263 184 l 263 179 q 271 171 263 177 q 285 182 283 176 q 274 193 285 186 q 263 184 263 189 m 62 165 l 62 155 q 73 149 66 155 q 84 160 77 149 l 84 168 q 73 174 80 168 l 71 174 q 62 165 66 174 m 95 171 l 92 165 q 100 146 95 146 l 103 146 q 109 152 109 146 l 109 157 q 95 171 109 171 m 233 160 q 225 155 233 155 q 233 138 227 138 l 247 138 l 247 152 q 233 160 247 158 m 282 155 l 282 138 q 288 133 283 133 l 290 133 q 298 144 294 133 q 288 160 293 160 q 282 155 282 159 m 176 146 l 171 138 l 171 125 q 179 117 171 121 l 182 117 q 187 122 187 117 q 176 146 187 143 m 198 136 l 198 130 q 203 125 199 125 l 217 125 q 220 130 217 130 q 212 141 216 141 l 203 141 q 198 136 198 140 m 114 130 l 114 127 q 130 119 117 119 q 138 136 138 119 l 125 138 q 114 130 114 134 m 49 119 l 54 117 l 68 117 l 68 119 q 60 136 68 134 q 49 119 49 130 m 73 122 l 73 106 l 84 106 q 87 117 87 111 l 87 119 q 79 127 87 123 q 73 122 73 127 m 263 106 l 269 103 l 279 103 q 288 111 283 103 l 288 122 l 285 122 q 263 106 263 122 m 225 100 l 225 98 q 233 90 225 94 l 241 90 l 244 103 q 233 117 239 115 q 225 100 225 114 m 160 100 l 160 98 q 165 92 161 92 l 176 92 q 182 98 182 92 l 182 100 q 174 109 182 104 l 168 109 q 160 100 164 109 m 100 95 q 117 84 103 84 l 119 90 l 119 103 q 114 106 114 103 q 100 95 102 100 m 195 92 q 201 84 201 92 l 203 84 l 217 87 l 217 98 q 209 106 217 102 q 195 92 201 106 m 133 100 l 133 92 l 146 92 l 146 95 q 141 100 146 100 l 133 100 m 54 81 l 54 65 l 68 62 q 73 73 70 73 q 62 90 68 90 q 54 81 58 90 m 247 68 l 233 68 q 209 46 214 46 l 206 46 l 201 49 l 201 30 q 214 11 211 11 l 225 11 q 228 19 225 14 q 225 38 225 28 q 252 71 245 50 q 258 87 258 71 q 247 68 249 87 m 98 81 l 95 76 l 95 73 l 98 73 q 103 79 103 73 l 98 81 m 195 14 q 184 -19 195 8 l 190 -22 l 193 -22 q 206 5 206 -16 l 206 14 l 201 11 l 195 14 m 201 -30 q 193 -27 195 -27 q 171 -46 193 -30 q 184 -68 173 -59 l 165 -81 l 163 -81 l 163 -79 q 168 -57 168 -61 q 146 -98 153 -77 q 155 -100 152 -100 l 168 -98 q 171 -100 168 -100 q 195 -71 193 -77 l 190 -62 l 190 -60 l 193 -54 l 198 -57 q 222 -35 216 -50 l 222 0 q 206 -30 213 0 l 201 -30 m 133 -127 l 133 -130 l 136 -130 q 163 -109 136 -123 l 163 -103 q 133 -127 133 -109 z "},"-":{"ha":784,"x_min":0,"x_max":784,"o":"m 770 861 l 773 861 q 784 848 779 860 q 727 566 762 671 l 716 557 q 700 574 700 563 l 694 574 q 602 560 612 560 q 635 547 602 555 l 637 533 q 632 530 632 533 l 600 533 l 562 533 q 496 514 504 533 q 109 457 378 503 q 62 441 71 457 q 41 468 41 454 l 43 468 q 35 503 41 475 q 38 538 38 521 l 38 549 l 35 549 q 14 509 21 509 q 11 511 14 511 q 5 492 5 495 l 0 492 l 38 696 q 41 704 41 696 q 38 712 41 707 q 52 742 43 742 q 68 726 68 742 q 241 783 77 726 q 298 796 290 796 l 293 788 l 296 783 q 290 777 290 782 q 296 772 296 777 q 274 761 277 761 l 274 758 l 277 758 q 532 793 353 777 l 532 791 l 743 840 q 746 837 746 840 l 746 834 l 757 834 q 770 861 757 838 m 705 745 l 711 723 q 719 731 715 723 l 719 736 q 713 747 713 743 l 711 747 l 705 745 m 469 723 q 467 715 469 720 l 469 701 l 480 701 l 483 720 l 477 723 l 469 723 m 567 715 l 567 704 q 572 699 568 699 l 581 699 q 586 704 586 699 l 586 709 q 575 718 586 712 q 567 715 570 715 m 220 690 q 214 680 220 686 l 214 674 q 222 671 222 674 q 231 674 228 674 l 231 685 q 220 690 227 685 m 339 671 l 336 658 l 336 655 l 342 655 l 355 658 l 355 666 q 350 671 355 671 l 339 671 m 686 647 q 689 639 689 642 l 697 639 q 703 644 703 639 l 703 650 q 697 655 703 655 l 694 655 q 686 647 690 655 m 480 631 l 480 628 q 488 620 480 624 q 496 623 494 623 l 496 636 l 486 636 q 480 631 480 635 m 114 625 l 114 620 q 119 614 115 614 l 122 614 q 130 623 126 614 l 130 628 q 125 633 130 633 l 122 633 q 114 625 118 633 m 616 628 l 616 617 q 621 612 616 612 q 629 620 625 612 l 627 633 l 621 633 q 616 628 616 633 m 179 620 l 176 606 q 193 593 176 593 l 195 593 l 195 595 q 182 620 195 609 l 179 620 m 244 604 l 244 601 l 258 598 l 263 606 l 263 609 q 258 614 263 614 l 255 614 q 244 604 251 614 m 410 609 l 404 601 l 404 598 q 412 590 404 594 l 418 590 q 423 595 423 590 l 423 606 l 410 609 m 296 587 l 296 576 q 304 568 296 572 q 309 576 309 568 q 301 593 307 593 q 296 587 296 592 m 518 568 l 518 566 l 524 566 l 524 568 l 518 568 m 111 541 l 125 533 l 130 541 l 130 544 q 122 560 130 558 l 119 560 q 111 541 114 560 m 426 544 l 439 544 q 434 557 434 553 q 426 544 428 557 m 203 544 l 201 530 q 212 519 201 526 l 217 528 q 209 544 217 542 l 203 544 m 345 538 l 345 533 q 355 536 349 536 l 355 538 l 345 538 m 14 519 l 14 514 l 16 514 l 16 519 l 14 519 m 114 517 l 114 503 q 119 509 119 503 l 119 511 q 114 517 119 517 z "},".":{"ha":328,"x_min":0,"x_max":328,"o":"m 328 397 l 328 394 q 323 356 326 391 q 328 288 328 326 q 301 68 328 185 l 293 63 l 288 63 q 274 87 281 63 l 271 87 l 263 63 q 266 52 266 58 l 266 50 q 250 33 266 45 l 236 44 q 206 31 218 44 l 193 33 q 30 -64 138 22 l 3 -78 l 0 -73 q 38 36 26 -52 l 35 41 q 38 44 35 44 q 35 47 38 47 q 41 77 38 71 q 38 147 38 122 l 38 204 q 30 223 30 214 l 30 231 q 11 239 12 231 l 11 245 q 62 275 24 261 q 228 372 184 360 l 231 367 l 228 353 q 328 397 298 397 m 269 323 l 269 321 q 277 313 269 317 l 282 313 l 285 326 l 285 332 q 269 323 269 329 m 201 294 l 201 283 q 209 275 201 279 q 217 288 213 275 q 209 302 214 302 q 201 294 205 302 m 241 272 l 241 267 q 250 258 241 262 q 260 277 258 258 l 255 280 q 241 272 241 277 m 144 267 l 144 261 l 152 253 q 165 264 164 258 q 155 275 165 268 q 144 267 144 271 m 203 245 l 201 239 l 201 237 l 203 223 l 212 223 q 220 231 214 223 q 203 245 218 245 m 114 242 q 106 237 114 237 q 114 220 108 220 l 127 220 l 127 234 q 114 242 127 240 m 163 237 l 163 220 q 168 215 163 215 l 171 215 q 179 226 175 215 q 168 242 174 242 q 163 237 163 241 m 241 223 l 241 212 l 247 204 q 258 207 252 207 l 258 223 q 250 231 258 227 q 241 223 245 231 m 79 218 l 79 212 q 84 207 79 207 l 98 207 q 100 212 98 212 q 92 223 96 223 l 84 223 q 79 218 79 222 m 198 201 q 214 191 201 191 l 217 191 l 220 204 q 214 210 220 210 l 206 210 q 198 201 202 210 m 144 188 q 155 182 155 186 q 168 193 167 188 l 168 204 l 165 204 q 144 188 144 204 m 106 182 l 106 180 q 114 172 106 176 l 122 172 l 125 185 q 114 199 119 197 q 106 182 106 196 m 76 177 q 84 166 80 166 l 98 169 l 98 180 q 90 188 98 184 q 76 177 85 188 m 263 185 l 258 177 l 258 172 q 269 163 258 168 q 277 166 274 166 l 277 177 q 263 185 277 183 m 233 174 l 233 166 l 247 163 l 252 172 q 250 182 250 176 l 241 182 q 233 174 237 182 m 209 174 q 203 158 209 158 l 190 161 l 184 153 l 184 150 q 198 136 184 146 l 209 153 l 214 150 l 228 153 l 228 158 q 214 174 218 174 l 209 174 m 160 166 l 160 150 q 171 142 160 146 q 176 153 172 153 q 165 172 172 172 q 160 166 160 171 m 136 169 q 127 150 127 161 l 114 150 q 90 128 94 128 l 76 131 l 73 125 l 73 112 q 95 93 83 112 l 106 93 q 109 101 106 96 q 106 120 106 110 q 130 147 130 137 l 144 144 l 149 153 l 149 166 q 136 169 140 166 m 71 161 l 71 139 q 76 134 71 134 l 81 142 q 71 161 78 161 m 233 136 q 239 128 239 136 l 247 128 q 255 139 251 128 l 247 150 q 233 136 239 150 m 266 147 l 266 128 l 260 120 l 271 120 q 277 144 277 138 l 271 147 l 266 147 m 165 136 l 152 120 l 152 112 q 168 104 155 104 l 174 104 l 182 109 q 195 96 182 102 q 198 104 198 101 l 201 104 q 214 93 214 95 l 228 104 q 233 98 229 98 q 239 120 233 110 l 228 120 q 222 112 228 112 l 214 117 q 206 109 206 117 l 201 109 q 179 125 201 124 q 165 136 179 134 m 122 120 l 122 115 l 127 96 q 122 90 122 95 l 122 85 l 130 74 l 136 77 l 138 77 l 138 60 l 152 63 l 152 74 q 138 98 144 74 l 136 98 l 138 112 q 130 125 136 125 l 127 125 q 122 120 122 125 m 152 85 q 165 71 155 73 l 171 82 q 165 101 165 93 q 152 85 155 101 m 73 96 l 73 60 q 87 87 87 66 l 87 96 l 81 93 q 73 96 76 96 m 212 77 l 228 77 l 228 82 q 220 90 228 86 q 212 77 215 90 m 73 52 l 71 28 l 73 28 l 125 52 q 103 82 125 66 q 87 52 94 82 l 73 52 m 190 79 l 190 74 q 198 77 195 77 l 198 79 l 190 79 z "},"/":{"ha":751,"x_min":0,"x_max":733,"o":"m 130 -113 l 138 -113 q 142 -119 142 -114 l 141 -121 q 135 -127 140 -127 l 130 -127 l 130 -113 m 75 -154 l 80 -154 l 79 -162 l 73 -162 l 75 -154 m 324 522 l 323 516 l 334 516 q 340 522 340 516 l 342 532 q 338 538 344 538 l 336 538 q 324 522 327 535 m 81 -94 q 87 -108 82 -108 l 90 -108 q 96 -102 95 -108 l 99 -89 q 92 -81 100 -85 q 81 -94 87 -81 m 233 -81 l 233 -86 q 247 -94 233 -94 q 256 -92 253 -92 q 258 -94 255 -94 l 258 -92 q 249 -73 261 -79 l 243 -73 q 233 -81 239 -73 m 197 -75 q 205 -89 199 -87 q 220 -78 219 -86 q 212 -64 218 -66 q 197 -75 199 -70 m 106 -51 q 100 -59 105 -59 q 92 -54 94 -54 l 90 -54 l 86 -73 l 87 -78 l 103 -67 l 109 -81 l 105 -86 q 116 -100 104 -90 q 100 -121 102 -111 l 102 -140 q 96 -146 101 -146 q 85 -119 87 -119 l 82 -119 q 60 -173 71 -119 l 69 -168 l 72 -168 l 72 -184 q 56 -197 68 -184 l 55 -200 q 159 -138 95 -171 q 153 -132 161 -132 l 154 -124 q 174 -108 155 -120 q 186 -116 186 -111 q 176 -124 182 -116 l 176 -127 l 178 -127 q 222 -111 207 -111 l 243 -111 q 256 -105 252 -105 l 256 -102 l 246 -100 q 237 -102 240 -102 q 231 -94 238 -98 q 212 -108 219 -98 q 194 -89 192 -99 l 188 -92 l 183 -89 q 173 -97 182 -93 q 161 -92 165 -92 q 151 -100 160 -96 q 138 -83 142 -83 q 125 -94 137 -87 q 123 -92 125 -92 l 127 -86 l 127 -83 q 120 -51 115 -74 l 106 -51 m 227 -62 l 225 -67 l 228 -67 q 260 -59 235 -67 l 261 -51 q 258 -40 257 -44 q 227 -62 230 -45 m 215 -24 q 190 -40 214 -28 l 189 -43 l 191 -48 q 177 -64 180 -51 l 176 -73 q 180 -78 175 -78 l 188 -78 l 193 -64 q 192 -56 192 -59 q 214 -45 210 -45 l 222 -45 l 225 -40 q 215 -24 224 -28 m 150 -24 l 146 -43 q 130 -56 145 -46 q 146 -83 129 -61 q 159 -75 158 -79 l 159 -73 q 149 -54 161 -62 l 150 -51 l 163 -40 q 150 -24 166 -24 m 115 -35 q 119 -43 121 -35 l 127 -43 q 138 -32 131 -43 l 132 -21 q 115 -35 124 -21 m 112 -10 l 111 -18 l 113 -18 l 115 -10 l 112 -10 m 191 -7 l 184 -16 l 182 -24 q 197 -29 181 -29 q 203 -18 201 -24 q 191 -7 202 -7 m 235 -18 l 235 -29 l 243 -29 q 250 -24 249 -29 l 254 -7 q 249 -2 254 -2 l 246 -2 q 235 -18 238 -5 m 123 3 l 121 -5 l 134 -7 l 141 1 q 140 12 140 5 l 132 12 q 123 3 128 12 m 155 14 l 148 6 l 146 1 q 156 -7 146 -3 q 165 -5 162 -5 l 167 6 q 155 14 168 12 m 198 28 q 189 12 191 19 l 187 1 l 198 1 q 207 17 205 9 l 198 28 m 219 25 q 224 20 219 20 q 235 22 229 22 l 239 41 q 219 25 222 41 m 140 52 l 138 41 l 142 33 q 154 36 148 36 l 157 52 q 151 60 158 56 q 140 52 146 60 m 241 77 l 239 71 q 243 66 239 66 l 257 66 l 260 79 q 253 85 261 85 q 241 77 241 81 m 206 93 l 197 74 q 203 68 198 74 l 206 68 q 213 74 212 68 l 217 93 l 206 93 m 151 101 l 149 96 q 156 87 149 92 q 171 106 164 87 l 165 109 q 151 101 151 106 m 254 128 l 252 117 l 264 115 l 269 120 l 271 134 l 260 134 q 254 128 254 133 m 293 161 l 289 155 l 288 147 q 292 142 287 142 l 302 142 l 306 158 l 293 161 m 187 150 q 194 142 186 146 l 199 142 l 205 155 l 205 158 q 199 166 206 162 q 187 150 190 163 m 257 199 l 255 188 q 261 180 254 184 q 271 191 269 180 q 271 199 270 196 l 257 199 m 173 199 l 172 193 l 174 193 l 176 199 l 173 199 m 302 207 l 301 204 q 306 199 301 199 l 314 199 l 315 204 l 316 223 l 313 223 q 302 207 304 220 m 282 258 l 275 250 l 275 248 q 290 239 276 239 l 295 253 q 282 258 287 258 m 215 261 l 209 242 l 218 234 l 225 242 q 218 261 225 261 l 215 261 m 167 318 l 165 310 l 168 310 l 170 318 l 167 318 m 162 321 l 161 315 l 163 315 l 165 321 l 162 321 m 325 321 l 323 310 q 327 304 322 304 q 336 313 331 304 l 337 326 l 332 326 q 325 321 326 326 m 204 329 l 201 315 l 204 315 l 207 329 l 204 329 m 294 408 l 291 397 q 296 391 291 391 l 304 391 q 310 397 309 391 l 311 402 q 302 410 312 405 q 294 408 296 408 m 380 973 q 369 988 377 978 l 371 996 q 420 1118 379 1038 l 418 1124 q 429 1148 425 1148 l 432 1181 l 435 1197 q 452 1292 441 1228 l 454 1292 l 453 1297 l 454 1305 l 458 1311 l 453 1311 q 444 1308 447 1308 l 438 1319 l 477 1349 l 479 1349 l 484 1346 q 618 1417 509 1364 q 665 1438 619 1423 l 671 1438 q 675 1433 676 1438 q 660 1425 665 1425 l 659 1419 q 712 1455 707 1432 q 722 1476 722 1475 l 728 1476 q 730 1419 733 1436 l 728 1409 q 724 1406 727 1406 q 726 1403 724 1403 q 714 1368 718 1368 q 716 1365 713 1365 q 645 1159 684 1259 l 637 1159 l 642 1183 l 639 1183 q 605 1083 621 1132 q 602 1053 603 1059 q 597 1050 600 1052 l 588 995 l 642 1076 l 576 877 q 576 871 576 873 q 566 847 571 859 l 564 841 l 564 841 q 486 676 527 755 q 476 603 480 623 q 473 597 475 597 q 473 589 472 595 q 450 456 459 505 l 444 429 q 382 229 433 402 q 360 185 375 222 q 362 182 359 182 q 294 31 345 136 l 292 22 q 293 -81 303 -31 l 291 -92 l 292 -97 l 298 -94 l 320 -94 l 321 -105 q 266 -149 300 -111 l 265 -151 l 252 -151 l 243 -143 q 25 -268 176 -168 q 10 -273 18 -268 q 0 -257 7 -273 l 1 -252 l 8 -243 l 9 -241 l 1 -241 l 9 -214 l 10 -205 l 16 -205 l 19 -189 l 19 -176 q 28 -173 25 -173 l 28 -168 l 23 -168 l 24 -162 l 45 -102 l 43 -97 q 53 -75 52 -80 q 49 -40 55 -51 q 56 -16 55 -25 l 58 -10 q 54 -5 59 -5 q 83 77 75 60 l 83 79 l 89 79 q 89 52 87 59 l 83 36 l 82 31 l 82 17 l 79 17 q 80 6 81 12 l 83 6 q 109 85 106 85 l 106 96 q 142 210 113 96 l 141 215 l 146 231 l 147 234 q 146 245 149 240 q 159 264 152 256 q 157 286 159 269 q 168 307 166 300 q 157 310 161 307 q 136 242 155 297 l 134 234 l 128 234 q 124 253 132 253 q 160 351 155 351 q 159 359 158 356 l 165 378 q 161 383 160 378 q 176 405 165 405 q 174 408 177 408 l 180 427 l 185 451 l 204 489 q 203 497 202 494 q 272 687 245 616 l 243 659 l 380 973 z "},":":{"ha":328,"x_min":0,"x_max":328,"o":"m 328 397 l 328 394 q 323 356 326 391 q 328 288 328 326 q 301 68 328 185 l 293 63 l 288 63 q 274 87 281 63 l 271 87 l 263 63 q 266 52 266 58 l 266 50 q 250 33 266 45 l 236 44 q 206 31 218 44 l 193 33 q 30 -64 138 22 l 3 -78 l 0 -73 q 38 36 26 -52 l 35 41 q 38 44 35 44 q 35 47 38 47 q 41 77 38 71 q 38 147 38 122 l 38 204 q 30 223 30 214 l 30 231 q 11 239 12 231 l 11 245 q 62 275 24 261 q 228 372 184 360 l 231 367 l 228 353 q 328 397 298 397 m 269 323 l 269 321 q 277 313 269 317 l 282 313 l 285 326 l 285 332 q 269 323 269 329 m 201 294 l 201 283 q 209 275 201 279 q 217 288 213 275 q 209 302 214 302 q 201 294 205 302 m 241 272 l 241 267 q 250 258 241 262 q 260 277 258 258 l 255 280 q 241 272 241 277 m 144 267 l 144 261 l 152 253 q 165 264 164 258 q 155 275 165 268 q 144 267 144 271 m 203 245 l 201 239 l 201 237 l 203 223 l 212 223 q 220 231 214 223 q 203 245 218 245 m 114 242 q 106 237 114 237 q 114 220 108 220 l 127 220 l 127 234 q 114 242 127 240 m 163 237 l 163 220 q 168 215 163 215 l 171 215 q 179 226 175 215 q 168 242 174 242 q 163 237 163 241 m 241 223 l 241 212 l 247 204 q 258 207 252 207 l 258 223 q 250 231 258 227 q 241 223 245 231 m 79 218 l 79 212 q 84 207 79 207 l 98 207 q 100 212 98 212 q 92 223 96 223 l 84 223 q 79 218 79 222 m 198 201 q 214 191 201 191 l 217 191 l 220 204 q 214 210 220 210 l 206 210 q 198 201 202 210 m 144 188 q 155 182 155 186 q 168 193 167 188 l 168 204 l 165 204 q 144 188 144 204 m 106 182 l 106 180 q 114 172 106 176 l 122 172 l 125 185 q 114 199 119 197 q 106 182 106 196 m 76 177 q 84 166 80 166 l 98 169 l 98 180 q 90 188 98 184 q 76 177 85 188 m 263 185 l 258 177 l 258 172 q 269 163 258 168 q 277 166 274 166 l 277 177 q 263 185 277 183 m 233 174 l 233 166 l 247 163 l 252 172 q 250 182 250 176 l 241 182 q 233 174 237 182 m 209 174 q 203 158 209 158 l 190 161 l 184 153 l 184 150 q 198 136 184 146 l 209 153 l 214 150 l 228 153 l 228 158 q 214 174 218 174 l 209 174 m 160 166 l 160 150 q 171 142 160 146 q 176 153 172 153 q 165 172 172 172 q 160 166 160 171 m 136 169 q 127 150 127 161 l 114 150 q 90 128 94 128 l 76 131 l 73 125 l 73 112 q 95 93 83 112 l 106 93 q 109 101 106 96 q 106 120 106 110 q 130 147 130 137 l 144 144 l 149 153 l 149 166 q 136 169 140 166 m 71 161 l 71 139 q 76 134 71 134 l 81 142 q 71 161 78 161 m 233 136 q 239 128 239 136 l 247 128 q 255 139 251 128 l 247 150 q 233 136 239 150 m 266 147 l 266 128 l 260 120 l 271 120 q 277 144 277 138 l 271 147 l 266 147 m 165 136 l 152 120 l 152 112 q 168 104 155 104 l 174 104 l 182 109 q 195 96 182 102 q 198 104 198 101 l 201 104 q 214 93 214 95 l 228 104 q 233 98 229 98 q 239 120 233 110 l 228 120 q 222 112 228 112 l 214 117 q 206 109 206 117 l 201 109 q 179 125 201 124 q 165 136 179 134 m 122 120 l 122 115 l 127 96 q 122 90 122 95 l 122 85 l 130 74 l 136 77 l 138 77 l 138 60 l 152 63 l 152 74 q 138 98 144 74 l 136 98 l 138 112 q 130 125 136 125 l 127 125 q 122 120 122 125 m 152 85 q 165 71 155 73 l 171 82 q 165 101 165 93 q 152 85 155 101 m 73 96 l 73 60 q 87 87 87 66 l 87 96 l 81 93 q 73 96 76 96 m 212 77 l 228 77 l 228 82 q 220 90 228 86 q 212 77 215 90 m 73 52 l 71 28 l 73 28 l 125 52 q 103 82 125 66 q 87 52 94 82 l 73 52 m 190 79 l 190 74 q 198 77 195 77 l 198 79 l 190 79 m 289 754 q 286 760 286 758 l 279 760 q 275 743 279 757 l 139 636 q 169 736 165 714 l 164 736 q 83 686 115 695 l 64 684 q 33 656 51 660 l 32 659 q 36 720 31 667 q 27 736 35 726 q 33 825 26 800 q 30 827 32 828 q 34 905 31 879 l 29 912 l 29 914 q 68 952 40 948 q 146 1011 134 1010 l 151 1012 l 156 1010 l 154 1005 l 155 998 q 160 994 156 994 q 219 1027 166 995 q 298 1075 300 1063 l 304 1076 q 318 1044 314 1077 l 320 1030 q 311 778 313 900 q 302 720 303 753 q 291 697 294 699 l 288 697 q 289 754 286 743 z "},";":{"ha":385,"x_min":0,"x_max":385,"o":"m 366 431 l 374 431 q 385 393 385 431 l 385 377 q 339 87 358 227 q 320 22 326 59 q 304 -3 308 -2 l 301 -3 q 309 62 304 50 q 307 71 307 68 l 298 71 q 255 -27 298 63 q 269 -41 255 -29 q 174 -160 269 -70 q 65 -212 111 -205 q 54 -225 58 -225 l 52 -225 q 81 -149 60 -195 q 87 -133 81 -144 l 84 -127 q 168 60 157 24 l 163 60 q 62 14 100 20 l 41 14 q 0 -14 22 -12 l 0 -11 q 14 60 0 -1 q 5 79 14 66 q 24 182 14 153 q 22 184 24 184 q 38 274 30 244 l 33 282 l 33 285 q 84 323 50 323 q 182 380 169 380 l 187 380 l 193 377 l 190 372 l 190 363 q 195 358 191 358 q 269 388 203 358 q 366 431 366 418 m 301 323 q 309 309 303 309 q 315 315 315 309 l 315 320 l 309 339 q 301 323 301 336 m 220 320 l 217 309 q 231 293 222 295 l 236 301 l 236 304 q 228 320 236 318 l 220 320 m 168 293 q 179 274 168 279 l 184 282 l 184 290 q 176 296 184 296 q 168 293 171 293 m 125 282 l 125 269 l 130 260 q 141 263 135 263 l 141 269 q 130 288 141 283 q 125 282 125 287 m 76 271 l 71 252 l 73 252 q 81 263 81 252 q 79 271 79 269 l 76 271 m 282 263 l 282 260 q 293 241 282 249 q 307 252 305 247 q 298 271 307 259 q 282 263 286 263 m 193 250 l 193 247 q 201 239 193 243 l 209 239 q 214 244 214 239 l 214 258 l 201 258 q 193 250 197 258 m 255 236 q 250 220 250 227 l 250 209 l 263 209 l 266 222 q 255 236 260 235 m 79 228 l 79 203 l 92 203 q 95 212 92 206 q 84 228 90 228 l 79 228 m 144 198 l 144 184 q 152 176 144 180 l 155 176 q 160 182 160 176 l 160 193 q 155 203 155 199 l 149 203 q 144 198 144 203 m 198 203 l 195 190 q 214 179 200 179 l 214 195 q 206 203 214 199 l 198 203 m 114 198 q 111 190 114 195 q 122 179 114 179 q 133 193 133 182 q 117 198 124 198 l 114 198 m 263 184 l 263 179 q 271 171 263 177 q 285 182 283 176 q 274 193 285 186 q 263 184 263 189 m 62 165 l 62 155 q 73 149 66 155 q 84 160 77 149 l 84 168 q 73 174 80 168 l 71 174 q 62 165 66 174 m 95 171 l 92 165 q 100 146 95 146 l 103 146 q 109 152 109 146 l 109 157 q 95 171 109 171 m 233 160 q 225 155 233 155 q 233 138 227 138 l 247 138 l 247 152 q 233 160 247 158 m 282 155 l 282 138 q 288 133 283 133 l 290 133 q 298 144 294 133 q 288 160 293 160 q 282 155 282 159 m 176 146 l 171 138 l 171 125 q 179 117 171 121 l 182 117 q 187 122 187 117 q 176 146 187 143 m 198 136 l 198 130 q 203 125 199 125 l 217 125 q 220 130 217 130 q 212 141 216 141 l 203 141 q 198 136 198 140 m 114 130 l 114 127 q 130 119 117 119 q 138 136 138 119 l 125 138 q 114 130 114 134 m 49 119 l 54 117 l 68 117 l 68 119 q 60 136 68 134 q 49 119 49 130 m 73 122 l 73 106 l 84 106 q 87 117 87 111 l 87 119 q 79 127 87 123 q 73 122 73 127 m 263 106 l 269 103 l 279 103 q 288 111 283 103 l 288 122 l 285 122 q 263 106 263 122 m 225 100 l 225 98 q 233 90 225 94 l 241 90 l 244 103 q 233 117 239 115 q 225 100 225 114 m 160 100 l 160 98 q 165 92 161 92 l 176 92 q 182 98 182 92 l 182 100 q 174 109 182 104 l 168 109 q 160 100 164 109 m 100 95 q 117 84 103 84 l 119 90 l 119 103 q 114 106 114 103 q 100 95 102 100 m 195 92 q 201 84 201 92 l 203 84 l 217 87 l 217 98 q 209 106 217 102 q 195 92 201 106 m 133 100 l 133 92 l 146 92 l 146 95 q 141 100 146 100 l 133 100 m 54 81 l 54 65 l 68 62 q 73 73 70 73 q 62 90 68 90 q 54 81 58 90 m 247 68 l 233 68 q 209 46 214 46 l 206 46 l 201 49 l 201 30 q 214 11 211 11 l 225 11 q 228 19 225 14 q 225 38 225 28 q 252 71 245 50 q 258 87 258 71 q 247 68 249 87 m 98 81 l 95 76 l 95 73 l 98 73 q 103 79 103 73 l 98 81 m 195 14 q 184 -19 195 8 l 190 -22 l 193 -22 q 206 5 206 -16 l 206 14 l 201 11 l 195 14 m 201 -30 q 193 -27 195 -27 q 171 -46 193 -30 q 184 -68 173 -59 l 165 -81 l 163 -81 l 163 -79 q 168 -57 168 -61 q 146 -98 153 -77 q 155 -100 152 -100 l 168 -98 q 171 -100 168 -100 q 195 -71 193 -77 l 190 -62 l 190 -60 l 193 -54 l 198 -57 q 222 -35 216 -50 l 222 0 q 206 -30 213 0 l 201 -30 m 133 -127 l 133 -130 l 136 -130 q 163 -109 136 -123 l 163 -103 q 133 -127 133 -109 m 330 761 q 326 767 327 765 l 319 766 q 315 749 319 764 l 168 643 q 201 743 196 721 l 195 743 q 107 692 142 702 l 88 690 q 53 663 73 667 l 53 665 q 57 726 52 673 q 47 743 56 732 q 54 832 46 806 q 51 834 53 835 q 55 912 52 886 l 50 919 l 50 921 q 92 959 61 955 q 176 1018 163 1017 l 181 1019 l 186 1017 l 184 1012 l 185 1005 q 191 1001 186 1000 q 255 1034 198 1002 q 340 1082 342 1070 l 348 1082 q 362 1051 358 1084 l 364 1037 q 355 785 357 907 q 345 727 346 760 q 333 704 336 705 l 330 704 q 330 761 327 749 z "},"<":{"ha":688,"x_min":0,"x_max":0,"o":""},"=":{"ha":688,"x_min":0,"x_max":0,"o":""},">":{"ha":688,"x_min":0,"x_max":0,"o":""},"?":{"ha":768,"x_min":-5,"x_max":751,"o":"m 140 939 l 45 902 q 38 1147 47 1027 q 41 1152 41 1149 q 40 1169 39 1154 l 30 1333 q 56 1404 52 1399 l 59 1406 q 77 1286 61 1343 l 73 1280 l 76 1280 q 85 1232 78 1249 l 87 1234 q 96 1284 91 1267 q 98 1339 95 1308 l 103 1360 q 100 1361 100 1358 q 118 1394 112 1392 q 208 1241 140 1392 l 210 1242 q 319 1480 309 1451 q 368 1530 336 1511 l 370 1531 q 416 1501 411 1499 q 567 1410 433 1472 l 570 1411 q 565 1495 565 1443 q 568 1501 568 1496 l 571 1502 q 637 1438 603 1489 l 637 1432 q 632 1438 631 1430 l 627 1436 q 641 1415 641 1420 l 644 1417 l 644 1422 q 703 1339 680 1386 q 751 1276 750 1305 q 744 1263 745 1267 l 739 1260 l 739 1268 l 736 1267 q 732 1247 732 1255 l 726 1244 q 709 1286 716 1289 q 714 1154 719 1201 q 710 1145 711 1147 l 707 1055 q 703 1050 703 1053 l 705 1036 l 704 1027 l 699 1013 q 702 1011 702 1014 l 698 996 q 700 989 697 994 l 696 983 q 703 962 703 969 l 701 943 l 706 945 l 707 954 q 718 1005 711 989 l 715 1004 l 728 1050 l 730 1069 l 735 1072 q 736 1026 734 1064 q 724 935 727 965 q 720 926 724 932 l 723 927 l 718 907 l 706 790 l 701 770 q 711 764 709 763 q 708 755 711 761 q 713 731 707 747 q 711 727 711 730 l 699 725 q 599 799 616 788 q 560 821 559 817 l 555 819 q 566 777 559 812 l 563 770 l 557 771 q 569 749 557 765 q 563 739 568 741 l 557 736 q 376 854 376 850 q 372 840 376 845 q 376 825 377 833 l 373 819 l 377 785 l 377 782 l 374 775 q 378 718 381 741 l 385 720 q 380 711 384 718 q 381 612 382 626 l 376 610 q 366 653 378 638 q 354 741 361 744 q 342 658 344 670 q 339 649 342 655 l 342 650 l 336 616 l 330 568 q 333 517 329 556 l 60 422 l 60 493 l 66 532 q 62 676 61 663 q 73 701 64 696 l 76 703 l 84 701 q 113 661 108 660 q 122 868 132 846 l 267 1057 q 450 1021 336 1058 q 454 1107 454 1059 q 457 1112 457 1109 q 456 1124 454 1110 q 403 1164 457 1133 l 342 1202 l 336 1197 q 140 939 304 1141 m 677 1369 l 676 1366 q 686 1354 681 1352 l 686 1357 q 680 1370 679 1364 l 677 1369 m 739 1286 l 738 1281 l 741 1282 l 741 1287 l 739 1286 m 162 747 l 155 734 l 157 724 l 168 729 q 174 736 173 731 l 175 745 q 162 747 176 749 m 601 924 q 585 907 589 919 q 591 904 590 909 q 608 920 605 910 l 609 925 q 601 924 606 924 m 703 937 l 701 928 l 705 929 l 705 937 l 703 937 m 282 676 l 279 675 q 273 667 273 673 l 272 656 q 277 654 271 651 l 288 659 l 289 664 q 282 676 290 677 m 138 522 l 136 521 q 129 507 136 517 l 128 502 q 136 497 132 496 l 144 522 l 138 522 m 277 553 q 265 540 265 543 l 264 534 q 270 531 264 529 l 278 534 q 285 543 283 537 l 286 553 q 277 553 283 552 m 330 418 l 330 416 q 321 378 328 412 q 322 310 325 348 q 282 90 315 207 l 274 85 l 269 85 q 258 109 262 85 l 256 109 l 246 85 q 248 74 249 80 l 248 71 q 232 55 248 67 l 220 66 q 192 52 203 66 l 180 55 q 22 -43 129 43 l -3 -56 l -5 -51 q 37 58 20 -30 l 35 63 q 38 66 35 66 q 35 68 38 68 q 43 98 39 93 q 45 169 43 144 l 49 226 q 43 245 42 236 l 43 253 q 26 261 27 253 l 26 267 q 76 296 39 283 q 235 394 194 382 l 237 389 l 234 375 q 330 418 302 418 m 269 345 l 269 342 q 276 334 269 338 l 281 334 l 285 348 l 285 353 q 269 345 270 351 m 205 315 l 204 304 q 211 296 204 300 q 220 310 215 296 q 213 323 218 323 q 205 315 210 323 m 241 294 l 241 288 q 248 280 240 284 q 259 299 255 280 l 254 302 q 241 294 241 298 m 151 288 l 150 283 l 157 275 q 170 286 169 280 q 161 296 171 290 q 151 288 151 292 m 204 267 l 201 261 l 201 258 l 203 245 l 210 245 q 218 253 212 245 q 204 267 218 267 m 121 264 q 113 258 121 258 q 120 242 114 242 l 132 242 l 134 256 q 121 264 134 262 m 166 258 l 165 242 q 170 237 165 237 l 172 237 q 180 248 176 237 q 172 264 176 264 q 166 258 166 263 m 237 245 l 237 234 l 241 226 q 252 229 245 229 l 252 245 q 245 253 253 249 q 237 245 242 253 m 87 239 l 87 234 q 92 229 87 229 l 104 229 q 106 234 104 234 q 100 245 104 245 l 92 245 q 87 239 87 244 m 196 223 q 210 212 198 212 l 213 212 l 216 226 q 212 231 216 231 l 204 231 q 196 223 200 231 m 145 210 q 155 204 155 208 q 168 215 166 210 l 169 226 l 166 226 q 145 210 146 226 m 110 204 l 110 201 q 117 193 109 197 l 124 193 l 127 207 q 119 220 123 219 q 110 204 111 218 m 82 199 q 89 188 85 188 l 101 191 l 102 201 q 95 210 102 205 q 82 199 92 210 m 255 207 l 250 199 l 249 193 q 258 185 249 189 q 266 188 264 188 l 267 199 q 255 207 267 205 m 227 196 l 226 188 l 239 185 l 244 193 q 242 204 242 198 l 235 204 q 227 196 231 204 m 204 196 q 198 180 203 180 l 186 182 l 180 174 l 180 172 q 191 158 180 168 l 203 174 l 208 172 l 220 174 l 220 180 q 209 196 212 196 l 204 196 m 159 188 l 157 172 q 167 163 157 168 q 173 174 168 174 q 164 193 170 193 q 159 188 159 193 m 136 191 q 127 172 128 182 l 115 172 q 91 150 96 150 l 79 153 l 76 147 l 75 134 q 94 115 84 134 l 104 115 q 106 123 104 117 q 105 142 104 132 q 130 169 129 159 l 142 166 l 148 174 l 149 188 q 136 191 140 188 m 76 182 l 74 161 q 79 155 75 155 l 84 163 q 76 182 83 182 m 224 158 q 229 150 229 158 l 236 150 q 244 161 239 150 l 237 172 q 224 158 231 172 m 255 169 l 254 150 l 248 142 l 258 142 q 264 166 264 159 l 260 169 l 255 169 m 161 158 l 148 142 l 147 134 q 162 125 149 125 l 167 125 l 175 131 q 186 117 174 123 q 189 125 189 123 l 192 125 q 203 115 203 117 l 217 125 q 221 120 217 120 q 228 142 222 132 l 218 142 q 212 134 217 134 l 205 139 q 197 131 198 139 l 192 131 q 174 147 193 146 q 161 158 174 155 m 121 142 l 120 136 l 123 117 q 119 112 119 117 l 118 106 l 125 96 l 130 98 l 132 98 l 132 82 l 144 85 l 144 96 q 134 120 138 96 l 132 120 l 135 134 q 128 147 134 147 l 125 147 q 121 142 121 146 m 145 106 q 157 93 147 95 l 163 104 q 159 123 159 115 q 145 106 149 123 m 74 117 l 71 82 q 85 109 84 88 l 86 117 l 81 115 q 74 117 76 117 m 200 98 l 215 98 l 215 104 q 208 112 216 108 q 200 98 204 112 m 71 74 l 66 50 l 69 50 l 118 74 q 100 104 119 88 q 83 74 92 104 l 71 74 m 180 101 l 180 96 q 187 98 185 98 l 188 101 l 180 101 z "},"@":{"ha":1369,"x_min":0,"x_max":0,"o":""},"A":{"ha":873,"x_min":0,"x_max":873,"o":"m 144 1508 q 274 1426 193 1508 q 442 1459 421 1459 q 472 1451 472 1456 l 472 1445 q 429 1426 446 1426 l 429 1421 l 515 1410 l 654 1453 q 659 1461 654 1461 q 662 1459 662 1461 l 675 1467 q 716 1440 705 1452 q 738 1364 727 1425 q 713 1307 729 1326 q 716 1304 713 1304 l 713 1285 l 713 1266 q 719 1255 719 1259 q 716 1187 719 1240 q 705 1149 711 1187 q 700 1144 700 1149 l 700 1136 q 811 810 811 819 q 806 805 806 810 l 806 762 l 803 762 q 795 772 796 762 q 787 770 789 770 q 789 748 789 751 q 787 726 789 741 q 789 699 789 712 q 781 680 785 699 q 784 677 781 677 q 776 618 781 636 l 776 566 q 811 366 795 420 q 825 319 817 366 l 822 306 l 827 309 l 830 303 l 825 303 q 871 86 871 109 q 868 81 868 86 l 863 81 q 822 216 849 115 l 817 219 l 817 216 q 836 83 821 208 q 860 -39 841 43 q 857 -50 857 -43 q 868 -63 857 -60 l 865 -68 l 865 -77 q 873 -112 865 -83 l 868 -115 l 871 -120 q 865 -125 871 -125 q 860 -115 860 -119 l 854 -117 l 849 -109 q 852 -106 849 -106 l 849 -101 q 852 -93 852 -96 l 849 -93 q 738 -112 806 -106 q 735 -117 738 -117 l 738 -123 q 681 -161 696 -161 q 551 -207 592 -196 q 534 -185 551 -201 q 545 -172 534 -184 l 545 -60 l 543 -60 l 540 -71 l 537 -71 l 532 -68 q 513 -128 520 -128 q 505 -123 513 -123 q 532 56 518 1 l 529 62 q 559 203 551 189 l 556 208 q 570 243 570 229 l 570 246 q 529 452 538 452 l 529 455 q 293 417 302 417 q 250 192 260 228 q 252 121 252 166 l 255 121 l 255 132 l 260 132 l 260 81 l 255 81 l 255 75 q 263 70 263 75 l 263 10 q 266 -14 263 1 q 263 -22 263 -20 q 266 -41 266 -33 l 260 -41 l 260 -36 l 258 -36 l 258 -39 l 263 -63 q 258 -66 258 -63 q 263 -79 263 -75 q 260 -87 260 -85 l 258 -87 q 244 -63 253 -87 q 214 -3 240 -63 q 141 35 180 -3 q 174 -14 141 17 q 176 -25 174 -20 l 174 -25 q 165 -22 168 -22 l 168 -28 q 165 -31 165 -28 q 65 108 105 4 l 60 108 q 52 92 60 92 q 43 127 43 92 q 35 105 37 127 l 30 105 l 24 108 l 27 121 l 24 135 q 30 151 30 144 l 30 162 l 27 162 q 11 135 27 150 l 5 135 q 0 143 0 135 q 27 447 22 408 q 30 450 30 447 l 30 474 q 35 479 31 479 l 38 479 l 38 466 q 54 412 54 444 l 57 412 q 60 428 57 424 q 57 431 60 431 q 106 748 79 631 q 109 775 109 758 l 109 778 l 106 778 q 35 653 46 653 l 30 653 q 27 661 30 656 q 33 683 27 666 q 30 694 30 688 q 100 851 47 750 q 149 965 149 962 q 198 1136 177 1047 l 217 1234 l 217 1236 q 193 1301 199 1293 q 157 1385 161 1351 l 163 1388 q 187 1337 172 1388 l 190 1337 q 157 1456 190 1361 q 144 1508 144 1496 m 458 1011 q 429 884 429 951 l 429 867 q 434 846 429 859 q 401 759 421 789 q 355 634 385 722 l 358 634 q 442 694 392 652 l 456 694 q 464 683 460 694 l 469 686 l 499 686 l 526 683 q 513 767 524 767 q 515 775 513 770 q 499 881 499 873 l 496 881 l 494 867 l 488 867 l 488 916 l 486 916 q 475 873 486 909 l 469 873 l 469 876 l 472 889 l 472 895 l 469 895 l 467 876 l 461 876 l 461 1011 l 458 1011 m 458 862 l 464 862 l 464 854 l 458 854 l 458 862 m 111 791 l 111 783 l 114 783 l 114 791 l 111 791 m 220 661 l 220 653 q 228 645 220 649 l 233 653 l 233 661 q 228 667 233 667 l 225 667 q 220 661 220 666 m 656 615 l 656 610 l 667 610 q 673 615 673 610 l 673 626 q 667 631 673 631 l 665 631 q 656 615 656 629 m 477 591 l 475 577 q 488 572 484 572 l 494 580 l 494 588 l 480 591 l 477 591 m 133 561 q 144 550 136 552 q 152 553 149 553 l 152 564 q 146 569 152 569 l 144 569 l 133 561 m 250 550 q 255 545 250 545 l 263 545 q 269 550 269 545 l 269 558 l 258 558 q 250 550 254 558 m 328 528 l 328 515 q 336 512 336 515 q 345 515 342 515 l 345 523 l 342 536 l 336 536 q 328 528 332 536 m 551 509 q 548 501 551 507 l 551 488 l 562 488 l 564 507 l 559 509 l 551 509 m 648 501 l 648 490 q 654 485 649 485 l 662 485 q 667 490 667 485 l 667 496 q 656 504 667 498 q 648 501 651 501 m 171 493 l 171 488 q 179 482 171 482 q 187 485 184 485 l 187 493 q 179 501 187 497 q 171 493 175 501 m 301 477 q 296 466 301 473 l 296 460 q 304 458 304 460 q 312 460 309 460 l 312 471 q 301 477 308 471 m 195 412 l 195 406 q 201 401 196 401 l 203 401 q 212 409 208 401 l 212 414 q 206 420 212 420 l 203 420 q 195 412 199 420 m 697 414 l 697 404 q 703 398 698 398 q 711 406 707 398 l 708 420 l 703 420 q 697 414 697 419 m 127 406 q 122 390 122 397 l 122 382 q 127 376 123 376 l 130 376 q 136 382 136 376 l 136 390 q 127 406 136 404 m 600 355 l 597 336 l 608 328 l 613 336 q 602 355 610 355 l 600 355 m 667 352 l 662 344 l 662 341 q 678 333 665 333 l 681 347 q 667 352 672 352 m 193 328 l 206 319 l 212 328 l 212 330 q 203 347 212 345 l 201 347 q 193 328 195 347 m 52 336 l 52 317 l 60 317 q 68 328 68 317 q 57 341 62 340 q 52 336 52 340 m 697 300 l 697 298 q 703 292 698 292 l 711 292 l 711 298 l 708 317 l 705 317 q 697 300 697 314 m 187 303 l 187 290 l 195 290 q 201 295 201 290 l 201 298 l 195 306 q 187 303 190 303 m 654 292 l 654 281 q 662 273 654 277 q 670 284 670 273 q 667 292 667 290 l 654 292 m 73 279 l 73 271 q 79 265 74 265 l 84 265 q 90 271 90 265 l 90 279 q 81 287 90 283 q 73 279 77 287 m 130 279 l 130 265 q 136 260 131 260 l 138 260 q 144 265 144 260 l 144 276 q 136 284 144 280 q 130 279 130 283 m 602 260 l 602 235 l 608 235 l 610 249 l 610 252 q 602 260 610 256 m 697 254 l 694 249 l 694 241 q 700 235 695 235 l 711 235 l 711 252 l 697 254 m 730 233 l 730 230 q 735 224 730 224 l 749 224 l 751 238 l 751 243 q 746 246 746 243 q 730 233 735 243 m 176 238 l 176 233 l 179 219 l 184 219 q 193 227 186 219 q 182 243 187 243 q 176 238 176 243 m 665 222 l 665 211 l 678 208 l 681 214 l 681 227 l 670 227 q 665 222 665 227 m 43 224 l 43 211 q 49 216 49 211 l 49 219 q 43 224 49 224 m 109 203 l 109 200 q 122 186 109 186 q 125 197 125 191 q 117 208 121 208 l 114 208 q 109 203 109 208 m 773 200 l 773 195 q 781 186 773 191 l 784 186 l 784 205 l 779 205 q 773 200 773 205 m 144 197 l 144 186 q 155 184 150 186 q 163 186 160 186 l 163 203 l 149 203 q 144 197 144 202 m 179 189 q 176 181 179 186 q 184 165 179 165 q 193 168 190 168 l 193 181 q 184 189 193 185 l 179 189 m 727 186 l 727 176 q 735 168 727 174 q 746 178 746 170 q 735 189 743 189 q 727 186 730 186 m 68 186 l 65 173 q 73 162 69 162 l 79 162 l 81 173 q 71 186 76 185 l 68 186 m 624 186 l 618 168 l 627 162 l 629 162 q 635 168 635 162 l 635 186 l 624 186 m 662 170 l 662 165 q 667 159 663 159 l 681 159 l 681 173 q 673 178 681 178 q 662 170 662 174 m 768 173 q 751 154 751 155 l 751 151 q 757 146 752 146 l 762 146 q 773 170 773 149 l 768 173 m 127 170 l 122 162 l 122 146 l 133 143 l 138 154 q 127 170 133 170 m 697 170 l 694 157 l 694 151 q 703 143 694 147 q 708 149 708 143 l 708 165 q 703 170 708 170 l 697 170 m 206 154 l 206 149 q 214 140 206 144 l 217 140 l 217 162 l 214 162 q 206 154 210 162 m 152 146 q 146 135 152 135 q 157 121 152 123 q 165 130 161 121 l 165 132 l 163 146 l 152 146 m 193 146 l 190 132 l 193 121 l 198 121 q 206 130 202 121 q 193 146 201 144 m 87 143 l 87 140 l 95 140 l 95 143 l 87 143 m 581 140 l 581 130 l 583 130 l 583 140 l 581 140 m 651 119 q 656 113 652 113 q 667 116 661 116 l 667 135 q 651 119 651 135 m 716 132 q 711 121 716 128 l 711 116 q 724 108 711 111 q 730 127 730 125 l 722 132 l 716 132 m 122 119 q 130 102 125 102 l 138 102 l 138 111 q 133 127 138 118 q 122 119 122 123 m 629 121 q 624 105 624 113 l 624 94 l 635 94 q 640 111 640 103 l 629 121 m 787 121 q 779 108 787 117 l 779 102 q 787 97 779 97 q 795 100 792 100 l 795 116 q 789 121 795 121 l 787 121 m 252 113 l 252 108 l 255 108 l 255 113 l 252 113 m 743 113 q 732 100 732 101 q 741 83 735 83 l 749 83 l 751 102 l 751 105 q 743 113 751 109 m 589 108 l 583 100 l 583 94 q 594 86 583 90 q 602 89 600 89 l 602 100 q 589 108 602 106 m 179 105 l 179 97 q 190 78 179 83 q 198 86 194 78 q 190 105 190 100 l 179 105 m 575 97 l 575 92 l 578 92 l 578 97 l 575 97 m 133 94 l 127 86 l 127 81 q 138 70 127 77 l 149 70 l 146 75 q 149 83 149 81 q 133 94 146 94 m 711 94 l 705 86 l 705 78 q 713 70 705 74 q 722 73 719 73 l 722 92 l 711 94 m 675 75 l 678 64 l 686 64 q 692 70 692 64 l 692 86 q 686 92 692 92 l 684 92 q 675 75 675 89 m 629 86 l 624 78 l 624 70 q 640 64 624 64 q 643 75 643 69 q 629 86 640 86 m 773 73 l 773 62 l 787 59 q 792 73 792 68 q 789 81 789 78 q 773 73 773 79 m 171 75 l 168 70 q 176 67 171 70 l 176 70 q 171 75 176 75 m 570 73 l 567 54 l 567 51 l 572 51 q 581 62 576 51 q 570 73 578 70 m 738 64 l 738 59 q 754 54 738 54 q 757 64 757 58 q 749 73 757 68 l 746 73 q 738 64 742 73 m 591 70 l 591 51 q 578 37 591 47 q 600 10 578 33 q 610 18 610 14 l 610 21 q 597 40 610 32 l 597 43 l 608 54 q 591 70 608 70 m 656 70 q 635 54 656 65 l 635 51 l 637 45 q 627 29 627 43 l 627 21 q 632 16 627 16 l 640 16 l 643 29 q 640 37 640 35 q 659 48 656 48 l 667 48 l 670 54 q 656 70 667 65 m 209 56 l 209 37 q 220 35 215 37 l 222 40 l 222 51 q 217 62 217 58 l 214 62 q 209 56 209 61 m 800 59 l 800 48 l 803 48 l 803 59 l 800 59 m 675 32 l 675 26 l 678 26 q 716 43 716 34 q 708 56 713 56 l 705 56 q 678 45 695 49 l 675 32 m 754 48 q 776 29 754 29 q 784 21 776 25 q 795 32 788 21 q 792 40 792 37 l 789 40 l 776 37 q 773 51 773 42 l 768 51 l 754 48 m 564 43 q 559 7 564 16 q 572 -6 559 4 q 562 -28 562 -18 q 578 -33 578 -28 l 578 -139 q 591 -147 583 -139 l 594 -147 q 610 -134 609 -147 q 618 -136 616 -136 q 640 -131 627 -136 l 637 -125 l 637 -115 l 640 -115 q 648 -123 644 -115 l 646 -128 l 648 -128 q 700 -98 658 -128 l 703 -98 l 703 -90 l 697 -93 l 692 -93 l 692 -85 q 711 -71 704 -85 l 713 -71 l 722 -77 l 727 -77 q 722 -71 727 -71 q 730 -47 725 -47 q 738 -68 738 -48 q 735 -77 735 -74 q 765 -55 765 -72 q 784 -58 776 -58 l 784 -60 l 770 -71 l 773 -71 q 814 -50 801 -71 l 817 -50 l 822 -52 l 822 -44 q 803 -25 822 -39 l 803 -14 q 814 -3 803 -12 q 803 29 807 29 q 795 18 796 29 l 798 5 l 789 5 l 789 10 l 781 10 l 751 -6 q 746 -14 751 -14 l 743 -14 q 738 7 738 3 l 732 5 q 724 18 726 5 l 719 18 l 705 16 q 700 21 705 21 l 694 21 q 686 13 690 21 l 686 7 q 703 -1 689 -1 q 711 2 708 2 l 722 -9 l 719 -14 q 722 -22 722 -20 l 716 -22 q 703 -6 716 -6 q 694 -9 697 -9 q 686 -1 694 -5 q 670 -14 675 -4 q 648 5 648 -5 l 643 2 l 637 5 q 629 -3 637 1 q 616 2 621 2 q 608 -6 616 -2 q 591 10 595 10 q 581 -1 591 6 q 578 2 581 2 l 581 7 l 581 10 q 567 43 567 20 l 564 43 m 719 37 q 743 7 719 26 l 749 7 q 754 13 754 7 l 754 24 l 738 35 l 738 43 l 724 43 q 719 37 719 42 m 648 18 q 659 5 654 6 q 673 16 673 7 q 662 29 667 28 q 648 18 650 24 m 792 -9 l 795 -14 q 751 -39 761 -39 l 746 -36 l 749 -31 l 749 -17 l 770 -22 q 792 -9 770 -12 m 632 -14 q 646 -22 646 -18 q 629 -44 642 -22 l 632 -50 q 629 -52 632 -52 l 632 -58 q 624 -71 624 -66 l 610 -68 l 608 -68 q 597 -87 604 -87 q 591 -68 591 -74 q 608 -58 599 -68 l 618 -66 q 627 -58 623 -66 l 627 -47 q 616 -39 627 -40 l 616 -31 q 632 -14 616 -26 m 589 -20 l 597 -20 q 602 -25 602 -20 l 602 -28 q 597 -33 602 -33 l 591 -33 l 589 -20 m 697 -22 l 700 -28 l 700 -31 q 694 -36 700 -36 q 692 -33 692 -36 q 670 -41 677 -37 q 659 -39 665 -39 q 697 -22 659 -34 m 792 -47 l 795 -52 l 789 -55 l 787 -55 l 787 -52 q 792 -47 787 -47 m 646 -55 l 651 -55 l 651 -60 l 662 -60 q 673 -58 668 -60 l 678 -60 q 700 -58 693 -58 l 700 -63 q 684 -71 684 -64 l 684 -79 l 686 -85 l 681 -87 l 678 -87 q 654 -66 667 -66 l 648 -66 q 643 -82 643 -80 l 637 -82 l 640 -77 q 637 -66 637 -72 q 646 -55 646 -66 m 667 -96 q 673 -109 673 -104 q 662 -98 669 -109 l 667 -96 m 586 -101 l 591 -101 l 591 -115 l 586 -115 q 581 -109 581 -115 l 581 -106 q 586 -101 581 -101 m 610 -112 q 616 -117 616 -113 l 610 -120 q 605 -115 605 -120 l 610 -112 m 578 -153 l 578 -155 l 581 -155 q 589 -153 586 -153 l 589 -150 l 586 -150 q 578 -153 581 -153 z "},"B":{"ha":726,"x_min":11,"x_max":720,"o":"m 255 1336 l 271 1333 l 309 1333 q 331 1325 330 1333 l 326 1317 l 326 1314 q 583 1222 583 1242 l 583 1217 q 581 1214 581 1217 l 575 1217 q 562 1208 562 1213 q 659 1078 583 1176 q 667 1051 667 1067 l 662 1048 l 656 1051 l 610 967 q 624 964 619 967 q 618 935 618 938 l 621 935 l 627 937 l 629 932 l 629 926 q 610 899 629 914 q 549 774 610 873 q 463 664 502 708 q 610 538 519 623 l 610 536 l 602 541 l 600 541 q 608 536 600 536 l 608 530 l 605 530 q 540 555 547 555 q 616 481 540 550 q 708 419 693 432 l 708 416 q 689 411 698 411 q 701 360 692 380 q 709 363 707 363 q 720 349 709 361 q 715 287 715 313 q 632 115 703 278 q 581 47 615 64 q 488 -23 507 -1 l 502 -20 q 513 -39 513 -24 q 496 -47 513 -43 q 269 -140 496 -73 q 182 -159 232 -145 q 174 -156 176 -156 q 138 -170 141 -170 l 136 -164 q 146 -161 140 -161 l 146 -156 l 141 -159 l 138 -159 l 138 -151 l 141 -151 l 146 -153 l 146 -151 q 141 -145 146 -145 l 138 -145 q 130 -159 132 -145 l 127 -159 l 127 -148 q 100 -156 106 -151 l 95 -153 q 38 -172 58 -162 l 35 -172 q 27 -164 31 -172 q 46 -134 27 -150 l 46 -132 q 38 -129 38 -132 q 54 -1 54 -9 q 52 15 52 13 l 54 20 l 52 37 l 52 39 q 54 42 52 42 l 52 47 l 52 102 q 49 248 52 155 q 46 256 46 254 l 43 256 q 41 237 41 245 l 35 237 q 41 267 38 263 l 41 270 l 38 270 q 16 202 20 202 l 14 202 q 11 210 14 210 q 35 340 11 221 l 35 354 q 79 481 45 360 q 76 484 79 484 l 79 498 l 79 503 l 73 511 q 76 528 73 513 q 73 544 76 530 q 76 552 76 549 l 71 552 l 71 571 l 76 571 l 76 576 l 71 576 q 73 617 73 610 q 65 707 68 635 l 68 707 l 65 712 l 65 723 l 62 755 l 65 755 l 62 761 l 62 842 l 57 850 l 57 899 l 60 916 q 57 929 57 920 l 57 937 q 62 959 57 940 l 62 981 l 68 981 l 68 978 q 73 937 68 967 l 76 937 l 79 948 l 84 948 l 81 921 l 81 856 l 84 837 l 87 837 q 103 932 95 932 l 103 929 q 106 864 106 880 l 109 864 q 111 910 109 878 q 109 913 111 913 q 114 994 114 943 l 117 994 l 114 1000 l 119 1046 l 117 1051 q 119 1054 117 1054 l 117 1073 q 122 1149 117 1118 l 117 1146 l 114 1146 q 46 1287 89 1194 q 30 1306 39 1287 l 30 1309 q 76 1331 30 1321 q 79 1328 79 1331 q 127 1333 115 1333 q 168 1331 161 1331 q 198 1333 186 1333 l 198 1331 l 203 1333 l 220 1333 q 222 1331 222 1333 l 255 1336 m 353 1076 q 320 878 320 908 q 407 932 407 907 q 456 1029 415 939 l 453 1029 q 353 1076 422 1039 m 100 978 l 106 978 l 106 951 q 103 948 106 948 l 106 943 l 106 937 l 100 937 l 100 978 m 117 799 l 117 793 l 119 793 l 119 799 l 117 799 m 146 718 l 146 712 q 163 704 149 704 q 168 709 163 709 q 155 720 165 720 q 146 718 149 718 m 149 612 l 144 604 l 144 601 q 149 595 144 595 l 160 595 l 160 609 l 149 612 m 439 587 l 439 582 l 448 582 l 448 587 l 439 587 m 260 563 l 258 549 q 271 544 267 544 l 277 552 l 277 560 l 263 563 l 260 563 m 111 500 l 111 487 q 119 484 119 487 q 127 487 125 487 l 127 495 l 125 509 l 119 509 q 111 500 115 509 m 334 481 q 331 473 334 479 l 334 460 l 345 460 l 347 479 l 342 481 l 334 481 m 431 473 l 431 463 q 437 457 432 457 l 445 457 q 450 463 450 457 l 450 468 q 439 476 450 471 q 431 473 434 473 m 203 430 l 201 416 l 201 414 l 206 414 l 220 416 l 220 425 q 214 430 220 430 l 203 430 m 551 406 q 553 397 553 400 l 562 397 q 567 403 567 397 l 567 408 q 562 414 567 414 l 559 414 q 551 406 555 414 m 480 387 l 480 384 q 491 373 480 380 l 494 378 l 491 392 l 486 392 q 480 387 480 391 m 326 376 l 328 365 q 317 294 328 351 q 320 292 317 292 q 304 161 309 192 l 307 161 q 382 202 382 178 q 494 305 456 276 q 442 357 487 305 q 412 335 417 335 q 331 378 389 335 l 326 376 m 109 362 l 109 359 l 122 357 l 127 365 l 127 368 q 122 373 127 373 l 119 373 q 109 362 115 373 m 274 368 l 269 359 l 269 357 q 277 349 269 353 l 282 349 q 288 354 288 349 l 288 365 l 274 368 m 591 357 l 591 354 q 597 349 592 349 l 602 349 l 613 359 q 610 368 610 365 q 591 357 591 361 m 160 346 l 160 335 q 168 327 160 331 q 174 335 174 327 q 165 351 171 351 q 160 346 160 351 m 73 302 l 73 292 q 81 283 73 288 l 81 286 q 73 302 81 300 m 209 297 l 206 286 q 220 270 212 272 l 225 278 l 225 281 q 217 297 225 295 l 209 297 m 570 283 l 570 275 l 583 275 q 591 294 589 275 l 586 297 q 570 283 575 294 m 654 289 q 673 278 656 278 l 675 283 l 675 289 q 667 297 675 293 q 654 289 664 297 m 157 270 q 168 251 157 256 l 174 259 l 174 267 q 165 273 174 273 q 157 270 160 270 m 114 259 l 114 245 l 119 237 q 130 240 124 240 l 130 245 q 119 264 130 260 q 114 259 114 264 m 271 240 l 271 237 l 274 224 l 277 224 l 277 240 l 271 240 m 182 227 l 182 224 q 190 216 182 220 l 198 216 q 203 221 203 216 l 203 235 l 190 235 q 182 227 186 235 m 589 218 l 589 210 l 600 208 l 605 216 l 605 224 q 600 229 605 229 q 589 218 595 229 m 480 227 l 477 221 l 477 213 q 483 208 478 208 l 494 208 l 494 224 l 480 227 m 513 205 l 513 202 q 518 197 513 197 l 532 197 l 534 210 l 534 216 q 529 218 529 216 q 513 205 518 215 m 244 213 q 239 197 239 204 l 239 186 l 252 186 l 255 199 q 244 213 250 212 m 448 194 l 448 183 l 461 180 l 464 186 l 464 199 l 453 199 q 448 194 448 199 m 133 175 l 133 161 q 141 153 133 157 l 144 153 q 149 159 149 153 l 149 170 q 144 180 144 176 l 138 180 q 133 175 133 180 m 187 180 l 184 167 q 203 156 189 156 l 203 172 q 195 180 203 176 l 187 180 m 556 172 l 556 167 q 564 159 556 163 l 572 159 l 575 170 l 564 178 l 562 178 q 556 172 556 177 m 103 175 q 100 167 103 172 q 111 156 103 156 q 122 170 122 159 q 106 175 113 175 l 103 175 m 252 161 l 252 156 l 260 148 q 271 156 271 152 l 271 161 q 263 170 271 165 q 252 161 252 165 m 510 159 l 510 148 q 518 140 510 146 q 529 151 529 142 q 518 161 526 161 q 510 159 513 159 m 407 159 l 401 140 l 410 134 l 412 134 q 418 140 418 134 l 418 159 l 407 159 m 84 151 l 84 129 q 90 123 85 123 l 92 123 q 98 129 98 123 l 98 134 q 84 151 98 151 m 445 142 l 445 137 q 450 132 446 132 l 464 132 l 464 145 q 456 151 464 151 q 445 142 445 146 m 586 134 q 589 126 589 129 l 591 126 q 600 151 600 146 l 597 151 q 586 134 586 145 m 551 145 q 534 126 551 144 l 534 123 q 540 118 535 118 l 545 118 q 556 142 556 121 l 551 145 m 480 142 l 477 129 l 477 123 q 486 115 477 119 q 491 121 491 115 l 491 137 q 486 142 491 142 l 480 142 m 222 137 q 214 132 222 132 q 222 115 216 115 l 236 115 l 236 129 q 222 137 236 135 m 271 129 l 271 115 q 277 110 272 110 l 279 110 q 288 121 283 110 q 285 129 285 126 l 271 129 m 309 129 l 309 126 q 312 118 312 121 l 320 118 q 328 129 324 118 l 309 129 m 350 118 l 350 107 l 355 99 q 366 102 360 102 l 366 118 q 358 126 366 122 q 350 118 354 126 m 165 123 l 160 115 l 160 102 q 168 94 160 98 l 171 94 q 176 99 176 94 q 165 123 176 120 m 187 113 l 187 107 q 193 102 188 102 l 206 102 q 209 107 206 107 q 201 118 205 118 l 193 118 q 187 113 187 117 m 103 107 l 103 104 q 119 96 106 96 q 127 113 127 96 l 114 115 q 103 107 103 111 m 434 91 q 439 85 435 85 q 450 88 444 88 l 450 107 q 434 91 434 107 m 307 96 q 323 85 309 85 l 326 85 l 328 99 q 323 104 328 104 l 315 104 q 307 96 311 104 m 499 104 q 494 94 499 100 l 494 88 q 507 80 494 83 l 513 99 l 505 104 l 499 104 m 252 83 q 263 77 263 81 q 277 88 275 83 l 277 99 l 274 99 q 252 83 252 99 m 214 77 l 214 75 q 222 66 214 71 l 231 66 l 233 80 q 222 94 228 92 q 214 77 214 91 m 412 94 q 407 77 407 85 l 407 66 l 418 66 q 423 83 423 75 l 412 94 m 149 77 l 149 75 l 157 64 q 171 80 171 66 l 163 85 l 157 85 q 149 77 153 85 m 526 85 q 515 69 515 75 q 518 61 518 64 q 534 69 531 69 l 534 77 q 526 85 534 81 m 90 72 q 106 61 92 61 l 109 66 l 109 80 q 103 83 103 80 q 90 72 91 77 m 184 72 q 193 61 189 61 l 206 64 l 206 75 q 198 83 206 79 q 184 72 194 83 m 372 80 l 366 72 l 366 66 q 377 58 366 62 q 385 61 382 61 l 385 72 q 372 80 385 78 m 122 77 l 122 56 q 127 50 123 50 l 130 50 q 138 61 138 50 q 130 77 136 77 l 122 77 m 342 69 l 342 61 l 355 58 l 361 66 q 358 77 358 71 l 350 77 q 342 69 346 77 m 317 69 q 312 53 317 53 l 298 56 l 293 47 l 293 45 q 307 31 293 41 l 317 47 l 323 45 l 336 47 l 336 53 q 323 69 326 69 l 317 69 m 269 61 l 269 45 q 279 37 269 41 q 285 47 280 47 q 274 66 280 66 q 269 61 269 66 m 494 66 l 488 58 l 488 50 l 494 42 q 505 50 505 46 l 505 64 l 494 66 m 244 64 q 236 45 236 56 l 222 45 q 198 23 203 23 l 184 26 l 179 18 l 179 12 q 203 -12 193 3 l 214 -12 q 217 -4 214 -9 q 214 15 214 5 q 239 42 239 32 l 252 39 l 258 47 l 258 61 q 244 64 249 61 m 458 47 l 461 37 l 469 37 q 475 42 475 37 l 475 58 q 469 64 475 64 l 467 64 q 458 47 458 61 m 87 58 l 87 31 l 92 31 q 100 39 96 31 q 87 58 94 58 m 412 58 l 407 50 l 407 42 q 423 37 407 37 q 426 47 426 41 q 412 58 423 58 m 174 56 q 155 31 174 35 q 152 28 155 28 l 155 23 l 155 20 l 141 -4 l 136 -4 l 117 -1 q 111 -9 114 -9 q 125 -28 115 -26 l 127 -28 l 136 -23 l 138 -23 l 144 -26 q 163 -9 144 -21 l 168 -1 l 160 15 q 190 37 178 24 q 179 56 186 56 l 174 56 m 342 31 q 347 23 347 31 l 355 23 q 363 34 359 23 l 355 45 q 342 31 348 45 m 374 42 l 374 23 q 361 9 374 20 q 382 -18 361 5 q 393 -9 393 -14 l 393 -7 q 380 12 393 4 l 380 15 l 391 26 q 374 42 391 42 m 439 42 q 418 26 439 37 l 418 23 l 420 18 q 410 1 410 15 l 410 -7 q 415 -12 410 -12 l 423 -12 l 426 1 q 423 9 423 7 q 442 20 439 20 l 450 20 l 453 26 q 439 42 450 37 m 125 31 q 117 34 119 34 q 92 18 98 18 q 90 26 90 23 l 87 26 l 87 12 q 106 -7 97 -7 q 127 23 106 9 l 136 18 l 141 18 q 149 28 149 18 q 141 39 145 39 l 125 31 m 274 31 l 260 15 l 260 7 q 277 -1 263 -1 l 282 -1 l 290 4 q 304 -9 290 -3 q 307 -1 307 -4 l 309 -1 q 323 -12 323 -10 l 336 -1 l 345 -15 l 342 -20 q 355 -34 342 -24 q 345 -56 345 -45 q 353 -72 345 -62 q 374 -64 368 -64 l 374 -61 l 372 -47 l 380 -47 q 385 -58 385 -47 q 415 -42 404 -53 l 420 -45 q 439 -34 439 -38 q 431 -23 433 -34 l 426 -26 l 420 -23 q 412 -31 420 -27 q 399 -26 404 -26 q 391 -34 399 -30 q 374 -18 378 -18 q 363 -28 374 -22 q 361 -26 363 -26 l 363 -20 l 363 -18 q 350 15 350 -8 l 336 15 q 331 7 336 7 l 323 12 q 315 4 315 12 l 309 4 q 288 20 309 19 q 274 31 288 28 m 231 15 l 231 9 l 236 -9 q 231 -15 231 -10 l 231 -20 l 239 -31 l 244 -28 l 247 -28 l 247 -34 q 258 -58 247 -55 l 260 -58 q 263 -42 260 -56 q 252 -15 252 -26 l 244 -7 l 247 7 q 239 20 245 20 l 236 20 q 231 15 231 20 m 431 -9 q 442 -23 437 -22 q 456 -12 456 -20 q 445 1 450 0 q 431 -9 433 -4 m 260 -20 q 274 -34 263 -32 l 279 -23 q 274 -4 274 -12 q 260 -20 263 -4 m 168 -28 q 179 -45 174 -45 l 182 -45 q 195 -18 195 -39 l 195 -9 l 190 -12 l 184 -9 q 168 -28 168 -16 m 87 -12 l 87 -39 l 90 -39 q 98 -37 95 -37 l 98 -34 q 87 -12 98 -19 m 320 -28 q 328 -42 323 -42 l 331 -42 q 336 -37 336 -42 l 336 -23 q 328 -15 336 -19 q 320 -28 323 -15 m 190 -53 q 182 -50 184 -50 q 160 -69 182 -53 q 174 -91 162 -82 l 155 -104 l 152 -104 l 152 -102 q 157 -83 152 -100 q 146 -66 157 -79 l 146 -61 q 160 -50 160 -54 q 163 -42 163 -50 l 163 -39 q 155 -31 163 -35 l 149 -31 q 127 -66 127 -43 l 119 -72 l 117 -72 l 111 -69 q 100 -83 104 -83 l 98 -83 l 100 -69 l 100 -64 q 92 -56 100 -60 l 87 -56 q 79 -99 87 -58 l 81 -104 q 79 -115 79 -109 l 79 -118 l 81 -118 q 106 -113 94 -118 l 100 -99 q 122 -94 117 -99 l 133 -94 l 133 -110 l 176 -110 q 182 -118 182 -110 l 193 -110 q 214 -113 208 -113 q 228 -104 228 -111 l 222 -104 l 222 -99 q 233 -88 233 -99 q 217 -61 231 -78 l 233 -58 q 212 -23 233 -37 q 195 -53 202 -23 l 190 -53 m 298 -26 l 296 -39 q 304 -53 298 -53 l 307 -53 q 315 -45 311 -53 q 304 -26 311 -26 l 298 -26 m 106 -31 l 100 -39 l 100 -50 q 109 -58 100 -54 l 111 -58 q 119 -42 119 -56 q 106 -31 117 -31 m 274 -47 l 274 -56 q 277 -66 274 -62 q 266 -80 271 -79 q 247 -66 266 -77 l 247 -64 l 236 -64 q 233 -75 236 -75 q 252 -94 233 -83 q 241 -102 241 -98 l 241 -104 q 269 -94 269 -100 q 277 -96 274 -96 q 342 -77 290 -88 q 328 -53 332 -53 l 326 -53 q 315 -64 323 -53 l 317 -69 q 304 -85 314 -80 l 298 -85 l 298 -83 q 304 -77 299 -77 q 279 -42 298 -52 q 274 -47 274 -43 m 195 -75 q 203 -83 199 -75 q 198 -88 203 -88 l 190 -88 l 190 -94 l 187 -94 q 179 -85 183 -94 l 179 -83 l 182 -77 l 187 -80 l 195 -75 m 114 -107 l 114 -110 l 122 -110 l 122 -107 l 114 -107 z "}}}
